<?xml version="1.0" encoding="UTF-8"?><svg id="Layer_2" xmlns="http://www.w3.org/2000/svg" viewBox="0 0 868.59 646.32"><g id="Layer_1-2"><text transform="translate(366.81 311.06)" style="font-family:MyriadPro-Regular, &apos;Myriad Pro&apos;; font-size:12px;"><tspan x="0" y="0" style="letter-spacing:0em;">O</tspan><tspan x="8.3" y="0">ur business </tspan><tspan x="67.1" y="0" style="letter-spacing:0em;">v</tspan><tspan x="72.75" y="0">e</tspan><tspan x="78.77" y="0" style="letter-spacing:.02em;">r</tspan><tspan x="82.98" y="0">ticals</tspan></text><path d="M437.01,103.24c9.07,20.25,10.62,38.83-3.67,57.7-38.01,50.2-116.61,1.84-89.05-54.69,16.31-33.45,61.76-39.73,86.42-11.85l6.08,8.45c.05.05.09.11.13.18.04.07.07.14.09.21h0ZM435.05,104.11l-5.96-8.27c-23.65-26.73-67.23-20.7-82.86,11.36-26.42,54.2,48.95,100.57,85.39,52.44,13.75-18.16,12.21-36.03,3.43-55.53h0Z" style="fill-rule:evenodd;"/><path d="M281.09,212.88c20.93-16.75,46.56-34.93,65.92-52.47.51-.31,1.17-.16,1.49.35.31.51.16,1.17-.35,1.49-1.02.94-4.19,3.9-5.18,4.72-18.91,15.73-40.65,32-60.25,47.33-.39.45-1.07.5-1.52.1-.45-.39-.5-1.07-.1-1.52h0Z" style="fill-rule:evenodd;"/><path d="M283.7,190.78c11.69-10.04,44.15-26.97,59.35-35.96.51-.31,1.17-.16,1.49.35s.16,1.17-.35,1.49c-16.97,10.05-43.94,23.88-58.55,35.08-.26.53-.91.75-1.45.49s-.75-.91-.49-1.45h0Z" style="fill-rule:evenodd;"/><path d="M312.55,162.21c8.97-5.41,18.5-9.03,27.98-13.88.51-.31,1.17-.16,1.49.35s.16,1.17-.35,1.49c-9.19,4.71-18.74,8.44-27.49,13.46-.39.45-1.07.5-1.52.11-.45-.39-.5-1.07-.11-1.52h0Z" style="fill-rule:evenodd;"/><path d="M302.33,156.2c5.31-2.07,10.46-4.94,17.03-7.1,16-5.24,4.96-1.15,20.07-7.09.57-.18,1.18.14,1.35.7.18.57-.14,1.18-.7,1.35-13.36,5.26-23.33,7.84-36.61,13.84-5.21,2.35-5.7.39-2.35-1.75.38-.24.86-.21,1.2.05h0Z" style="fill-rule:evenodd;"/><path d="M283.84,151.3c17.26-6.07,38.94-7.86,53.09-14.3.48-.35,1.16-.25,1.51.23.35.48.25,1.16-.23,1.51-14.27,6.63-36.15,8.57-52.95,14.19-.45.39-1.13.34-1.52-.1-.39-.45-.34-1.13.1-1.52h0Z" style="fill-rule:evenodd;"/><path d="M252.05,140.59c25.53-1.45,53.41-4.21,78.94-6.71,5.36-.53,4.21-.36,7.86-1.09.48-.35,1.16-.25,1.51.23.35.48.25,1.16-.23,1.51-9.04,2.38-74.67,7.5-88.33,8.2-.59-.07-1.02-.61-.94-1.2.07-.59.61-1.02,1.2-.94h0Z" style="fill-rule:evenodd;"/><path d="M267.15,124.92c11.45-1.87,49.48,1.44,63.66,1.39l8.42-.22c.58-.13,1.16.23,1.29.82.13.58-.23,1.16-.82,1.29l-8.9.28c-16.45.1-48.35-3.21-62.45-1.75-.5.33-1.17.2-1.5-.3-.33-.5-.2-1.17.3-1.5h0Z" style="fill-rule:evenodd;"/><path d="M339.95,120.59c-10.32-1.81-19.29-2.28-29.73-2.37-.59.04-1.11-.41-1.15-1-.04-.59.41-1.11,1-1.15,10.87.08,19.86.55,30.6,2.49.56.2.85.82.65,1.38-.2.56-.82.85-1.38.65h0Z" style="fill-rule:evenodd;"/><path d="M341.7,114.17c-13.47-2.31-26.73-5.36-40.3-6.48-.58.15-1.17-.19-1.32-.77s.19-1.17.77-1.32c14.09.94,27.19,4.03,41.11,6.43.59.07,1.02.61.94,1.2-.07.59-.61,1.02-1.2.94h0Z" style="fill-rule:evenodd;"/><path d="M342.78,110.01c-14.43-7.6-36.43-14.4-51.93-19.26-.58-.15-.92-.75-.77-1.32.15-.58.75-.92,1.32-.77,15.82,4.94,37.88,11.78,52.58,19.56.5.33.63,1,.29,1.5-.33.5-1,.63-1.5.29h0Z" style="fill-rule:evenodd;"/><path d="M345.14,102.63c-19.62-15.74-43.24-26.16-65.02-38.39-.27-.53-.06-1.18.47-1.45.53-.27,1.18-.06,1.45.47,19.5,9.63,48.62,24.65,64.81,38.05.37.47.28,1.15-.19,1.52-.47.37-1.15.28-1.52-.19h0Z" style="fill-rule:evenodd;"/><path d="M349.77,98.74c-15.04-13.45-36.95-27.55-53.63-40.39-.46-.38-.53-1.06-.16-1.52.38-.46,1.06-.53,1.52-.16,16.6,12.79,39.23,27.31,53.98,40.76.36.47.27,1.15-.2,1.51-.47.36-1.15.27-1.51-.2h0Z" style="fill-rule:evenodd;"/><path d="M353.46,94.81c-7.82-7.5-15.12-15.22-22.17-23.45-.31-.51-.16-1.17.35-1.49.51-.31,1.17-.16,1.49.35,6.88,7.97,14.03,15.53,21.6,22.84.48.35.59,1.03.24,1.51-.35.48-1.03.59-1.51.24h0Z" style="fill-rule:evenodd;"/><path d="M357.4,88.24c-9.67-9.83-16.69-19.1-26.75-28.6-.47-.36-.56-1.04-.2-1.51.36-.47,1.04-.57,1.51-.2,10.19,9.61,17.13,18.79,26.85,28.69.45.39.5,1.07.11,1.52-.39.45-1.07.5-1.52.11h0Z" style="fill-rule:evenodd;"/><path d="M362.22,86.38c-9.36-15.61-16.84-28.7-27.53-43.63-.37-.47-.29-1.15.17-1.52.47-.37,1.15-.29,1.52.17,10.77,15.03,18.26,28.13,27.68,43.84.31.51.16,1.17-.35,1.49-.51.31-1.17.16-1.49-.35h0Z" style="fill-rule:evenodd;"/><path d="M367.19,83.02c-10.02-19.9-19.3-40.53-30.15-59.98-.31-.51-.16-1.17.35-1.49.51-.31,1.17-.16,1.49.35,10.25,18.35,21.06,40.52,29.93,59.68.4.45.36,1.13-.09,1.52-.45.4-1.13.36-1.52-.09h0Z" style="fill-rule:evenodd;"/><path d="M371.69,80.56c-8.3-19.03-9.64-39.66-19.95-60.59-.31-.51-.16-1.17.35-1.49.51-.31,1.17-.16,1.49.35,10.47,21.21,11.7,41.34,19.91,60.53.33.5.2,1.17-.3,1.5-.5.33-1.17.2-1.5-.3h0Z" style="fill-rule:evenodd;"/><path d="M378.85,78.25c-1.96-10.24-4.98-19.46-6.27-28.77-.18-.57.14-1.17.71-1.35.57-.18,1.17.14,1.35.71,1.44,9.65,4.3,18.42,6.28,28.82.17.57-.16,1.17-.74,1.34-.57.17-1.17-.16-1.34-.74h0Z" style="fill-rule:evenodd;"/><path d="M385.24,78.83c-2.72-11.86-4.21-23.01-7.02-34.86-.18-.57.14-1.17.71-1.35.57-.18,1.17.14,1.35.71,2.82,11.87,4.31,23.02,7.03,34.88.17.57-.15,1.17-.73,1.34-.57.17-1.17-.15-1.34-.73h0Z" style="fill-rule:evenodd;"/><path d="M388.92,77.14c1.69-18.2,3.48-33.81,3.66-52.25-.12-.58.26-1.16.84-1.27.58-.12,1.16.26,1.27.84-.04,18.61-1.92,34.47-3.63,52.83-.04.6-.56,1.04-1.15,1-.6-.04-1.04-.56-1-1.15h0Z" style="fill-rule:evenodd;"/><path d="M395.81,77.11c1.79-24.11,8.22-51.22,11.32-75.79-.13-.58.23-1.16.82-1.29s1.16.23,1.29.82c-2.33,24.79-9.17,51-11.28,75.99.08.59-.34,1.13-.93,1.21-.59.08-1.13-.34-1.21-.93h0Z" style="fill-rule:evenodd;"/><path d="M401.48,78.2c1.59-17.91,9.83-41.18,13.15-59.93-.12-.58.25-1.16.84-1.28.58-.12,1.16.25,1.28.84-2.52,19.1-10.95,40.65-13.14,59.95.12.59-.27,1.15-.85,1.27-.59.12-1.15-.27-1.27-.85h0Z" style="fill-rule:evenodd;"/><path d="M406.85,80.08c2.7-10.65,6.71-18.92,9.06-28.89-.13-.58.23-1.16.82-1.29.58-.13,1.16.23,1.29.82-2.06,10.52-6.23,18.71-9.02,29.58-.06.59-.59,1.03-1.18.97-.59-.06-1.03-.59-.97-1.18h0Z" style="fill-rule:evenodd;"/><path d="M412.22,82.46c5.45-11.89,10.23-23.7,15.3-35.73.38-.46,1.06-.52,1.52-.14.46.38.52,1.06.14,1.52-4.78,11.95-9.69,23.67-15.06,35.38-.28.52-.94.72-1.46.44-.52-.28-.72-.94-.44-1.46h0Z" style="fill-rule:evenodd;"/><path d="M418.91,83.27c8.8-14.41,15.55-28.68,23.82-43.39.32-.51.98-.66,1.49-.34.51.32.66.98.34,1.49-8.3,14.77-15.05,29.02-23.91,43.51-.35.48-1.03.59-1.51.24-.48-.35-.59-1.03-.24-1.51h0Z" style="fill-rule:evenodd;"/><path d="M423.31,85.47c12.6-14.43,25.96-35.04,37.01-51.53.38-.46,1.06-.53,1.52-.16.46.38.53,1.06.16,1.52-11.16,16.7-24.68,37.56-37.6,52.03-.52.3-1.18.12-1.47-.4-.3-.52-.12-1.18.4-1.47h0Z" style="fill-rule:evenodd;"/><path d="M427.35,89.01c14.11-13.8,28.6-28.42,42.22-42.7.39-.45,1.07-.5,1.52-.11.45.39.5,1.07.11,1.52-13.62,14.3-28.36,29.29-42.54,43.01-.47.36-1.15.27-1.51-.2-.36-.47-.27-1.15.2-1.51h0Z" style="fill-rule:evenodd;"/><path d="M471.6,62.68c-14.57,10.45-25.38,21.06-39.81,31.55-.52.3-1.18.12-1.48-.4s-.12-1.18.4-1.48c14.4-10.47,25.18-21.07,39.81-31.55.52-.3,1.18-.12,1.48.4.3.52.12,1.18-.4,1.48h0Z" style="fill-rule:evenodd;"/><path d="M504.89,49.82c-21.45,16.1-47.62,33.46-67.52,50.39-.52.3-1.18.12-1.48-.4-.3-.52-.12-1.18.4-1.48,1.05-.91,4.31-3.76,5.32-4.55,19.39-15.13,41.63-30.72,61.69-45.43.41-.44,1.09-.46,1.53-.06.44.4.46,1.09.06,1.53h0Z" style="fill-rule:evenodd;"/><path d="M501.6,71.83c-11.99,9.67-44.97,25.58-60.44,34.1-.52.3-1.18.12-1.48-.4-.3-.52-.12-1.18.4-1.48,17.28-9.52,44.66-22.5,59.61-33.24.28-.53.93-.73,1.46-.45.53.28.73.93.45,1.46h0Z" style="fill-rule:evenodd;"/><path d="M471.87,99.49c-9.14,5.13-18.78,8.45-28.4,13-.52.3-1.18.12-1.48-.4-.3-.52-.12-1.18.4-1.48,9.33-4.42,18.99-7.85,27.89-12.59.4-.44,1.09-.47,1.53-.06.44.4.47,1.09.06,1.53h0Z" style="fill-rule:evenodd;"/><path d="M481.9,105.81c-5.38,1.91-10.6,4.61-17.25,6.56-16.15,4.74-4.99,1-20.28,6.46-.57.16-1.17-.17-1.33-.75-.16-.57.17-1.17.75-1.33,13.51-4.84,23.56-7.11,37.02-12.69,5.25-2.18,5.71-.22,2.3,1.83-.39.23-.87.18-1.2-.08h0Z" style="fill-rule:evenodd;"/><path d="M500.23,111.29c-17.45,5.53-39.17,6.64-53.51,12.64-.49.34-1.16.21-1.5-.28s-.21-1.16.28-1.5c14.46-6.19,36.4-7.44,53.37-12.54.46-.38,1.14-.31,1.52.15.38.46.31,1.14-.15,1.52h0Z" style="fill-rule:evenodd;"/><path d="M531.67,122.99c-25.56.66-53.52,2.54-79.11,4.25-5.38.36-4.22.23-7.89.84-.49.34-1.16.21-1.5-.28-.34-.49-.21-1.16.28-1.5,9.1-2.1,74.88-5.17,88.55-5.45.59.09,1,.64.91,1.23-.09.59-.64,1-1.23.91h0Z" style="fill-rule:evenodd;"/><path d="M516.09,138.18c-11.5,1.51-49.42-2.98-63.59-3.37l-8.42-.04c-.59.11-1.15-.27-1.26-.86-.11-.59.27-1.15.86-1.26h8.91c16.45.41,48.23,4.72,62.37,3.69.51-.31,1.17-.16,1.49.35s.16,1.17-.35,1.49h0Z" style="fill-rule:evenodd;"/><path d="M443.19,140.24c10.26,2.13,19.21,2.88,29.64,3.29.6-.02,1.1.44,1.12,1.04.02.6-.44,1.1-1.04,1.12-10.87-.42-19.83-1.17-30.51-3.44-.56-.22-.83-.84-.61-1.4.22-.56.84-.83,1.4-.61h0Z" style="fill-rule:evenodd;"/><path d="M441.24,146.6c13.39,2.73,26.55,6.19,40.08,7.74.58-.13,1.16.23,1.3.81.13.58-.23,1.16-.81,1.3-14.06-1.38-27.05-4.88-40.89-7.7-.59-.09-1-.64-.91-1.23s.64-1,1.23-.91h0Z" style="fill-rule:evenodd;"/><path d="M440.03,150.72c14.19,8.05,35.96,15.53,51.31,20.87.57.17.9.77.72,1.35-.17.57-.77.9-1.35.72-15.66-5.43-37.49-12.95-51.94-21.19-.48-.35-.6-1.02-.25-1.51.35-.48,1.02-.6,1.51-.25h0Z" style="fill-rule:evenodd;"/><path d="M437.44,158.02c19.12,16.35,42.41,27.49,63.8,40.39.26.54.03,1.18-.51,1.44-.54.26-1.18.03-1.44-.51-19.2-10.23-47.83-26.16-63.59-40.05-.35-.48-.25-1.16.24-1.51.48-.35,1.16-.25,1.51.24h0Z" style="fill-rule:evenodd;"/><path d="M432.69,161.76c14.62,13.91,36.08,28.68,52.34,42.04.45.39.5,1.07.11,1.52-.39.45-1.07.5-1.52.11-16.2-13.31-38.35-28.52-52.69-42.42-.35-.49-.23-1.16.25-1.51.49-.35,1.16-.23,1.51.25h0Z" style="fill-rule:evenodd;"/><path d="M428.89,165.58c7.59,7.74,14.64,15.68,21.43,24.13.3.52.12,1.18-.4,1.48-.52.3-1.18.12-1.48-.4-6.63-8.18-13.54-15.96-20.88-23.5-.47-.37-.56-1.04-.19-1.52.37-.47,1.04-.56,1.52-.19h0Z" style="fill-rule:evenodd;"/><path d="M424.74,172.02c9.36,10.13,16.09,19.61,25.85,29.42.46.38.53,1.06.16,1.52-.38.46-1.06.53-1.52.16-9.89-9.92-16.54-19.32-25.95-29.51-.44-.4-.47-1.09-.06-1.53.4-.44,1.09-.47,1.53-.06h0Z" style="fill-rule:evenodd;"/><path d="M419.87,173.73c8.87,15.9,15.93,29.21,26.16,44.47.36.48.26,1.16-.22,1.51-.48.36-1.16.26-1.51-.22-10.29-15.36-17.38-28.69-26.3-44.68-.3-.52-.12-1.18.4-1.48.52-.3,1.18-.12,1.48.4h0Z" style="fill-rule:evenodd;"/><path d="M414.72,176.87c9.64,20.19,18,41.01,28.33,60.96.3.52.12,1.18-.4,1.48-.52.3-1.18.12-1.48-.4-9.29-17.93-20.37-41.82-27.99-60.51-.42-.42-.42-1.11,0-1.53.42-.42,1.11-.42,1.53,0h0Z" style="fill-rule:evenodd;"/><path d="M410.22,179.26c7.7,19.28,8.4,39.94,18.05,61.18.3.52.12,1.18-.4,1.48-.52.3-1.18.12-1.48-.4-9.8-21.52-10.41-41.69-18.01-61.12-.31-.51-.16-1.17.35-1.49.51-.31,1.17-.16,1.49.35h0Z" style="fill-rule:evenodd;"/><path d="M402.99,181.34c1.64,10.29,4.37,19.61,5.37,28.95.16.57-.18,1.17-.75,1.33-.57.16-1.17-.18-1.33-.75-1.14-9.69-3.73-18.54-5.38-29-.15-.58.2-1.17.78-1.31s1.17.2,1.31.78h0Z" style="fill-rule:evenodd;"/><path d="M396.62,180.57c2.35,11.94,3.49,23.14,5.93,35.06.16.57-.18,1.17-.75,1.33-.57.16-1.17-.18-1.33-.75-2.45-11.95-3.59-23.14-5.94-35.08-.15-.58.19-1.17.77-1.32.58-.15,1.17.19,1.32.77h0Z" style="fill-rule:evenodd;"/><path d="M392.89,182.13c-2.26,18.14-4.54,33.69-5.29,52.11.1.59-.29,1.15-.88,1.25-.59.1-1.15-.29-1.25-.88.61-18.6,2.99-34.39,5.27-52.7.06-.59.59-1.03,1.18-.97.59.06,1.03.59.97,1.18h0Z" style="fill-rule:evenodd;"/><path d="M386,181.95c-2.54,24.05-9.81,50.93-13.67,75.41.11.59-.27,1.15-.86,1.26-.59.11-1.15-.27-1.26-.86,3.1-24.71,10.76-50.69,13.65-75.6-.06-.59.37-1.12.97-1.18.59-.06,1.12.37,1.18.97h0Z" style="fill-rule:evenodd;"/><path d="M380.37,180.69c-2.15,17.85-11.11,40.86-15.01,59.49.1.59-.29,1.15-.88,1.25-.59.1-1.15-.29-1.25-.88,3.12-19.01,12.21-40.29,15-59.51-.1-.59.3-1.14.89-1.24.59-.1,1.14.3,1.24.89h0Z" style="fill-rule:evenodd;"/><path d="M375.06,178.64c-3.03,10.56-7.29,18.7-9.95,28.6.11.59-.27,1.15-.86,1.26-.59.11-1.15-.27-1.26-.86,2.39-10.45,6.81-18.5,9.93-29.28.08-.59.62-1.01,1.21-.93.59.08,1.01.62.93,1.21h0Z" style="fill-rule:evenodd;"/><path d="M369.77,176.1c-5.82,11.72-10.96,23.37-16.4,35.23-.39.45-1.07.5-1.52.1-.45-.39-.5-1.07-.1-1.52,5.16-11.8,10.43-23.36,16.16-34.9.3-.52.96-.69,1.48-.39.52.3.69.96.39,1.48h0Z" style="fill-rule:evenodd;"/><path d="M363.11,175.08c-9.24,14.13-16.44,28.18-25.16,42.62-.33.5-1,.63-1.5.3-.5-.33-.63-1-.3-1.5,8.76-14.5,15.95-28.54,25.25-42.75.37-.47,1.04-.56,1.52-.19.47.37.56,1.04.19,1.52h0Z" style="fill-rule:evenodd;"/><path d="M358.78,172.74c-13.05,14.04-27.03,34.22-38.59,50.35-.39.45-1.07.5-1.52.11s-.5-1.07-.11-1.52c11.68-16.35,25.83-36.77,39.21-50.84.53-.28,1.18-.08,1.46.44s.08,1.18-.44,1.46h0Z" style="fill-rule:evenodd;"/><path d="M354.85,169.08c-14.53,13.35-29.47,27.52-43.52,41.37-.4.44-1.09.47-1.53.06-.44-.4-.47-1.09-.06-1.53,14.05-13.87,29.26-28.39,43.86-41.66.49-.35,1.16-.23,1.51.25.35.49.23,1.16-.25,1.51h0Z" style="fill-rule:evenodd;"/><polygon points="838.06 562.85 862.12 563.04 862.12 643.86 854.79 643.86 854.79 567.36 838.25 567.36 838.06 562.85 838.06 562.85" style="fill:#1a1a1a; fill-rule:evenodd; stroke:#000; stroke-miterlimit:22.93; stroke-width:.57px;"/><polygon points="552.06 565.02 528 565.21 528 646.03 535.33 646.03 535.33 569.53 551.87 569.53 552.06 565.02 552.06 565.02" style="fill:#1a1a1a; fill-rule:evenodd; stroke:#000; stroke-miterlimit:22.93; stroke-width:.57px;"/><polygon points="32.79 518.31 8.73 518.5 8.73 599.32 16.06 599.32 16.06 522.82 32.6 522.82 32.79 518.31 32.79 518.31" style="fill:#1a1a1a; fill-rule:evenodd; stroke:#000; stroke-miterlimit:22.93; stroke-width:.57px;"/><polygon points="499.52 515.78 493.75 515.78 493.75 557.67 499.52 557.67 499.52 515.78 499.52 515.78" style="fill:#1a1a1a; fill-rule:evenodd; stroke:#000; stroke-miterlimit:22.93; stroke-width:.57px;"/><polygon points="53.19 517.95 47.42 517.95 47.42 559.84 53.19 559.84 53.19 517.95 53.19 517.95" style="fill:#1a1a1a; fill-rule:evenodd; stroke:#000; stroke-miterlimit:22.93; stroke-width:.57px;"/><path d="M861.66,546.07s-333.6,1.99-333.6,1.99c-.6,0-1.08-.48-1.09-1.07,0-.6.48-1.08,1.07-1.09,0,0,333.6-1.99,333.6-1.99.6,0,1.08.48,1.09,1.07,0,.6-.48,1.08-1.07,1.09h0Z" style="fill-rule:evenodd;"/><path d="M838.23,564.02s-287.23,1.99-287.23,1.99c-.6,0-1.08-.48-1.09-1.07,0-.6.48-1.08,1.07-1.09,0,0,287.23-1.99,287.23-1.99.6,0,1.08.48,1.09,1.07,0,.6-.48,1.08-1.07,1.09h0Z" style="fill-rule:evenodd;"/><path d="M525.6,567.92l-26.93-52.86c-.27-.53-.06-1.18.47-1.45.53-.27,1.18-.06,1.45.47l26.93,52.86c.27.53.06,1.18-.47,1.45-.53.27-1.18.06-1.45-.47h0Z" style="fill-rule:evenodd;"/><path d="M496.65,517.64s-485.19,2-485.19,2c-.6,0-1.08-.48-1.08-1.08,0-.6.48-1.08,1.08-1.08,0,0,485.19-1.99,485.19-1.99.6,0,1.08.48,1.08,1.08,0,.6-.48,1.08-1.08,1.08h0Z" style="fill-rule:evenodd;"/><path d="M496.65,503.18c-99.08.4-391.6,1.59-490.68,1.99-.6,0-1.08-.48-1.08-1.08,0-.6.48-1.08,1.08-1.08,0,0,490.68-1.99,490.68-1.99.6,0,1.08.48,1.08,1.08,0,.6-.48,1.08-1.08,1.08h0Z" style="fill-rule:evenodd;"/><path d="M833.81,367.96v85.77c0,.6-.48,1.08-1.08,1.08s-1.08-.48-1.08-1.08v-85.77c0-.6.48-1.08,1.08-1.08s1.08.48,1.08,1.08h0Z" style="fill-rule:evenodd;"/><path d="M485.75,305.71v109.47c0,.6-.48,1.08-1.08,1.08s-1.08-.48-1.08-1.08v-109.47c0-.6.48-1.08,1.08-1.08s1.08.48,1.08,1.08h0Z" style="fill-rule:evenodd;"/><path d="M269.84,309.2v109.47c0,.6-.48,1.08-1.08,1.08s-1.08-.48-1.08-1.08v-109.47c0-.6.48-1.08,1.08-1.08s1.08.48,1.08,1.08h0Z" style="fill-rule:evenodd;"/><path d="M27.49,364.87v70.05c0,.6-.48,1.08-1.08,1.08s-1.08-.48-1.08-1.08v-70.05c0-.6.48-1.08,1.08-1.08s1.08.48,1.08,1.08h0Z" style="fill-rule:evenodd;"/><path d="M863.24,544.09c3.16,5.34,3.36,16.86-.52,20.46-.21.54-.81.83-1.36.63-.56-.2-.86-.81-.67-1.37,2.77-5.73,4.38-12.39.86-18.37-.37-.47-.3-1.15.17-1.52.47-.37,1.15-.3,1.52.17h0Z" style="fill-rule:evenodd;"/><path d="M862.32,542.72c6.05-18.55,6.11-46.88-4.7-63.67-17.3-26.89-30.44-25-59.57-32.88-37.5-10.15-64.83.08-103.09-4.86-.59.05-1.12-.39-1.16-.99-.05-.59.39-1.12.99-1.16l2.8.31c37.61,4.42,63.15-5.59,101.03,4.61,29.87,8.04,43,6.07,60.81,33.79,11.29,17.57,11.18,46.37,4.86,65.74-.25.54-.89.78-1.43.54s-.78-.89-.54-1.43h0Z" style="fill-rule:evenodd;"/><path d="M693.78,439.64c-13.71-7.9-11.33-6.8-28.91-10.12-27.45-5.18-55.41-6.17-83.25-7.36-17.25-.73-72.49-.74-84.43,12.24l-2.49,3.25c-.34.49-1.01.62-1.5.28-.49-.34-.62-1.01-.28-1.5l2.67-3.48c12.69-13.77,67.91-13.73,86.12-12.95,27.94,1.19,56,2.19,83.56,7.39,17.33,3.27,15.57,2.27,29.33,10.24.55.23.82.86.59,1.41-.23.55-.86.82-1.41.59h0Z" style="fill-rule:evenodd;"/><path d="M500.13,446.38c-10.89,8.72-8.7,32.74-5.38,43.89,1.92,6.45,9.23,18.06,5.2,24.76-.34.49-1.01.62-1.5.28-.49-.34-.62-1.01-.28-1.5,3.17-5.24-3.86-17.53-5.41-22.71-3.73-12.43-5.81-36.92,6.15-46.49.49-.34,1.16-.21,1.5.28.34.49.21,1.16-.28,1.5h0Z" style="fill-rule:evenodd;"/><path d="M832.34,366.62c3.34-14.86-7.35-13.94-18.43-15.41-.56-.2-.85-.82-.65-1.38.2-.56.82-.85,1.38-.65,12.5,1.55,23.47,1.64,19.76,18.09-.18.57-.78.89-1.35.71-.57-.18-.89-.78-.71-1.35h0Z" style="fill-rule:evenodd;"/><path d="M774.1,439.86c12.88-27.78,21.48-50.91,32.59-79.22,4.9-12.49,14.95-29.16,6.89-42.69-7.85-13.17-85.99-24.37-101.27-15.88-21.95,12.2-39.8,87.3-39.94,111.45-.08,13.79,22.4,20.36,22.73,26.87-.05.59-.57,1.04-1.17.99-.5-.04-.9-.42-.98-.9-4.48-7.98-22.82-12.41-22.75-26.96.12-24.57,17.11-90.05,33.89-107.63,16.16-16.93,53.26-7.37,73.75-3.74,20.18,3.58,40.92,5.37,40.39,28.82-.33,14.61-3.61,15.12-7.69,25.78-11.29,29.51-21.16,55.3-34.47,84.01-.25.54-.89.78-1.43.54-.54-.25-.78-.89-.54-1.43h0Z" style="fill-rule:evenodd;"/><path d="M772.41,303.11c15.14,14.05-10.77,47.47-17.29,63.74-11.2,27.95-20.69,42.13-28.88,72.7.05.59-.4,1.11-.99,1.16-.59.05-1.11-.4-1.16-.99,7.75-30.97,17.69-45.33,28.97-73.53,5.97-14.93,31.37-48.97,17.99-61.38-.47-.37-.54-1.05-.17-1.52s1.05-.54,1.52-.17h0Z" style="fill-rule:evenodd;"/><path d="M707.85,302.86c-27.56-2.23-60.29-2.14-88.63-2.91-24.38-.66-44.98.9-69.71-1.88-9.51-1.07-54.09-2.43-60.08,2.28-1.62,1.28-3.01,2.61-3.75,4.54-.15.58-.74.93-1.32.78-.58-.15-.93-.74-.78-1.32.97-2.55,2.34-4,4.51-5.71,6.81-5.36,51.51-3.88,61.82-2.71,26.48,3.01,51.39,1.11,77.93,2.21,23.99,1,59.01-.21,81.15,2.87.51.32.66.98.34,1.49s-.98.66-1.49.34h0Z" style="fill-rule:evenodd;"/><path d="M497.7,444.5c-24.42-25.01-16.44-20.16-56.26-24.51-48.51-5.31-81.3-3.72-129.47-.66-33.14,2.11-64.42-.48-97.92.39-32.99.85-65.99.49-98.6,1.4-16.98.47-33.7,3.22-50.59,4.9-17.6,1.75-30.84,8.47-47.06,15.1-16.09,6.57-14.39,6.44-15.58,24.4-.85,12.94,1.68,23.34,3.81,35.61.12.67-.2,1.03-.62,1.51-.38.46-1.06.52-1.52.14-.46-.38-.52-1.06-.14-1.52l.03-.04c-2.6-6.73-4.18-28.76-3.71-35.87,1.22-18.58.11-19.37,16.92-26.23,16.57-6.77,29.68-13.46,47.67-15.25,27.97-2.78,42.7-5.1,71.28-5.16,43.12-.09,88.68-2.81,131.01-.95,25.12,1.1,44.97-.83,69.73-2.15,46.38-2.48,72.12-1.6,118.12,3.7,30.33,3.5,24.41,3.15,44.24,23.5.47.37.54,1.05.17,1.52-.37.47-1.05.54-1.52.17h0Z" style="fill-rule:evenodd;"/><path d="M499.42,431.29c-8.71-3.08-9.67-5.69-15.28-13.08-.38-.46-.32-1.14.14-1.52.46-.38,1.14-.32,1.52.14,5.25,6.91,6.12,9.53,14.2,12.38.57.16.91.76.75,1.33s-.76.91-1.33.75h0Z" style="fill-rule:evenodd;"/><path d="M482.56,306.08c-3.17-13.73-65.64-7.41-80.15-7.41-31.99,0-64.11.82-96.05-.81-7.56-.39-34.69-3.96-35.71,9.78,0,.6-.48,1.08-1.08,1.08s-1.08-.48-1.08-1.08c1.19-15.97,28.18-12.44,38.03-11.93,33.39,1.71,74.29,1.44,107.99.8,12.98-.24,66.44-6.93,70.2,9.34.06.59-.37,1.13-.96,1.19-.59.06-1.12-.37-1.19-.96h0Z" style="fill-rule:evenodd;"/><path d="M266.82,309.65c-1.19-13.85-19.12-11.74-30.12-11.32-13.98.54-25.02,2.36-40.5,2.41-23.41.07-122.38-6.5-137.29,1.82-12.35,6.89-4.43,33.34-7.81,48.47-.29.52-.94.72-1.47.43-.52-.29-.72-.94-.43-1.47,3.06-15.1-5.21-41.58,8.65-49.33,15.68-8.76,114.15-2.02,138.32-2.09,15.51-.05,26.62-1.89,40.61-2.41,12.72-.47,30.82-2.29,32.19,13.47,0,.6-.48,1.08-1.08,1.08s-1.08-.48-1.08-1.08h0Z" style="fill-rule:evenodd;"/><path d="M49.15,351.55c-14.35.86-16.37,2.88-30.3,7.51-.15.05-8.32,2.5-7.06,4.18.38.46.32,1.14-.14,1.52-.46.38-1.14.32-1.52-.14-3.19-4.28,5.83-6.87,8.05-7.61,11.8-3.92,17.85-7.22,30.29-7.5.57-.19,1.18.12,1.37.68.19.57-.12,1.18-.68,1.37h0Z" style="fill-rule:evenodd;"/><path d="M10.38,362.67c6.59-3.32,9.12-1.98,16,.57.56.2.86.81.67,1.37-.2.56-.81.86-1.37.67-6.07-2.25-8.37-3.68-14.15-.77-.51.32-1.17.16-1.49-.34-.32-.51-.16-1.17.34-1.49h0Z" style="fill-rule:evenodd;"/><path d="M50.22,350.19c10.14,5.15,7.37,58.43,6.84,70.56l-.14,4.06c.05.59-.4,1.11-.99,1.16s-1.11-.4-1.16-.99c.21-6.65.08-3.65.56-12.48.5-9.24,1.11-56.66-5.92-60.3-.55-.22-.82-.85-.6-1.41s.85-.82,1.41-.6h0Z" style="fill-rule:evenodd;"/></g></svg>