<?xml version="1.0" encoding="UTF-8"?><svg id="Layer_2" xmlns="http://www.w3.org/2000/svg" viewBox="0 0 413.27 274.32"><g id="Layer_1-2"><g id="KyuWYU"><path d="M128.8,193.94c-2.17,8.38-7.98,14.4-15.91,17.66-.61,11.85.92,24.64.02,36.38-2.48,32.38-44.36,34.72-50.95,4.13l-.1-71.52-1.62-1.13c-16.15-1.04-29.09,1.22-42.99-8.67-26.3-18.7-21.63-60.67,7.96-73.19,8.31-3.51,12.17-2.85,20.54-2.83,63.49.16,124.7-18.65,168.09-66.13,14.27-15.61,28.64-41.01,53.31-21.65,33.93,26.63,39.73,110.95,37.28,150.8-1.9,30.84-12.19,95.42-41.13,112.45-21.76,12.8-33.72-7.37-46.01-20.55-24.42-26.17-53.89-45.58-88.48-55.75ZM208.65,202.87c4.57,29.67,33.65,97.23,65.72,46.77s31.53-171.95.96-223.29c-11.18-18.78-27.38-28.37-44.3-8.75-12.71,14.74-18.3,36.97-22.88,55.49.29,1.59,14.92,3.3,17.47,3.65,9,1.24,33.22,2.03,39.61,5.85,19.48,11.65,18.38,63.05,14.03,82.41-2.9,12.91-7.45,26.29-21.58,29.39-16.14,3.54-32.81,5.33-49.03,8.49ZM210.72,233.86c-20.61-61.34-20.61-131.51,0-192.84-3.44,1.48-5.49,4.86-8.25,7.24-7.41,6.39-15.19,12.57-23.49,17.84-36.19,22.96-79.06,33.64-121.78,34.91-6.89,23.58-8.1,48.9.72,72.15,41,3.21,82.31,13.85,117.89,34.66,12.74,7.45,23.58,16.71,34.91,26.04ZM247.22,85.1l-40.63-4.83c-6.48,38.46-6.61,78.04.71,116.37l40.61-6.87c.62-.58-3.24-5.16-3.81-6.17-13.68-24.29-12.2-69.84.92-94.17.83-1.54,2.61-2.31,2.2-4.33ZM257.39,86.6c-4.35.84-7.84,6.73-9.59,10.43-9.53,20.19-9.26,60.94.47,81.03,9.24,19.07,18.74,6.34,23.08-7.21,6.24-19.48,6.25-46.2.33-65.78-1.66-5.48-7.02-19.87-14.29-18.47ZM39.91,172.56h11.02c-7.72-23.43-6.71-48.07,0-71.62l-10.33-.4c-8.31,22.9-8.13,48.8-.69,72.02ZM33.71,101.63c-36.37,8.42-36.24,59.99-1.04,69.56l-4.5-26.5c-.4-14.56,1.18-29.17,5.54-43.07ZM67.46,181.17v66.8c0,24.26,37.17,27.54,39.28.71l.02-61.24c-7.64-1.97-15.42-3.86-23.23-5.13-3.64-.59-11.31-2.14-14.52-2.05-.85.02-1.06.25-1.55.9ZM112.92,189.09v15.15c5.31-2.23,8.67-7.1,9.67-12.7l-9.67-2.45Z"/><path d="M395.88,48.01c.66,2.33-.33,4.26-2.47,5.23l-63.88,25.72c-4.19,1.79-6.15-3.63-2.91-5.79l65.25-26.34,4.01,1.19Z"/><path d="M338.49,139.5c-1.95-.55-2.26-4.29-.57-5.56l72.58-.32,2.39,1.75c1.12,1.09-.53,4.13-1.4,4.13h-73.01Z"/><path d="M325.93,199.25c-2.19-2.24.53-6,3.27-5.07l64.3,26c3.28,1.2,4.39,3.69,1.34,6.03l-3.54-.39-65.37-26.56Z"/></g></g></svg>