<?xml version="1.0" encoding="UTF-8"?><svg id="Layer_2" xmlns="http://www.w3.org/2000/svg" viewBox="0 0 336.4 349.37"><g id="Layer_1-2"><g id="rvlG3S"><path d="M6.35,325.89c-9.32-1.88-6.13-15.6-4.38-21.85,5.53-19.72,20.22-33.64,38.97-40.98-26.43-17-19.13-57.78,12.07-63.87,37.8-7.38,57.84,42.9,25.58,63.87,9.38,4.12,18.12,8.86,25.19,16.45l9.37,12.08c9.91-9.02,21.27-17.48,34.64-20.14.36-1.61-.28-1.09-.88-1.5-10.3-7.09-17.85-13.88-20.97-26.72-9.41-38.71,31.76-69.07,65.46-47.99,23.27,14.55,27.28,48.53,7.48,67.84-2.69,2.62-7.19,4.74-9.69,6.97-.6.54-.57.52-.42,1.39,13.21,3.21,25.17,11.22,34.61,20.83,5.26-9.32,13.01-17.94,22.3-23.38,3.75-2.2,7.96-3.52,11.61-5.84-25.77-17.36-18.69-57.57,12.07-63.87,32.52-6.66,54.95,31.36,33.98,56.82l-8.4,7.37c18.43,6.01,33.96,21.6,39.3,40.33,1.46,5.11,3.63,13.51.64,18.11-.78,1.2-4.02,4.06-5.34,4.06h-87.69c1.65,8.17,5.22,19.08-4.68,23.2l-137.39.28c-11.06-4.25-6.74-14.5-5.75-23.48H6.35ZM200.73,232.03c0-18.02-14.61-32.63-32.63-32.63s-32.63,14.61-32.63,32.63,14.61,32.63,32.63,32.63,32.63-14.61,32.63-32.63ZM83.86,233.49c0-13.32-10.8-24.12-24.12-24.12s-24.12,10.8-24.12,24.12,10.8,24.12,24.12,24.12,24.12-10.8,24.12-24.12ZM300.58,233.5c0-13.31-10.79-24.11-24.11-24.11s-24.11,10.79-24.11,24.11,10.79,24.11,24.11,24.11,24.11-10.79,24.11-24.11ZM10.72,315.14h87.02l7.06-13.71c-19.64-46.44-88.06-36.24-94.08,13.71ZM325.19,315.14c-5.7-50.06-73.84-60.05-94.03-13.77l6.67,13.77h87.35ZM233.14,338.66c-4.43-40.63-43.3-68.3-83.32-56.78-25.04,7.21-44.65,30.55-46.37,56.78h129.69Z"/><path d="M186.21,86.56l33.79,2.84c3.28.97,5.77,3.2,4.94,6.87-1.1,4.88-23.47,19.68-27.31,25.14,1.28,10.67,6.77,22.72,7.51,33.23.38,5.36-3.48,7.63-8.22,5.54-8.16-3.6-17.47-11.64-25.82-15.84-1.1-.55-2.1-1.33-3.43-1.23l-28.61,17.13c-5.55,2.02-8.56-.79-7.99-6.64.9-9.08,6.15-20.79,7.18-29.83.09-.79.35-1.55.04-2.35l-25.75-22.67c-2.37-4.42-1.05-8.54,4.08-9.34,8.79-1.36,18.66-.97,27.49-2.08,1.9-.24,3.83-.68,5.72-1,5.58-10.8,8.76-23.01,15.07-33.31,2.09-1.25,6.24-1.01,7.7,1.13l13.63,32.4ZM205.59,99.45c-5.22-1.56-23.1-.5-26.56-3.34s-7.85-19.53-10.72-24.21c-3.61,4.64-7.61,21.81-11.79,24.5-.83.54-1.36.81-2.36,1-7.45,1.39-16.25.58-23.82,2.06,3.51,4.52,18.73,14.05,19.88,18.81l-5.76,25.53c1.03.25,1.47-.4,2.22-.8,4.97-2.67,14.19-10.05,18.64-11.59,1.87-.65,4-.64,5.84.16l20.34,12.24c.82-1.03-6-21.1-5.23-25.7.12-.72.93-2.4,1.41-2.98,3.34-3.97,11.62-9.43,15.92-13.3.72-.65,1.66-1.46,2.01-2.35Z"/><path d="M93.03,31.2c1.3,0,2.98.95,4.04,1.71,2.61,1.87,20.61,19.81,22.13,22.21,3.26,5.14-2.68,10.96-7.66,7.67l-22.88-22.81c-2.89-3.46.08-8.78,4.37-8.78Z"/><path d="M242.98,31.1c4.92-.27,7.36,6.32,3.9,9.85l-22.51,21.83c-5.65,3.66-11.18-3.53-6.01-9.37,4.49-5.07,11.07-10.73,16.12-15.46,2.23-2.09,4.96-6.66,8.5-6.86Z"/><path d="M167.11.1c3.36-.6,5.87,1.67,6.24,4.92.7,6.05.85,26.46-.05,32.23-1.01,6.45-9.93,5.54-10.73-1.29-.67-5.73-.81-25.42.05-30.89.32-2.01,2.48-4.61,4.49-4.97Z"/><path d="M60.92,106.3c9.73.8,22.74-1.58,32.07-.1,6.13.97,6.8,9.72.67,10.67-5.14.8-27.71.8-32.85,0-6.16-.96-5.47-8.96.1-10.57Z"/><path d="M242.35,106.31c9.94.67,22.41-1.43,32.05-.08,6.49.91,6.92,8.19,1.39,10.67h-33.57c-5.24-1.83-5.04-8.87.13-10.59Z"/></g></g></svg>