<?xml version="1.0" encoding="UTF-8"?><svg id="Layer_2" xmlns="http://www.w3.org/2000/svg" viewBox="0 0 329.63 306.28"><g id="Layer_1-2"><g id="WzDWbm"><path d="M271.29,151.62c12.34-.84,25.63.13,37.48,3.64,7.63,2.26,16.99,6.27,20.09,14.06l.02,119.56c-2.52,11.27-30.7,16.67-40.34,17.24-13.17.79-55.34-1.43-58.47-18.6l.13-118.07c2.85-12.3,30.66-17.12,41.09-17.83ZM322.08,167.73c-13.93-14.99-67.28-13.72-83.13-1.57-9.97,7.64.61,14.24,8.19,17.25,15.99,6.35,39.96,6.73,56.56,2.64,6.79-1.67,27.6-8.39,18.38-18.32ZM324.32,182.89l-8.92,4.81c-19.7,8.56-55.8,8.27-75.01-1.58-1.36-.7-5.47-4.8-5.81-2.24-1.19,8.94,1.31,12.59,8.91,16.55,17.67,9.2,55.37,9.05,73-.25,1.61-.85,7.82-5.38,7.82-6.91v-10.38ZM324.32,200.97c-10.53,7.77-25.52,10.78-38.47,11.41-17.08.84-36.93-1.65-51.26-11.41v9.71c0,3.97,9.23,8.9,12.55,10.22,18.37,7.3,50.13,7.36,68.06-1.26,1.94-.93,9.12-5.61,9.12-7.62v-11.05ZM324.32,220.39l-8.92,4.81c-18.41,8-50.69,7.96-69.41.86-3.38-1.28-8.07-4.94-10.41-5.66-1.24-.38-.89.23-.99.98-1.24,9.31,1.55,13.32,9.59,17.21,18.08,8.75,56.34,9.02,73.65-1.6,1.47-.9,6.49-4.66,6.49-6.23v-10.38ZM324.32,239.14c-2.31,1.02-4.18,2.83-6.44,3.93-19.08,9.27-53.86,9.16-73.42,1.26-3.53-1.42-6.45-3.65-9.87-5.2v9.71c0,3.75,9.61,8.8,12.74,10.03,18.14,7.16,52.69,7.34,69.83-2.47,1.74-1,7.16-4.91,7.16-6.9v-10.38ZM324.32,257.89c-22.85,14.44-54.47,13.82-79.47,5.48l-10.26-5.48v9.71c0,1.84,4.46,5.61,6.09,6.64,17.27,10.96,62.26,11.62,78.91-.66.95-.7,4.73-4.47,4.73-5.31v-10.38ZM324.32,276.64c-3.22,1.75-6.4,3.86-9.8,5.26-18.8,7.75-51.75,7.56-70.54-.25-2.97-1.23-6.39-4.22-8.39-5-1.16-.45-.9.29-.99.98-1.09,8.29.76,12.32,7.89,16.22,17.96,9.85,57.71,10.2,75.34-.61,1.47-.9,6.49-4.66,6.49-6.23v-10.38Z"/><path d="M306.91,40.94l-69.96,70.32c-2.42,2.15-5.33,3.96-8.69,4.03l-89.62.12L18.5,200.17c-12.22,6.38-23.09-7.2-14.6-17.95l126-88.95,5.89-1.47,87.61-.11,65.77-65.48,1-2.01h-29.13c-.23,0-3.64-1.55-4.16-1.87-8.72-5.47-6.2-19.24,4.46-21.26,16.32-3.09,40.17,1.68,57.29-.31,4.96.81,9.92,3.69,10.41,9.01,1.83,19.85-1.31,42.66-.18,62.82-2.41,7.5-12.4,9.54-18.27,4.52-.82-.7-3.67-5.12-3.67-5.7v-30.47ZM226.97,95.57l-2.25,1.43-92.3.8L8.29,185.28c-5.97,5.39.82,14.71,7.68,10.35l121.49-85.41,93.61-.81,77.65-77.76c1.48-.39,2.67.94,2.86,2.29.72,10.41-.88,21.88,0,32.15.47,5.49,2.03,9.29,8.35,8.31,3.77-.58,4.8-4.32,5.09-7.64,1.55-17.59-.85-38.04-.47-55.83-.73-2.37-3.37-4.72-5.9-4.81-17.63,1.31-37.62-1.69-54.96-.02-7.68.74-9.64,8.65-3.01,12.46l35.84.32c6.46,3.15-1.96,6.69-3.26,10.44l-66.29,66.27Z"/><path d="M154.1,189.12c16.11-1.26,43.64-.11,56.39,10.84,3.26,2.8,4.98,4.9,5.38,9.36,2.18,24.69-1.64,52.61-.09,77.64-.48,3.73-3.26,6.49-6.02,8.71-17.85,14.31-70.2,14-88.28,0-3.59-2.78-5.7-6.02-6.11-10.63-2.13-23.87,1.67-50.84,0-75.05,1.33-14.81,26.68-19.92,38.73-20.86ZM162.8,193.81c-10.22.19-23.14,2.07-32.45,6.38-14.12,6.53-11.9,14.11,1.13,19.86,17.48,7.7,48.68,7.65,66.46.86,8.35-3.19,18.99-9.71,8.08-17.8-10.37-7.69-30.58-9.52-43.22-9.29ZM120.75,219.72v10.38c0,1.97,5.42,5.92,7.16,6.9,18.13,10.17,57.85,10.13,75.88-.19,7.51-4.3,8.17-8.54,7.02-17.08-2.57,1.74-5.08,3.51-7.93,4.8-19.29,8.72-55.77,8.83-74.92-.31-2.55-1.22-4.85-3-7.23-4.49ZM210.48,238.47c-6.45,4.7-14.28,7.46-22.08,9.06-15.44,3.17-34.56,2.8-49.86-1.08-6.44-1.63-12.35-4.22-17.8-7.99v11.05c0,2.93,8.49,7.39,11.03,8.39,17.84,6.97,55.51,7.52,72.36-2,1.15-.65,6.34-4.76,6.34-5.71v-11.72ZM210.48,257.89c-9.47,6.55-23.01,9.44-34.45,10.08-18.41,1.02-39.37-.06-55.28-10.08v10.38c0,.29,2.76,3.42,3.4,3.97,15.4,13.08,67.91,13.36,82.99.06.74-.65,3.34-3.34,3.34-4.02v-10.38ZM210.48,276.64l-9.39,5.01c-18.44,7.53-47.55,7.52-66.43,1.5-5.03-1.6-9.81-3.84-13.92-7.18v11.05c0,.87,3.18,3.91,4.08,4.63,16.02,12.68,63.86,12.38,80.52.95.77-.53,5.13-4.56,5.13-4.91v-11.05Z"/><path d="M5.14,293.81c-2.66-2.8-3.89-6.34-4.24-10.15-1.27-13.53-1.17-40.88.12-54.22.51-5.27,2.62-8.12,6.62-11.33,17.33-13.9,69.26-13.93,86.95-.68,4.43,3.32,6.95,7.05,7.43,12.65,1.49,17.33-1.18,36.73,0,54.29-.28,3.66-2.15,7.43-4.76,9.97-16.36,15.87-76.39,16.04-92.12-.52ZM94.41,233.55c6.35-7.28-3.65-13.01-9.82-15.49-17.44-7.01-48.83-7.01-66.27,0-8.14,3.27-17.35,9.63-7.39,17.41,15.25,11.92,70.44,13.02,83.49-1.92ZM96.65,238.47c-14.69,10.44-35.65,12.42-53.27,11.42-12.49-.71-26.99-3.95-37.13-11.42v9.71c0,1.44,2.85,4.35,4.01,5.36,15.08,13.11,67.74,13.08,82.72-.33.77-.69,3.67-3.65,3.67-4.37v-10.38ZM96.65,257.22c-2.61,1.85-5.31,3.49-8.25,4.8-19.59,8.74-54.29,8.74-73.89,0-2.94-1.31-5.64-2.95-8.25-4.8v9.71c0,3.31,7.47,7.86,10.26,9.15,18.07,8.36,57.29,8.62,74.34-2.23,1.34-.85,5.8-4.84,5.8-6.25v-10.38ZM96.65,275.97c-18.77,12.85-47.24,13.71-68.98,9.05-7.61-1.63-15.21-4.36-21.42-9.05v10.38c0,1.69,5,5.83,6.6,6.79,17.84,10.84,58.21,10.57,76.36.5,1.9-1.05,7.44-5.17,7.44-7.29v-10.38Z"/></g></g></svg>