<?xml version="1.0" encoding="UTF-8"?>
<svg id="Layer_1" xmlns="http://www.w3.org/2000/svg" version="1.1" viewBox="0 0 464.1 659.5">
  <!-- Generator: Adobe Illustrator 29.3.1, SVG Export Plug-In . SVG Version: 2.1.0 Build 151)  -->
  <path d="M2.5,442.9h18.3c6.9,42,21.7,82.7,45.6,117.9l-46,86.4H4.3c.3-61.3-.8-183.8-.8-183.8l-1-20.5Z"/>
  <path d="M374.2,16h12.8v172.2h-12.8c-10.6-76.6-56.4-148.4-138.8-157.5-78.3-8.6-166,28.1-158.7,119.4,5.5,69.8,97.8,91.2,152,107.7l-50.9,96.3c-73.6-20.8-153.6-53.6-165.9-139C-11.6,52.6,156.5-36.4,296.9,14.2c19.8,7.1,41.8,21.8,63.2,19.3,6.8-.8,11.1-11.9,14.2-17.4Z"/>
  <path d="M106,643.6l17.8-32.8c17.4,8.1,36,13.5,55.1,16.1,75.9,10.4,167.1-1.2,192.1-86,21.3-71.9-10.5-123.1-76.5-150.7-14.7-6.1-30.1-10-44.8-15.6l50.4-94.8c32,9.5,64.6,18.5,92.9,36.6,62.6,40.1,81.9,104.6,66.1,176.1-19.9,89.9-96.3,158.2-186.2,163.7-47.3,2.9-94.9,4.5-141.4-5.8-8.6-1.9-17.1-4.5-25.6-6.9Z"/>
</svg>