<?xml version="1.0" encoding="UTF-8"?><svg id="Layer_2" xmlns="http://www.w3.org/2000/svg" viewBox="0 0 1272.08 403.59"><g id="_Layer_"><path d="M1122.82,280.64h-24.08v-77.82l24.08.79v77.02ZM1271.83,350.82c-2.84.2-287.72,19.73-571.18,33.98-166.47,8.37-299.89,13.31-396.54,14.67-57.36.81-102.22.36-133.35-1.35-45.61-2.5-52.53-7.22-53.39-9.14l-.15-.27c-.04-.07-4.42-6.8-1.19-12.99,2.69-5.16,11.41-11.45,37.69-12.12,2.57-.02,260.08-2.31,515.91-8.98,150.27-3.92,270.57-8.55,357.56-13.78,145.46-8.74,167.5-17.06,170.05-23.35.6-1.22,6.08-12.92.37-23.09-4.46-7.95-14.41-12.58-29.71-13.75h-41.37v-76.9l47.96,1.62-79.52-59.28-106.94-8.73-121.82,29.57-1.42-29.55-245.63-61.77v83.4l189.42,39.57,29.25,19.31-202.95-19.53,1.61,116.39,219.73-5.76.69,13.46-234.03,6.35v-130.09l-239.85-20.05v-11.61l-13.07-25.69,134.2-2.78,110.63,21.16-2-89.42-155.4,59.55-31.09,1.76,9.71-6.77,181.46-59.21,255.69,73.77,36.05-16.39L608.63,0l-174.28,121.47-21.22,6.92-54.32-.75,5.54,10.87-165.32,105.06,180.22-60.59v6.61l-118.47,43.36v76.14l95.37,24.19-168.73-5.75-.13-.81c.33-20.27,2.1-120.79,4.98-154.72.14-1.71.35-3.31,1.24-4.14,1.96-1.83,5.78.94,8.64,3.58,10.45,9.66,25.11,13.22,37.33,9.05,13.43-4.58,22.3-18.91,19.77-31.94-.9-4.63-4.64-10.11-9.27-14.69,6.54-2.07,11.79-6.37,14.26-11.75,4.84-10.57-1.06-22.4-7.47-32.58-3.66-5.81-7.8-12.39-13.64-17.11l-.67-.55c-1.17-.95-2.34-1.88-3.5-2.77,6.01-5.84,11.11-13.83,11.47-20.53.66-12.29-5.12-25.05-15.88-35.01-5.67-5.25-25.03-11.99-40.38,1.37-13.3-10.28-28.72-11.42-38.76-2.72-6.07,5.26-9.76,19.28-7.29,28.9-4.99-1.97-10.74-2.3-16.46-.87-7.72,1.94-13.98,6.76-17.18,13.24-3.2,6.47-3.22,14.38-.07,21.69,1.97,4.58,4.97,8.41,8.63,11.16-7.19,1.45-13.84,6.73-16.67,14-3.54,9.11-1.31,20.25,5.69,28.38,5.57,6.46,13.79,10.91,23.37,12.68-4.81,10.49-2.26,23.97,6.36,31.76,7.67,6.94,19.33,8.64,28.82,4.83,6.23,49.63,5.16,100.38-3.2,149.84H0v4.4h170.58l.26-2.91c8.73-50.75,9.84-102.14,3.32-153.07.73-.43,1.44-.9,2.12-1.41,7.59-5.53,11.89-16.35,12.68-24.07.47-4.64-1.86-9.7-5.81-12.58-3.01-2.19-6.49-2.68-9.56-1.34-5.81,2.54-7.83,9.38-6,20.32.95,5.66,1.8,11.33,2.55,17-8.35,3.81-18.95,2.46-25.83-3.76-8.02-7.25-9.95-20.2-4.41-29.48l1.45-2.43-2.81-.37c-9.78-1.28-18.18-5.48-23.64-11.83-6.02-6.99-8.05-16.87-5.04-24.6,3.25-8.34,12.44-13.57,20.5-11.64l.98-3.59c-5.86-1.8-10.77-6.45-13.49-12.75-2.72-6.31-2.72-13.08,0-18.57,2.71-5.49,8.09-9.6,14.75-11.28,6.66-1.68,13.34-.59,18.33,2.96l9.06,6.46-6.47-9.06c-5.09-7.13-1.66-24,4.35-29.2,10.32-8.95,25.13-4.55,35.21,3.79l1.27,1.05,1.2-1.14c14.65-13.98,32.69-5.95,36.49-2.43,9.94,9.21,15.29,20.9,14.69,32.08-.33,6.03-5.36,13.3-10.84,18.47-5.49-3.84-10.58-6.22-14.15-4.5-2.42,1.17-3.62,3.92-3.57,8.17v.17c.63,6.04,4.75,6.58,6.49,6.55,3.26-.08,7.44-2.26,11.49-5.59,1.65,1.25,3.07,2.4,3.97,3.14l.68.55c5.36,4.33,9.15,10.37,12.83,16.2,6.17,9.81,11.32,20.12,7.23,29.05-2.24,4.88-7.35,8.7-13.7,10.23-.15.03-.3.07-.45.11-5.07-4.2-10.62-7.03-14.55-6.62-1.75.18-5.81,1.36-5.68,8.27l.03.31c.36,1.95,1.31,3.39,2.8,4.28,3.59,2.13,9.33.25,14.39-1.41.69-.23,1.37-.45,2.01-.65,4.78,4.29,9.02,9.76,9.88,14.2,2.19,11.28-5.58,23.71-17.32,27.71-10.78,3.67-24.28.35-33.6-8.26-5.85-5.41-10.46-6.61-13.71-3.56-2,1.88-2.24,4.69-2.4,6.55-2.89,34.13-4.67,135.22-4.99,155.13v.16s.66,4.16.66,4.16l187.51,6.39,4.95-2.87-112.18-28.47v-70.64l114.41-41.98v143.3h229.63l1.47-128.82-221.9-21.68-5.13,1.88v-5.84l236.18,19.74v130.5l241.66-6.56-1.07-20.89-219.59,5.75-1.5-108.46,213.71,20.56-42.34-27.94-187.15-39.1v-75.61l238.32,59.93,8.81,183.82,16.2-2.31-5.39-120.26,24.54,1.55,38.35,31.49h-43.97l2.28,71h63.95v-111.67l27.78-13.74v130.45l132.79-8.25v-18.03h41.22c13.82,1.07,22.77,5.05,26.59,11.83,4.94,8.76-.42,19.58-.47,19.69l-.09.19c-1.26,3.39-20.04,12.21-166.82,21.04-86.95,5.23-207.21,9.86-357.44,13.78-255.8,6.67-513.28,8.96-515.88,8.98-22.61.58-36.39,5.34-40.95,14.16-3.99,7.71.62,15.48,1.33,16.61,2.84,5.78,21.74,12.94,138.6,12.94,15.4,0,32.51-.12,51.51-.39,96.69-1.37,230.15-6.3,396.67-14.68,283.5-14.25,568.4-33.79,571.25-33.99l-.26-3.71ZM609.1,4.21l290.74,118.97-26.95,12.25-255.47-73.71-170.82,55.74L609.1,4.21ZM175.08,140.22c.71-.31,1.4-.44,2.05-.44,1.64,0,3.02.79,3.83,1.37,2.87,2.09,4.64,5.88,4.3,9.2-.73,7.14-4.8,16.8-11.18,21.45-.15.11-.3.22-.46.33-.71-5.21-1.5-10.42-2.37-15.62-1.04-6.22-1.22-14.09,3.82-16.3ZM224.57,73.48c-.76.01-2.32.06-2.68-3.13,0-1.52.18-4.06,1.47-4.69,1.96-.94,5.93,1.16,9.62,3.66-3.18,2.5-6.26,4.1-8.41,4.15ZM231.21,133.91c-.33-.19-.78-.57-1.01-1.61-.03-4.08,1.7-4.27,2.35-4.33,2.31-.25,5.99,1.52,9.73,4.29-3.85,1.26-8.99,2.9-11.08,1.66ZM413.7,132.12l10.09-3.29-10.38,7.24,44.79-2.54,151.01-57.86,1.78,79.53-106.49-20.37-136.4,2.83-3.17-6.22,48.77.68ZM379.32,179.05l-152.42,51.23,139.16-88.44,13.26,26.08v11.12ZM549.73,334.08h-40.66v-88l40.66,2.85v85.15ZM388.6,190.14l217.66,21.27-1.39,122.99h-51.42v-88.94l-48.11-3.38v91.46h-122.99v-141.35l6.25-2.06ZM962.34,191.64v110.03h-56.71l-2.04-63.35h50.53l-47.32-38.85-29.87-1.88,5.43,121.03-8.81,1.26-7.13-148.88,127.1-9.82v14.87l-31.17,15.6ZM1122.82,199.9l-27.49-.92v85.39h27.49v14.54l-125.35,7.78v-127.51l125.35,8.57v12.15ZM997.23,175.45v-18.3l-109.91,8.49,101.01-24.52,105.28,8.6,69.13,51.54-36.2-1.23v-15.75l-129.32-8.82Z" style="fill:#0c0c0c;"/></g></svg>