<?xml version="1.0" encoding="UTF-8"?><svg id="Layer_2" xmlns="http://www.w3.org/2000/svg" viewBox="0 0 386.66 553.84"><g id="Layer_1-2"><path d="M367.07,356.1c-1.64-14.56-9.64-70.69-1.56-82.26,1.99-2.85,15.7-8.76,11.29-13.02-2.84-2.74-15.57,5.2-18.95,6.56-33.08,13.3-81.62,21.69-117.32,13.99-15.57-3.36-23.3-6.29-36.34-15.33-11.65-8.07-9.84,10.86-10.2,16.28-.82,12.37-.6,9.53-2.38,20.56-.16.58.18,1.17.76,1.33.58.16,1.17-.18,1.33-.76,1.84-11.34,1.62-8.42,2.45-21,.25-3.79-1.89-20.68,6.81-14.64,42.19,29.26,99.94,19.7,145.67,5.07,2.79-.89,25.33-10.7,26.65-10.51.44,4.57-9.46,4.22-13.23,13.26-5.58,13.36.85,64.95,2.92,80-.13.58.24,1.16.83,1.28.58.13,1.16-.24,1.28-.83h0Z" style="fill-rule:evenodd;"/><path d="M356.35,354.82c.62-8.2,5.4-77.27-6.88-78.02-2.44-.15-10.06,3.71-12.95,4.55-37.25,10.78-93.89,13.91-129.4-4.63-4.02-2.1-3.6,1.35-4.67,4.98-2.73,9.27-4.12,13.38-5.73,23.12-.04.6.42,1.11,1.01,1.14.6.04,1.11-.42,1.14-1.01,1.72-10.4,4-16.93,6.74-26.56.19.09.38.19.5.25,35.77,18.7,93.47,15.84,130.97,4.8.11-.03,10.3-4.21,11.15-4.38,10.86-2.18,6.44,69.27,6,75.29-.13.58.23,1.16.81,1.29.58.13,1.16-.23,1.29-.81h0Z" style="fill-rule:evenodd;"/><path d="M195.64,313.5c7.14,18.59,16.13,33.14,22.96,51.01.19.57.8.87,1.37.68.57-.19.87-.8.69-1.37-6.82-17.86-15.81-32.41-22.92-50.89-.15-.58-.75-.92-1.32-.76-.58.15-.92.75-.76,1.32h0Z" style="fill-rule:evenodd;"/><path d="M193.48,305.25c-7.85-22.71-20.43-51.55-29.94-74.17-7.61-18.09-9.14-18.72-29.51-19.44-17.63-.62-119.34,2.23-130.4,11.31-9.75,8,2.78,26.31,6.8,35.24,12.35,27.44,25.77,56.77,36.04,84.91.18.57.79.88,1.36.7.57-.18.88-.79.7-1.36-11.57-31.72-27.28-65.77-41.35-96.69-2.93-6.44-9.7-17.15-.69-22.16,13.81-7.67,132.78-12.46,145.29-7.35,7.9,3.23,33.67,75.97,39.59,88.52-.13.58.23,1.16.82,1.29.58.13,1.16-.24,1.29-.82h0Z" style="fill-rule:evenodd;"/><path d="M54.15,358.46c5.15,13.55,20.48,62.44,28.07,68.72,12.96,10.74,57.86,5.83,75.88,5.34,21.59-.59,43.18-1.34,64.78-1.28.6.02,1.09-.45,1.11-1.05.02-.6-.45-1.09-1.05-1.11-21.64-.06-43.28.68-64.91,1.28-17.06.47-62.32,5.2-74.39-4.8-7.21-5.98-22.26-54.73-27.52-67.99l-2.08.41c.06.36.02.23.07.39.01.03.02.06.04.09h0Z" style="fill-rule:evenodd;"/><path d="M218.71,364.15c-43.06,10.82-86.8,22.67-127.31,41.11-.54.26-.76.91-.49,1.45.26.54.91.76,1.45.49,40.3-18.34,84.03-30.18,126.88-40.95.58-.14.93-.73.79-1.31-.14-.58-.73-.93-1.31-.79h0Z" style="fill-rule:evenodd;"/><path d="M227.5,364.86c18.53-2.93,129.55-10.39,143.16-6.32,7.81,2.34,16.3,7.93,13.19,17.77-2.44,7.71-39.26,20.06-47.74,23.72-21.13,9.12-65.64,30.73-87.61,29.43l-12.16-1.06c-.6,0-1.08.48-1.08,1.08s.48,1.08,1.08,1.08c0,0,11.99,1.06,11.99,1.06,22.63,1.34,66.96-20.24,88.64-29.61,9.69-4.19,46.05-15.89,48.95-25.06,3.49-11.03-5.68-17.81-14.68-20.5-14.07-4.21-125.51,3.31-144.4,6.35-.57.18-.88.79-.69,1.36.18.57.79.88,1.36.69h0Z" style="fill-rule:evenodd;"/><path d="M264.48,428.98c6.47-15.54-1.07-25.67-17.28-27.25-.6-.03-1.1.43-1.13,1.03-.03.6.43,1.1,1.03,1.13,14.43,1.41,21.31,10.05,15.49,24.04-.29.52-.11,1.18.41,1.47.52.29,1.18.11,1.47-.41h0Z" style="fill-rule:evenodd;"/><path d="M361,391.13l-.26,3.95-123,49.56c-.55.22-.82.85-.6,1.41.22.55.85.82,1.41.6l107.3-43.24h0c12.6-5.08,16.67-2.56,17.15-9.82l.15-2.32c.04-.6-.41-1.11-1.01-1.15-.6-.04-1.11.41-1.15,1.01h0Z" style="fill-rule:evenodd;"/><path d="M355.65,398.77l.39,7.05-15.58-1.48c-.59-.06-1.12.38-1.18.97-.06.59.38,1.12.97,1.18,19.94,1.89,18.32,6.04,17.55-7.84-.03-.6-.54-1.05-1.14-1.02-.6.03-1.05.54-1.02,1.14h0Z" style="fill-rule:evenodd;"/><path d="M319.25,414.79l37.69,4.99c.69,9.33,5.03,62.25,7.15,62.7l1.91.24c6.52.82,3.41-5.27,3.81-16.62.96-27.43.48-49.72-1.14-77.03-.04-.6-.55-1.05-1.14-1.01-.6.04-1.05.55-1.01,1.14l1.53,25.68c.31,22.33.01,43.54-1.02,65.8l-1.82-.23c-.79-7.43-1.62-14.82-2.47-22.25-1.35-11.85-2.1-28.76-3.71-39.44-.38-2.48-36.61-5.73-39.49-6.12-.59-.08-1.13.34-1.21.93-.08.59.34,1.13.93,1.21h0Z" style="fill-rule:evenodd;"/><path d="M192.84,429.81l-40.21,14.57c-.56.2-.85.82-.65,1.38.2.56.82.85,1.38.65l40.21-14.57c.56-.2.85-.82.65-1.38-.2-.56-.82-.85-1.38-.65h0Z" style="fill-rule:evenodd;"/><path d="M170.92,438.99c-.02,1.01-.06,3.48-.58,4.5-.74.08-2.06.24-2.66.05-.2-.48-.28-2.37-.33-2.86-.11-.59-.67-.97-1.26-.87-.59.11-.97.67-.87,1.26.74,8.01,8.28,6.44,7.77-2.7-.17-.57-.77-.9-1.34-.73-.57.17-.9.77-.73,1.34h0Z" style="fill-rule:evenodd;"/><path d="M221.65,429.73l1.38,30.81c-49.02-11.96-130.79-23.86-172.45-43.64-.53-.28-1.18-.08-1.46.45-.28.53-.08,1.18.45,1.46,11.91,5.65,20.67,8.71,33.39,12.34,11.36,3.24,140.66,32,141.44,31.83,2.28-.5-.48-30.78-.59-33.35-.03-.6-.53-1.06-1.13-1.03-.6.03-1.06.53-1.03,1.13h0Z" style="fill-rule:evenodd;"/><path d="M226.08,474.86c-58.89-14.85-116.94-28.44-176.63-39.79-.59-.11-1.15.28-1.26.86-.11.59.28,1.15.86,1.26,59.65,11.34,117.66,24.92,176.5,39.76.58.15,1.17-.2,1.31-.78.15-.58-.2-1.17-.78-1.31h0Z" style="fill-rule:evenodd;"/><path d="M53.68,291.27c-.06.04-.13.08-.21.1.07-.03.14-.06.21-.1h0ZM52.98,291.43c15.53,11.91,58.38,20.82,78.11,22.54,40.21,3.51,61.92-4.46,98.25-20.32,6.55-2.86,4.5-1.24,7.34-3.79,8.66,9.45-15.94,1.49-13.85,35.17,3.75,60.32,14.26,117.71,16.45,179.62.46,12.95-.01,33.14,1.81,45.73-1.39.44-3.76.53-5.47.85.84-11.7-6.64-58.96-7-61.51-1.44-10.26-.9-7.24-2.52-14.76-.25-.54-.9-.77-1.44-.52-.54.25-.77.9-.52,1.44,2.64,13,9.68,62.79,9.69,76.01-.39.34-.4.82.2,1.51.52.59.89.57,1.16.05,2.15-.08,5.58-.36,7.34-1.33,1.62-.89-.94-43.37-1.09-47.55-2.19-61.94-12.69-119.33-16.45-179.69-2.04-32.83,24.28-24.42,13.17-36.6-5.83,1.12-2.28.16-9.69,3.39-15.1,6.59-31.08,13.09-47.06,17.12-34.97,8.82-80.27,2-113.39-12.32-3.03-1.31-15.16-9.44-15.99-6.16-.02.57.4,1.05.95,1.11h0ZM241.14,550.71c.04.29.09.59.14.87-.15-.28-.21-.59-.14-.87h0ZM235.46,552.56c.04-.19.07-.4.09-.62.09.07.17.16.24.26l-.34.36h0Z" style="fill-rule:evenodd;"/><path d="M56.08,301.31c44.78,24.84,96.18,26.24,144.56,11.24,14.75-4.57,14.57-9.61,15.88,9.14,2.21,31.59,5.83,77.32,4.57,107.96-.14.58.21,1.16.79,1.31.58.14,1.16-.21,1.31-.79,1.31-27.88-1.95-67.6-3.72-96.29-2.05-33.25,0-29.42-19.46-23.39-47.75,14.8-98.6,13.49-142.81-11.03-.51-.31-1.17-.14-1.48.37-.31.51-.14,1.17.37,1.48h0Z" style="fill-rule:evenodd;"/><path d="M51.53,289.87c-4.17,21.06-3.27,44.46-6.72,66.83-5.76,37.36-11.49,63.61-11.91,101.8-.13,11.62-.13,23.27-.48,34.87-.18.57.13,1.18.7,1.36.57.18,1.18-.13,1.36-.7.71-11.6.45-23.81.58-35.51.42-38.06,6.15-64.25,11.89-101.49,3.43-22.26,2.56-45.64,6.65-66.54.17-.57-.15-1.17-.73-1.34-.57-.17-1.17.15-1.34.73h0Z" style="fill-rule:evenodd;"/><path d="M56.27,301.32c-.16,20.36-2.01,38.81-3.04,59.04-.74,14.53-3.08,24.02-3.64,38.78-.57,14.95.1,7.15-1.13,18.55-.19.57.12,1.18.69,1.36.57.19,1.18-.12,1.36-.69,1.37-11.99.67-4.05,1.24-19.17.56-14.82,2.9-24.2,3.64-38.75,1.03-20.27,2.88-38.74,3.04-59.14,0-.6-.48-1.08-1.08-1.08s-1.08.48-1.08,1.08h0Z" style="fill-rule:evenodd;"/><path d="M47.56,436.41c-.9,7.79-6.47,52.12-9.92,56.05-.93-.17-.51-.09-1.85-.36-.56-.2-1.18.09-1.38.65s.09,1.18.65,1.38l1.64.34.37-.05c7.31,1.06,11.82-50.69,12.65-57.79.06-.59-.37-1.12-.96-1.18-.59-.06-1.12.37-1.18.96h0ZM37.75,492.48c.13-.02.27.02.39.07l-.39-.07h0Z" style="fill-rule:evenodd;"/><path d="M220.34,9.56c5.49,4.56,9.37,9.62,13.51,15.4.1.59-.3,1.14-.89,1.24-.59.1-1.14-.3-1.24-.89-4.07-4.67-7.28-9.11-11.71-13.62-.59-.09-.99-.64-.9-1.23.09-.59.64-.99,1.23-.9h0Z" style="fill-rule:evenodd;"/><path d="M148.55,126.7c-1.17-12.71,15.96-23.67,24.72-34.34,13.67-16.64,16.33-9.54,28.53-31.39,3.15-5.64,6.31-11.83,10.91-16.47,10.47-10.54.26,2.07,8.84-8.99,11.78-15.17,14.65-16.16,23.55,1.57.38.46.31,1.14-.15,1.52-.46.38-1.14.31-1.52-.15-8.36-16.07-8.82-16.04-20.11-1.72-9.79,12.43-10.29,8.51-19.64,25.26-12.43,22.25-15.18,15.19-28.73,31.7-7.88,9.6-25.3,21.62-24.29,32.6.11.59-.27,1.15-.86,1.26-.59.11-1.15-.27-1.26-.86h0Z" style="fill-rule:evenodd;"/><path d="M243.42,37.62c-20.13,11.78-27.44,25.61-42.07,43.8-10.96,13.62-27.92,35.72-37.56,50.19-.11.59-.68.97-1.27.85-.59-.11-.97-.68-.85-1.27,8.61-13.68,27.68-38.29,38.01-51.13,15.05-18.71,22.06-32.26,42.83-44.4.54-.25,1.18-.02,1.43.52.25.54.02,1.18-.52,1.43h0Z" style="fill-rule:evenodd;"/><path d="M149.61,126.51c6.85,2.98,9.52,3.19,14.71,8.12,10.03,9.52,15.82-7.31,22.96-16.43,15.57-19.87,28.43-34.85,45.58-53.26,1.44-1.55,16.9-17.89,17.29-21.05-1.31-2.34-3.99-3.9-6.27-5.11-.55-.22-.83-.85-.61-1.4.22-.55.85-.83,1.4-.61,2.42,1.27,5.4,3.01,6.97,5.38,3.24,4.89-14.84,21.73-17.2,24.27-17.13,18.38-29.97,33.33-45.52,53.19-7.27,9.29-14.22,27.84-26.1,16.58-5.17-4.9-6.89-4.57-14.04-7.68-.55-.23-.82-.86-.59-1.41.23-.55.86-.82,1.41-.59h0Z" style="fill-rule:evenodd;"/><path d="M251.88,46.58c13.65,13.85,15.99,17.14,32.51,27.96.42.42.42,1.11,0,1.53-.42.42-1.11.42-1.53,0-15.62-10.08-19.15-13.69-31.96-27.56-.53-.27-.74-.93-.46-1.46.27-.53.93-.74,1.46-.46h0Z" style="fill-rule:evenodd;"/><path d="M284.68,73.98c8.39,2.27,1.63-2.2,14.5,6.42,11.12,7.44,11.56,7.26,1.46,21.87-19.98,28.91-26.32,32.53-48.51,56.08-4.77,5.06-28.23,36.52-35.41,26.91-.77-1.03-1-1.91-1.36-3.09h0c-2.29-2.89-20.6-12.94-8.77-18.03,21.36-9.2,55.74-53.29,68.54-74.33l6.93-12.15c.2-.56.82-.85,1.38-.65s.85.82.65,1.38l-7.17,12.62c-11.55,19-48.52,66.25-67.1,74.35-12.83,5.59,2.4,6.78,8.25,18,4.55,8.72,29.05-22.86,32.48-26.5,22.15-23.51,28.38-27,48.32-55.85,7.24-10.47,9.8-11.94,1.94-16.96-15.88-10.13-5.8-5.08-16.84-8.04-.56-.19-.87-.81-.67-1.37s.81-.87,1.37-.67h0Z" style="fill-rule:evenodd;"/><path d="M297.43,79.34c-10.04,22.1-41.27,54.34-58.91,73.1-7.94,8.45-15.96,16.75-24.99,24.08-.01.6-.5,1.07-1.1,1.06-.6-.01-1.07-.5-1.06-1.1,6.71-7.99,17.48-16.91,25.61-25.55,17.18-18.27,48.65-50.84,58.4-72.26.18-.57.79-.88,1.36-.7.57.18.88.79.7,1.36h0Z" style="fill-rule:evenodd;"/><path d="M221.48,11.59c-5.28,2.15-11.22,21.08-13.8,25.6-1.62,2.84-32.4,42.65-35.27,45.37-5.89,5.59-39.15,24.99-39.84,30.19,10.92,12.32,12.04,7.94,16.9,12.15.05.01.03,0,.23.03.59.07,1.02.61.95,1.2-.07.59-.61,1.02-1.2.95-6.49-.97-14.7-7.9-18.61-13.02-4.5-5.89,34.36-27.64,40.07-33.06,2.73-2.59,33.36-42.2,34.85-44.82,3.58-6.28,8.14-23.85,15.07-26.66.57-.18,1.17.14,1.35.71.18.57-.14,1.18-.71,1.35h0Z" style="fill-rule:evenodd;"/><path d="M307.76,86.97c8.79,11.34,30.33,7.9,8.3,23.4-6.75,4.75-27.76,19.88-32.11,25.13-2.99,3.61-11.63,16.96-15.6,22.16-11.35,14.82-16.71,21.13-25.8,37.47-.3.53-6,11.56-7.88,5.88v.04c-1.88-2.93-13.37-9.14-14.5-13.83-.26-.3-.34-.61-.45-1.02-.15-.58.2-1.17.78-1.31.58-.15,1.17.2,1.31.78.04.16.04.16.05.2.04.04.08.09.14.18,4.53,6.8,12.95,11.16,14.6,14.12,1.37-1.22,3.72-5.49,4.05-6.07,9.4-16.6,14.4-22.62,25.99-37.75,20.13-26.29,12.16-21.45,41.68-43.08,28.73-21.06,10.08-9.06-2.38-25.14-.32-.51-.16-1.17.34-1.49.51-.32,1.17-.16,1.49.34h0Z" style="fill-rule:evenodd;"/><path d="M321.71,96.27c4.06-2.96,4.64-13.27,7.1-5.48,4.59,1.44,16.61,3.29,9.31,9.48,1.56,1.82-2.33,4.11-1.75,8.51.72,5.5-3.26-2.08-5.85,4.58-.55,1.42-1.47-.16-4.65,1.88-3.59,2.3-5.73-5.65-6.49-7.79-.27-.47-.16-1.08.28-1.41,3.42-.6,2.24,6.72,4.97,7.42,1.02-.37,2.08-2.28,4.11-1.7,1.05-3.37,1.93-3.54,5.49-2.93-.2-3.07-1.15-4.03,1.76-5.75.09-.37.2-1.19.12-1.63-1.69-.99.32-3.06,1.68-4.41-8.11-5.76-8.75-2.16-10.53-5.1-.82,2.62-1.36,3.96-4.4,6.18-.51.32-1.17.16-1.49-.34-.32-.51-.16-1.17.34-1.49h0ZM319.41,107.5c.13.24.29.35.48.39-.17-.07-.33-.19-.45-.35l-.03-.04h0Z" style="fill-rule:evenodd;"/><path d="M306.06,116.55c.44.52,11.41,4.48,3.27,4.93.82,2.58.94,5.05-2.2,3.94-2.34,2.68,2.21,6.06-3.94,4.77-1.2,1.57-2.49,4.66-4.77,1.33-.84-.07-.7-.1-1.12-.05-1.06,1.85-2.02-.17-1.66-1.56-.08.12-.13.27-.16.46,0,0-.39-.78-.75-1.72-.55-.22-.82-.85-.6-1.4.03-.13.02-.07.04-.18.02.16.08.3.17.41-.37-1.35-.34-2.5,1.31-1.65.54.28.68.75.66,1.26.31.51.68,1.12.94,1.74.74.11,1.77.63,3.14,1.81,1.01-1,.94-3.32,3.91-2.57-.57-2.99.28-4.71,3.41-4.58-.19-.84-.66-2.76-.76-3.76l.04-.04c-1.01-.43-1.94-.99-2.79-2.05-.3-.51-.13-1.18.39-1.48.51-.3,1.18-.13,1.48.39h0Z" style="fill-rule:evenodd;"/><path d="M282.02,138.68c1.09.9,1.47,1.37,2.72,1.85h-.07c.58.11,1.04.53,1.16,1.38-.35.47-.76.69-1.19.73.03,0,.05,0,.08,0-.5.13-1.03.57-1.37.87,1.81,1.5-.23,2.43-2.02,3.12.14,1.65,1.09,3.03-1.41,4.08-2.27,5.06-5.43,5.36-8.06.23-.3-.52-.12-1.18.39-1.48.52-.3,1.18-.12,1.48.39,2.69,5.21,2.74,1.6,5.76-1.34.27-3.88-1.8-2.44,1.73-4.14-.58-.95-.03-2.07.86-2.86-.56-.43-1.08-.91-1.51-1.26-.44-.4-.47-1.09-.06-1.53.4-.44,1.09-.47,1.53-.06h0Z" style="fill-rule:evenodd;"/><path d="M263.16,165.09c1.16,3.99,1.9,7.07-1.17,5.7.78,5.88-.19.56-2.07,4.11,0,0,3.5,9.25-6.95,4.12-.51-.3-.69-.96-.39-1.48.3-.51.96-.69,1.48-.39.4.2,4.03,2.12,4.49.55-2.06-4.1-.2-4.08,1.92-5.58-1.13-3.38-1.31-5.04,1.47-3.65-.08-.42-.19-.55-.82-2.71-.19-.57.11-1.18.68-1.37.57-.19,1.18.11,1.37.68h0Z" style="fill-rule:evenodd;"/><path d="M244.77,191.96c4.78,4.34,2.53,4.17.69,5.8.16.47,2.41,5.88-1.4,4.32-3.98,8.32-10.04,6.09-17.07,2.43-4.19-2.18-.3-6.85,1.54-9.12.39-.45,1.07-.5,1.52-.11s.5,1.07.11,1.52c-6.16,7.62-1.58,4.76,5.34,9.1h-.01c1.05.43,5.17-1.84,6.02-2.84.44-1.58.87-3.59,2.54-3.27-1.42-2.28-1-3.02,1.18-4.3-.45-.68-1.35-1.41-1.87-1.88-.45-.39-.5-1.07-.11-1.52.39-.45,1.07-.5,1.52-.11h0Z" style="fill-rule:evenodd;"/><path d="M136.71,104.42c-.51-.47-1.85-1.44-3.14-2.51-1.09,1.12-3.51,2.09-8.12,2.31-.48.81-2.05,2.13-1.4,5.75.32,1.8.19,1.64.12,3.07,5.48.74,1.96-.94,5.59,2.23,1.03.9,1.47.72,2.25-.17.35-.48,1.03-.59,1.51-.23s.59,1.03.23,1.51c-2.82,3.22-5.04,1.25-7.11-1.42-.89.14-1.82.29-2.69.24-2.84-.18-3-7.58-1.12-10.7-4.31-2.49,7.12-3.01,9.21-3.93-.29-.28-.54-.55-.76-.81l-.15-.1.03-.05c-.74-.94-.88-1.7.34-1.93.95-.18,2.11.55,2.59,1.57,2.05,1.61,1.2.91,4.46,4.03.32.51.16,1.17-.35,1.49-.51.32-1.17.16-1.49-.35h0Z" style="fill-rule:evenodd;"/><path d="M165.06,86.4c-4.45-8.78,1.4-7-9.86-7.78.42,1.59-1.92,2.15-3.82,2.5-1.38,5.23.61,6.62,3.94,9.6.45.39.5,1.07.12,1.52s-1.07.5-1.52.12c-2.4-2.15-4.04-2.96-4.84-6.48-1.49-6.57,1.46-6.33,3.73-7.24-.59-.9-1.06-1.97.86-2.27,13.06-2.01,10.47,3.44,13.19,8.81.33.49.21,1.17-.29,1.5-.49.33-1.17.21-1.5-.29h0Z" style="fill-rule:evenodd;"/><path d="M190.03,58.08c-.03-2.42-4.46-4.35-4.98-6.33-2.2-.59-10.62.44-14.08,1.35,1.92,2.2,4.58,7.13,1.81,8.95-.27,1.36,4.31,6.13,6.51,5.09.52-.3,1.18-.12,1.48.39.3.52.12,1.18-.39,1.48-1.33.63-2.49.59-3.87-.04-10.93-4.93-1.25-7.05-7.41-14.78l.02-.07c-7.3-2.79,17.49-7.36,18.04-3.06,2.13,2.21,4.99,4.17,5.03,7.19-.05.59-.57,1.04-1.16.99-.59-.05-1.04-.57-.99-1.16h0ZM185.01,51.22c.01-.1.04-.2.08-.3-.05.1-.07.2-.08.3h0Z" style="fill-rule:evenodd;"/><path d="M205.46,35.86c-2.09-3.03-2.17-2.99-3.41-5.79-2.31-.04-5.74.16-8.18-.17.92,2.08.33,3.43-1.51,5.67.46,2.03-2.07,7.64,5.4,8.52.6.01,1.07.5,1.06,1.1-.01.6-.5,1.07-1.1,1.06-5.68-.67-9.99-6.57-6.94-12.15,2.96-5.4-3.25-6.91,4.15-6.37,11.67.85,6.12-2.03,12.24,6.82.36.47.27,1.15-.21,1.51-.47.36-1.15.27-1.51-.21h0Z" style="fill-rule:evenodd;"/><path d="M214.43,19.43c-5.75-4.98-5.85-4.31-4.85-11.42,1.46-10.42,7.69-5.17,10.52-7.25,2.51-1.84,3.77.01,4.98,2.17l-.14-.43c11.65,3.17,7.62,8.26,2.09,14.04-.39.45-1.07.5-1.52.11s-.5-1.07-.11-1.52c.52-.54.76-.91,1.48-1.14,4.56-3.86,4.84-7.09-1.09-9.03-4.64-1.51-2.24-2.02-3.86-2.78-.74.13-2.21,2.54-4.83,1.5-5.63-2.23-4.88,5.77-5.97,9.73.3.71,4.54,4.23,4.72,4.39.45.39.5,1.07.11,1.52-.39.45-1.07.5-1.52.11h0Z" style="fill-rule:evenodd;"/><path d="M168.76,139.07c5.27,4,13.56,9.34,18.05,13.37,6.91,6.2,8.34,8.24,16.33,14.35.42.43.41,1.11-.02,1.53-.43.42-1.11.41-1.53-.02-3.66-2.78-7.63-5.67-10.97-8.79-9.78-9.14-12.98-10.98-23.28-18.81-.45-.39-.5-1.07-.11-1.52.39-.45,1.07-.5,1.52-.11h0Z" style="fill-rule:evenodd;"/></g></svg>