<?xml version="1.0" encoding="UTF-8"?><svg id="Layer_2" xmlns="http://www.w3.org/2000/svg" viewBox="0 0 996.03 456.47"><g id="_Layer_"><path d="M588.53,174.11c-.09-.52-9.94-52.45-55.9-52.45s-55.81,51.93-55.9,52.45l-.39,2.19h112.59l-.39-2.19ZM530.77,125.44v47.14h-49.88c2.34-9.41,13.75-45.91,49.88-47.14ZM534.49,172.58v-47.14c36.61,1.21,47.65,37.62,49.91,47.14h-49.91Z" style="fill:#0c0c0c;"/><path d="M584.32,349.8v-127.86h-103.38v127.86h103.38ZM484.66,287.73h46.1v58.35h-46.1v-58.35ZM534.49,346.08v-58.35h46.11v58.35h-46.11ZM580.59,284.01h-46.11v-58.35h46.11v58.35ZM530.77,225.66v58.35h-46.1v-58.35h46.1Z" style="fill:#0c0c0c;"/><path d="M892.73,452.75c.44-12.2,2.88-79.49,4.18-128.41,2.53-.19,7.4-.63,11.82-1.54,11.7-2.41,21.82-10.06,27.08-20.46,5.26-10.41,5.42-23.42.42-33.95-.57-1.2-1.2-2.38-1.82-3.52-1.69-3.14-3.29-6.11-3.55-9.33-.29-3.59,1.12-7.08,2.6-10.78.72-1.78,1.46-3.62,2.01-5.5,3.96-13.47-2.83-28.89-15.24-35.28,5.43-13.91,9.45-29.38,1-40.87-1.37-1.87-3.01-3.49-4.58-5.06-2.04-2.02-3.96-3.94-5.25-6.25-3.67-6.56-1.59-14.33.61-22.56.66-2.46,1.34-5,1.84-7.47,2.94-14.57-.87-31.9-9.72-44.15-6.42-8.88-14.71-14.17-23.99-15.29h-.22c-19.37-.01-19.84,15.36-20.29,30.22-.38,12.61-.77,25.66-10.3,34.11-6.97,6.19-11.93,11.69-15.58,17.31-4.67,7.19-5.88,16.52-3.3,25.6,2.31,8.16,7.33,14.89,13.94,18.83-8.6,9.04-13.25,21.98-12.24,34.4,1,12.27,7.53,24.15,17.28,31.69-15.77,9.47-23.38,31.27-16.32,48.37,4.48,10.84,15.22,20.51,26.75,24.06,5.38,1.66,10.5,1.9,15.14.77-.04,6.46.43,40.39.36,49.65-.27,33.97-3.86,67.69-4.74,75.4h-127.35v-109.46h31.07v94.72h28.64v-162.87h-77.01l.25-5.3h104.77l-115.64-42.17v-25.55l-82.02-79.48,4.57-3.04,85.24,82.15,41.22,1.22-115.14-103.34.07-5.08,19.82,15.05v-57.51l13.23.2V17.29l-69.2-1.21v40.31l20.37.45.47,28.08L540.14,0l-225.64,205.62h38.03l160.7-150.43,6.6,4.84-155.61,144.69,100.29.88v6.76h-97.49v172.04h-18.97v-127.53l-18.1-17.39-15.9,18.79v126.04h-20.76v-124.74l-16.66-20.28-19.28,22.85v122.26h-20.12v-122.22l-17.98-23.01-19.25,24.95v120.28h-18.43l3.82-115.39-20.68-30.31-17.94,31.37-2.36,113.23-64.9,1.14v16.86H26.68c-9.61-.23-18.5-1-21.82-7.53-3.12-6.14.76-14.1,6-18.46,6.22-5.19,14.72-7.56,22.74-6.34l2.85.43-.78-2.77c-2.27-8.11,1.46-17.51,8.67-21.86,7.21-4.35,17.27-3.26,23.38,2.53l6.74,6.38-3.76-8.49c-3.48-7.85-1.12-18.23,5.45-24.91,9.49,11.24,23.62,15.54,34.84,10.46,5.5-2.49,7.25-5.87,7.75-8.26.75-3.58-.81-6.87-2.37-8.59-2.91-3.22-7.16-4.37-10.11-4.96-11.15-2.23-22.37.19-30.27,6.48-10.8-6.33-17.55-16.74-17.32-26.92.24-10.49,7.82-20.79,19.31-26.25,9.32-4.42,19.73-5.5,29.89-5.66,1.7.2,3.42.2,5.13-.03l-.24-3.71c-1.52-.01-3.05,0-4.59.01-7.62-1.01-14.89-7.09-17.35-15.14-2.69-8.8-.19-19.39,6.53-27.62,5.69-6.96,14.16-12.42,25.2-16.21,1.03-.35,2.07-.68,3.12-.95,1.4,3.65,3.2,6.63,5.32,8.31,2.73,2.17,5.91,2.13,8.68-.08,2.37-1.8,2.58-3.73,2.35-5.03-.67-3.72-5.73-6.17-8.32-6.95-1.83-.55-3.71-.65-5.55-.47-2.4-8.19-2.99-19.19.03-25.51,5.59-11.7,19.25-19.53,34.04-19.53h.18c16.05.07,29.94,8.35,38.77,15.28l3.62,2.84-.63-4.56c-2.15-15.62,4.33-32.19,16.51-42.21,8.84-7.27,20.48-10.93,31.92-10.42.31,5,1.85,11.71,7.45,15.06,3.94,2.36,9.01,1.1,11.98-1.37,2.72-2.26,3.69-5.38,2.59-8.34-1.41-3.8-5.31-5.52-8.13-6.49-3.31-1.14-6.74-1.9-10.22-2.3.6-19.13,12.49-37.41,29.78-45.64,17.51-8.35,39.53-5.9,54.79,6.07,15.26,11.98,22.86,32.78,18.92,51.78l3.65.76c4.22-20.35-3.92-42.63-20.26-55.46-16.34-12.83-39.93-15.44-58.69-6.5-18.47,8.8-31.19,28.29-31.89,48.72-12.27-.48-24.75,3.46-34.25,11.27-12.06,9.91-18.94,25.77-18.22,41.34-9.28-6.63-22.52-13.47-37.67-13.54-.07,0-.13,0-.2,0-16.19,0-31.21,8.68-37.4,21.64-3.23,6.76-2.94,18.56-.33,27.79-1.09.28-2.15.62-3.16.97-11.7,4.02-20.74,9.86-26.87,17.37-7.5,9.18-10.26,21.09-7.21,31.06,1.9,6.21,6.11,11.35,11.31,14.51-7.58.67-15.14,2.22-22.2,5.57-12.75,6.05-21.17,17.64-21.44,29.53-.25,11.21,6.8,22.57,18.17,29.63-6.03,6.34-8.8,15.2-7.45,23.24-7.11-3.84-16.3-3.9-23.26.3-7.83,4.72-12.21,14.43-10.89,23.42-8.24-.54-16.7,2.15-23.05,7.45-6.5,5.42-10.97,15.07-6.93,23.01,4.6,9.05,16.91,9.36,25.04,9.56h52.95v32.99h268.53v-36.69H83.25v-13.22l64.82-1.14,2.41-115.86,14.52-25.38,16.64,24.39-3.91,118.02h26v-122.74l15.54-20.15,14.24,18.22v124.66h27.56v-124.62l15.52-18.39,12.98,15.8v127.13h28.21v-128.4l12.45-14.72,14.1,13.54v129.67h23.16v40.23h283.77l-1.05-43.95h-279.22v-168.4h97.26v-14.09l-94.63-.83,152.06-141.39-12.73-9.33-161.88,151.54h-26.94L540.15,5.03l97.66,88.08-.67-39.91-20.31-.45V19.87l61.75,1.08v27.54l-9.28-.14v-16.17h-41.59l-.41,19.24,38.06.59v50.06l-19.75-15.01-.19,14.24,108.9,97.63-29.68-.88-86.36-83.23-10.9,7.26,84.2,81.6v22.62l-9.66-3.52v200.21l-14.93-.29,3.87-227.48h-21.8v242.76h36.58v-11.2l9.57.18v-195.36l94.65,34.49h-87.24l-.61,12.74h77.19v155.42h-21.19v-94.71h-38.51v116.91h134.38l.2-1.64c.05-.38,4.64-38.75,4.95-77.46.07-9.3-.06-18.55-.19-27.5-.12-8.19-.24-16.23-.16-23.44,1.18-.52,2.32-1.14,3.42-1.86,7.56-4.97,11.42-10.38,11.46-16.09.06-8.11-7.7-13.47-8.03-13.69l-.35-.24-.42-.06c-1.62-.24-3.15.21-4.4,1.3-3.84,3.37-5.09,12.67-5.35,28.02-5.16,1.54-10.29.72-14.09-.45-10.52-3.24-20.33-12.05-24.4-21.92-6.73-16.31,1.3-37.37,17.19-45.05l2.94-1.42-2.72-1.8c-10.17-6.75-17.1-18.5-18.09-30.67-.99-12.17,3.95-24.88,12.9-33.19l2.02-1.87-2.49-1.18c-6.78-3.2-11.98-9.66-14.26-17.71-2.28-8.05-1.25-16.27,2.84-22.56,3.47-5.34,8.21-10.6,14.93-16.56,10.73-9.52,11.16-24,11.55-36.78.51-16.96,1.53-26.58,16.45-26.63,10.33,1.29,17.29,8.19,21.31,13.76,8.27,11.45,11.84,27.63,9.09,41.23-.48,2.36-1.14,4.85-1.78,7.25-2.3,8.58-4.67,17.46-.27,25.34,1.55,2.77,3.75,4.96,5.88,7.07,1.54,1.53,3,2.99,4.21,4.62,7.7,10.47,3.26,25.55-2.1,38.91l-.67,1.68,1.66.72c11.57,5.02,18.34,19.48,14.78,31.58-.5,1.71-1.18,3.39-1.89,5.17-1.58,3.93-3.22,8-2.86,12.46.32,4,2.18,7.46,3.98,10.8.62,1.15,1.2,2.24,1.73,3.35,4.52,9.52,4.38,21.27-.38,30.67-4.68,9.25-14.07,16.34-24.51,18.49-5.88,1.21-12.9,1.58-12.98,1.58l-1.72.09-4.41,135.65h107.17v-3.72h-103.31ZM105.53,312.58c3.86.77,6.43,1.98,8.07,3.8,1.02,1.13,1.92,3.28,1.49,5.34-.47,2.25-2.37,4.14-5.64,5.63-9.72,4.4-22.08.48-30.5-9.52,7-5.24,16.79-7.21,26.58-5.25ZM132.64,192.75c2.72.82,5.5,2.79,5.73,4.05.07.4-.24.87-.97,1.43-1.47,1.17-2.69,1.2-4.07.1-1.45-1.15-2.78-3.28-3.89-5.97,1.1-.03,2.17.08,3.2.39ZM265.3,106.99c3.29,1.13,5.2,2.53,5.85,4.27.73,1.96-.62,3.46-1.48,4.18-1.91,1.59-5.26,2.49-7.69,1.04-4.02-2.41-5.28-7.48-5.61-11.55,3.03.38,6.03,1.07,8.93,2.06ZM344.34,405.03v29.24H83.25v-29.24h261.08ZM646.57,388.12l.88,37.15h-276.2v-37.15h275.32ZM631.11,47.75l.25-12.03h34.24v12.56l-34.5-.53ZM701.94,434.28h-29.14v-235.32h14.29l-3.87,227.41,18.72.36v7.55ZM711.52,423.19l-5.85-.11v-194.97l5.85,2.16v192.92ZM882.82,298.61c.32-.28.64-.42,1.01-.44,1.38,1.07,6.07,5.08,6.02,10.32-.04,4.38-3.33,8.74-9.78,12.99-.43.28-.87.55-1.3.79.28-12.1,1.28-21.22,4.06-23.65Z" style="fill:#0c0c0c;"/></g></svg>