<?xml version="1.0" encoding="UTF-8"?><svg id="Layer_2" xmlns="http://www.w3.org/2000/svg" viewBox="0 0 1283.68 354.16"><g id="_Layer_"><path d="M1203.67,220.66l80.01-12-.55-3.68-73.57,11.04c.65-3.43.1-7.47-1.62-11.35-2.31-5.22-6.22-9.09-10.47-10.35-6.28-1.86-14.07-.11-20.86,4.69.37-6.21-2.71-12.52-7.79-15.66-6.1-3.78-14.54-2.87-19.95,1.72-1.11-2.45-2.89-4.51-5.2-5.96-3.84-2.41-8.78-3-13.92-1.65-5.8,1.52-9.11,7.3-10.03,12.36-8.09-5.06-19.64-4.47-26.87,1.87-4.26,3.74-6.79,9.03-6.94,14.51-.09,3.48.71,8.43,4.7,13.43l-39.69,8.81-1.16-102.26h22.2l-91.6-76.31-146.49,11.39-78.09,65.23,152.11-8.39,66.9-52.96,61.3,59.96c-.01,9.92-.13,96.53-.02,110.76l-78.96,15-.2-9.22,28.35-4.54v-58.31l-64.75,10.04v-2.95l66.12-9.57-36.27-52.64.87-1.39-93.3,4.56-46.25,57.39-20.59-45.3-17.42,2.46,2.41-7.53-75.44,7.94-47.29-110.73-9.98,22.29-6.19-16.28-81.23,12.33,50.29,95.99,36.85-82.31,39.87,104.84h-2.3v119.61l-91.85,11.5v-145.68l18.64.79-78.75-128.43-86.02,117.01-29.81.72,105.73-117.01-157.75,23.64V2.62l-44.84,3.08v51.12l-80.37,12.05-81.46,84.54,252.38-6.06-5.05,202.58-208.67-25.27v-14.33l33.08,3.35-1.51-152.34h-35.3v144.87l-102.35-10.36-3.73-60.69c4.29-1.24,8.83-3.17,12.57-6.45,5.75-5.05,8.19-12.9,5.94-19.08-1.34-3.68-4.68-6.69-8.7-7.86-3.5-1.02-6.98-.46-9.57,1.53-4.99,3.84-5.26,10.8-4.87,17.11l.73,11.91c-.83.19-1.63.36-2.41.52-19.77,3.95-38.95.96-52.63-8.22-15.88-10.66-23.86-30.21-18.96-46.5,3.56-11.85,12.73-20.07,19.8-24.88,9.15-6.23,19.73-10.34,29.95-14.31l2.74-1.07-2.14-2.02c-8.44-7.98-16.08-15.98-16.91-26.04-.84-10.25,6.08-19.27,12.83-24.29,8.01-5.96,17.82-9.01,27.29-11.96l3.49-1.08-2.92-2.18c-7.38-5.51-15.75-11.76-20.77-20.07-4.44-7.35-6.44-18.27-.91-26.1,4.96-7.01,15.77-9.6,24.09-5.78l4.77,2.19-2.32-4.7c-1.35-2.73-.23-5.39.55-6.73,1.77-3.02,5.12-5.17,8.33-5.34,5.55-.29,11.56,3.3,16.07,9.62,9.71,13.6,9.35,33.85-.83,47.1l-1.46,1.9,2.21.94c13.58,5.79,23.25,20.15,23.53,34.9.28,14.76-8.85,29.46-22.21,35.76l-8.28,3.9,9.15-.36c3.35-.11,5.75,1.74,7.18,3.33,2.84,3.16,4.27,7.9,3.65,12.07-1.17,7.89-7.2,14.58-12.04,19.96l-2.62,2.91,3.91.19c10.43.51,19.81,9,21.36,19.33,1.55,10.33-4.93,21.2-14.75,24.75l1.27,3.5c11.43-4.13,18.97-16.78,17.16-28.8-1.62-10.8-10.6-19.87-21.21-22.03,4.61-5.27,9.46-11.6,10.6-19.27.77-5.23-1.02-11.16-4.56-15.11-1.4-1.56-3.01-2.74-4.73-3.51,12.14-7.82,20.11-22.24,19.84-36.7-.29-15.4-9.92-30.41-23.69-37.29,9.8-14.48,9.73-35.4-.44-49.66C106.87,3.84,99.65-.32,92.83.02c-4.48.24-8.94,3.05-11.35,7.17-1.23,2.1-1.79,4.34-1.67,6.49-9.33-2.59-19.87.68-25.24,8.27-6.51,9.2-4.31,21.78.76,30.17,4.72,7.82,11.96,13.76,18.82,18.95-8.4,2.66-17.46,5.88-24.94,11.44-9.64,7.17-15.13,17.74-14.32,27.59.85,10.47,7.83,18.57,15.94,26.42-9.56,3.73-19.29,7.74-27.97,13.64-7.57,5.15-17.4,14-21.27,26.89-5.35,17.81,3.25,39.12,20.45,50.67,14.71,9.87,34.4,12.99,55.43,8.78.62-.12,1.26-.26,1.91-.4l3.89,63.14,105.87,10.71v18.01l216.01,26.16,5.15-206.86,34.31-.82,83.82-114.02,72.2,117.75-15.53-.66v150.03l-172.69,21.64v32.99l176.42-24.77v-26.58l95.57-11.97v-119.16l4.63,12.42v34.82l60.34-1.45,23.07-72.14,16.44-2.32,28.71,63.15-63.89,9.24v6.75l-4.65.72-60.1,1.7v56.02h68.47v-55.25l61.03-9.46v35.29l-49.04,9.87v19.99l52.77-11.26v-15.55l19.56-3.94-.03-.17,78.83-2.31v-55.2l61.03-9.46v50.79l-24.71,3.96-.77-35.59-24.06,3.1v40.25l21.21-3.4.28,13.1,86.35-16.41v-115.4l-64.78-63.35-68.54,54.26-139.73,7.7,68.57-57.28,143.8-11.18,82.54,68.76h-15.69l1.26,110.61,50.65-11.24-2.46-2.4c-3.93-3.84-5.94-8.38-5.81-13.13.12-4.45,2.19-8.76,5.67-11.82,6.78-5.94,18.12-5.82,24.77.26l3.43,3.14-.32-4.64c-.29-4.19,2.43-10.85,7.5-12.19,4.12-1.08,8.03-.66,10.99,1.2,2.41,1.51,3.97,3.83,4.54,6.71l.8,4.09,2.51-3.32c3.83-5.06,11.92-6.57,17.32-3.22,4.22,2.61,6.66,8.07,5.94,13.26-.17,1.26.31,2.37,1.3,2.97,1.23.74,2.97.51,4.54-.61,5.81-4.15,12.61-5.77,17.77-4.24,3.17.94,6.28,4.12,8.12,8.29,1.83,4.15,2.08,8.38.67,11.32l-1.53,3.17ZM605.98,136.89l-44.31-84.57,73.1-11.1,6.45,16.95-35.24,78.71ZM192.85,165.05h27.89l1.43,144.49-29.32-2.97v-141.53ZM82.12,220.18c-.34-5.6-.17-11.16,3.43-13.93,1.26-.97,2.64-1.26,3.86-1.26.95,0,1.79.18,2.4.35,2.86.83,5.31,3.01,6.24,5.56,2.03,5.57-1.11,11.68-4.9,15.01-3.01,2.65-6.72,4.31-10.35,5.43l-.69-11.16ZM319.74,9.17l37.39-2.57v44.05l-37.39,5.6V9.17ZM319.74,60.03l32.45-4.86-32.45,25.07v-20.2ZM407.74,143.59l-244.6,5.88,74.3-77.1,78.57-11.78v27.23l43.73-33.78,149.12-22.35-101.12,111.91ZM585.09,326.15l-168.97,23.72v-25.42l168.97-21.18v22.88ZM645.25,58.29l8.03-17.93,45.02,105.41v10.01l4.03-.57,5.43,12.72h-20.81l-41.7-109.65ZM746.62,213.81l-53.87,1.3v-31.68l-4.39-11.77h25.04l-7.25-16.98,62.18-8.77-21.71,67.91ZM769.59,141.96l-64.95,9.17-2.46-5.75,68.63-7.22-1.22,3.81ZM753.68,276.87h-61.03v-48.68l56.6-1.6,4.42-.67v50.95ZM818.43,266.75l-45.32,9.68v-12.34l45.32-9.12v11.78ZM859.79,130.48l84.51-4.13-34.24,54.71-56.15,1.35h-35.97l41.85-51.93ZM916.79,244.18l-80.31,2.36v-49.78l75.91-2.91,4.4-.67v51ZM916.79,182.66v6.75l-4.66.72-79.38,3.05v55.11l-10.61,2.13v-38.89l-64.75,10.04v-2.95l65.61-9.49-10.45-23h41.39l58.2-1.4,36.07-57.62,31.95,46.38-63.38,9.17ZM935.72,241.28v-32.6l16.71-2.15.69,31.96-17.4,2.79Z" style="fill:#0c0c0c;"/><path d="M882.76,93.95v-29.77l-22.17,6.69v43.14l22.17-20.07ZM864.32,73.64l14.72-4.44v23.1l-14.72,13.33v-31.99Z" style="fill:#0c0c0c;"/><path d="M469.95,186.96v85.83l73.12-9.91v-80.59l-73.12,4.67ZM539.35,259.63l-65.68,8.9v-78.07l65.68-4.2v73.37Z" style="fill:#0c0c0c;"/><path d="M270,186.85v80.57l73.12,5.24v-85.81h-73.12ZM339.4,268.66l-65.68-4.71v-73.38h65.68v78.09Z" style="fill:#0c0c0c;"/><path d="M662.46,177.34l-52.98,4.81.87,55.31,52.11-6.53v-53.59ZM658.74,227.65l-44.73,5.6-.75-47.7,45.48-4.13v46.23Z" style="fill:#0c0c0c;"/></g></svg>