<?xml version="1.0" encoding="UTF-8"?><svg id="Layer_2" xmlns="http://www.w3.org/2000/svg" viewBox="0 0 1203.69 407.22"><g id="_Layer_"><path d="M1081.39,372.42h48.16l74.15-44.63h-78c-.27-11.12-1.67-70.23-1.51-74.53.14-3.73,1.67-8.54,5.52-10.84,2.53-1.51,5.66-1.76,8.97-2.02.98-.08,1.96-.16,2.92-.26,15.81-1.8,29.87-13.75,34.19-29.07,2.51-8.92,1.61-18.6-2.06-27.06,14.51-11.39,21.03-32.49,15.19-50.02-6.06-18.21-25.05-31.49-44.28-30.93-5.18.16-12.66,1.34-18.83,6.11-.07.05-.13.1-.19.15-3.02-3.23-6.8-5.75-11.07-7.12-10.83-3.49-23.42.73-29.95,10.05-5.13,7.33-6.03,17.11-2.78,25.32-2.02-.6-4.22-.82-6.54-.62-5.87.5-11.48,3.67-14.63,8.26-5.33,7.78-5.29,19.17.09,29.02,3.91,7.17,9.98,12.89,16.37,17.93-8.59,1.69-13.73,8.56-14.32,19.48-.55,10.15,6.36,16.34,13.18,21.06,6.38,4.41,16.77,9.46,27.85,10.9v84.69l-24.73,1.05-41.31,8.96v-116.47l7.48.35V61.22l28.37,4.17-34.88-25.7L906.72,0l-205.23,56.59-99.46,45.18,47.54-3.35-.5,22.66,12.56-1.93.79-25.37-9.04.64.1-4.62,243.38-54.6v63.73l-25.96-5.43-1.38,43.43-3.1.31.63-43.52-272.98,40.57-.2,7.27-10.27,1.13-.31,20.08-45.59,3.99v-20.54l83.02-26.45-.81-3.62-188.71,24.86-105.07,48.02,207.85-18.2v162.83h-124.39v-5.23l42.35-.48v-105.79l-46.56,1.64v100.94l-14.34.16-2.04-131.3-36.34,1.13v142.63h53.31v12.42h-137.68l71.2-20.15v-131.02l-29.5,2.15v-13.31l46.84-19.61-41.89-2.42-110.16,9-66.57,55.78,45.22-1.53v101.44h26.69v10.79h-55.56c4.04-4.42,5.65-11.03,3.58-16.79-2.37-6.59-9.2-11.01-16.05-10.83,1.67-6.89-1.2-14.76-7.19-18.69-5.87-3.84-14-3.41-19.63.63-.71-2.09-2.09-4.05-4.06-5.72-4.37-3.71-11.14-5.55-16.47-4.46-8.94,1.82-12.87,9.34-15.01,15.56-8.13-2.17-15.78-.52-21.71,4.71-5.31,4.69-6.52,13.33-4.9,20.15-6.89-1.14-14.36,2.06-18.13,7.99-13.5-3.99-29.23,3.1-34.98,16.05l3.4,1.51c5.1-11.51,19.97-17.85,31.8-13.57l1.55.56.74-1.48c3.09-6.15,11.38-9.25,17.75-6.62l4.26,1.76-1.84-4.23c-2.52-5.76-1.99-15.12,2.8-19.35,6.84-6.03,14.58-5.2,19.87-3.43l1.81.6.56-1.82c2.76-8.97,6.7-13.53,12.76-14.77,4.28-.87,9.76.63,13.32,3.65,1.57,1.34,3.42,3.55,3.31,6.49l-.21,5.27,3.47-3.97c4.17-4.78,12.18-5.89,17.49-2.41,5.31,3.47,7.51,11.26,4.81,16.99l-1.65,3.49,3.76-.89c5.98-1.42,12.78,2.28,14.86,8.06,2.08,5.78-.83,12.96-6.39,15.7l-7.81,3.56h73.42v-14.51h95.91v-125.61l26.01-1.88v124.25l-93.61,27.34h167.62v-16.84h124.2v20.58l336.82,14.45,128.88-24.81,2.03-127.45,32.35,1.52v121.27l45.36-9.86,28.13-1.19v-91.61l-1.5-.16c-10.98-1.05-21.64-6.09-27.96-10.45-6.28-4.34-12.03-9.5-11.58-17.8.41-7.62,3.44-16.66,15.53-16.37l5.83.13-4.68-3.49c-8.54-6.37-15.07-12.15-19.19-19.68-4.72-8.63-4.83-18.5-.28-25.14,2.53-3.7,7.08-6.25,11.87-6.66,3.98-.34,7.51.84,9.92,3.32l2.8-2.44c-5.91-7.6-6.19-19.28-.67-27.16,5.52-7.88,16.59-11.6,25.76-8.64,3.61,1.17,6.86,3.35,9.45,6.15-3.97,4.34-6.03,9.95-5.51,15.36.36,3.67,2.9,7.4,6.06,8.87,2.16,1.01,4.38.86,6.23-.42,2.12-1.46,3.27-4.18,3.32-7.85.08-5.63-1.79-11.12-5-15.65.04-.03.08-.06.12-.09,5.38-4.16,12.04-5.2,16.67-5.34,17.6-.55,35.07,11.67,40.63,28.38,5.27,15.84-.45,34.86-13.34,45.42-2.56-4.68-6.02-8.86-10.24-12.15-5.68-4.43-11.66-5.86-16.41-3.93-2.8,1.14-5.01,3.46-6.25,6.53-1.37,3.4-1.33,7.34.1,10.53,2.49,5.56,8.77,9.43,15.62,9.61,5.09.13,10.5-1.58,15.77-4.96,3.08,7.51,3.78,16,1.57,23.85-3.92,13.9-16.67,24.75-31.02,26.38-.92.1-1.86.18-2.8.25-3.59.28-7.3.57-10.58,2.53-4.29,2.56-7.1,7.88-7.33,13.89-.19,4.84,1.59,78.32,1.59,78.32h68.33l-61.87,37.26h-47.48l-185.16,34.83.34,3.69h283.47v-3.72h-263.51l165.2-31.08ZM356.38,333.67v-135.3l28.95-.91,2.04,131.22,18.49-.21v5.19h-49.48ZM187.14,326.42v-97.84l22.5-.75v98.59h-22.5ZM306.04,326.42h-92.7v-102.44l-26.2.87v-11.37l118.9-8.68v121.62ZM306.27,185.01v16.06l-122.85,8.96v14.95l-34.54,1.17,57.38-48.08,108.72-8.88,25.56,1.48-34.27,14.35ZM409.11,227.41l39.1-1.38v98.25l-39.1.43v-97.3ZM658.57,97.79l-.57,18.16-5.12.79.41-18.57,5.27-.37ZM597.51,144.92l20.78-2.28v17.07l-21.23,1.86.45-16.65ZM587.27,146.05l6.5-.71-.45,16.57-6.31.55.26-16.41ZM586.96,166.2l6.27-.55-.61,22.7,55.75-6.62,1.29,80.1,13.39-.7v-81.05l196.28-23.39v100.62l-31.72,2.72v82.82h-5.39l1.36-83.71-238.17,7.18,1.55-100.12ZM584.3,337.39l1.05-67.35,234.45-7.07-1.36,83.6h12.89v-83.13l31.72-2.72v-108.23l-203.73,24.28v80.82l-6.01.32-1.29-80.36-55.57,6.59.51-18.82,25.05-2.19v-24.64l-24.4,2.68.1-3.64,265.56-39.46-.62,43.31,10.5-1.05,1.34-42.26,26.11,5.46V30.56l-250.76,56.25-.17,7.88-27.26,1.92,80.23-36.47L906.67,3.87l130.39,39.2,22.35,16.47-17.87-2.63v161.39l-3.76-.18V61.01l-126.14-31.54v133.12l-43.53-.68v193.78l-292.81-12.09v-6.22h8.99ZM575.3,333.67v-63.32l6.32-.19-.99,63.51h-5.33ZM583.23,166.53l-1.55,99.91-10.09.3v66.94h-33.89v-163.16l45.54-3.99ZM533.97,167.1l-186.66,16.35,84.91-38.81,167.42-22.06-65.68,20.93v23.59ZM1034.06,217.95l-36.01-1.69-2.05,128.27-125.48,24.16-332.82-14.28v-17.02h33.89v9.79l300.25,12.4v-193.88l43.53.68V34.25l118.7,29.67v154.03ZM1129.24,127.82c-.02,1.68-.34,3.89-1.71,4.83-.76.52-1.59.56-2.55.11-1.97-.92-3.7-3.49-3.92-5.86-.4-4.11,1.19-8.53,4.16-12.03,2.58,3.83,4.09,8.37,4.03,12.95ZM1154.96,187.46c-5.45-.15-10.4-3.13-12.32-7.41-1.02-2.29-1.04-5.13-.04-7.62.86-2.13,2.35-3.72,4.2-4.47,1.01-.41,2.04-.58,3.07-.58,4.02,0,7.92,2.64,9.65,3.99,3.96,3.09,7.18,7.03,9.52,11.44-3.51,2.32-8.59,4.8-14.07,4.64Z" style="fill:#0c0c0c;"/></g></svg>