<?xml version="1.0" encoding="UTF-8"?><svg id="Layer_2" xmlns="http://www.w3.org/2000/svg" viewBox="0 0 1138.87 313.46"><g id="_Layer_"><path d="M909.27,96.75l-11.02,2.68s55.13,4.79,55.46,4.82c-1.08,7.47-.73,15.13,1.03,22.43l3.62-.88c-1.68-6.96-1.99-14.28-.91-21.39,2.95,0,5.8-.43,8.23-1.9,2.41-1.46,3.81-4.36,3.39-7.05-.35-2.27-1.91-3.95-4.18-4.5-1.82-.44-3.64-.14-5.28.87-2.79,1.73-4.41,5.05-5,7.59-.09.38-.17.76-.25,1.14-.43-.03-35.47-3.08-35.47-3.08,10.86-4.57,19.78-12.29,24.7-21.65l1.68-3.2-3.58.49c-9.56,1.31-19.5,1.31-29.07.02,15.65-8.97,28.49-21,37.35-35.03l3.53-5.59-5.93,2.93c-6.35,3.14-13.84,4.78-21.21,4.68,13.02-8.02,23.22-18.94,29.31-31.43,6.58,11.79,16.21,22.22,28.18,30.53-6.38.48-12.88.1-19.05-1.13l-4.13-.82,2.18,3.61c7.35,12.19,17.66,23.2,30.04,32.13-7.52-.33-14.93-1.47-22.11-3.39l-4.04-1.08,1.9,3.72c4.89,9.6,18.92,19.65,31.57,25.57-15.24,6.17-32.45,5.43-32.64,5.42l-.18,3.72c.86.04,21.33.94,38.23-7.5l3.67-1.83-3.8-1.55c-10.97-4.48-24.57-13.18-31.14-21.76,8.04,1.77,16.31,2.61,24.71,2.5l6.16-.08-5.18-3.34c-12.96-8.37-23.89-19.01-31.82-30.96,6.98.96,14.24.93,21.22-.11l5-.75-4.3-2.67c-14.59-9.08-25.99-21.28-32.95-35.28l-1.82-3.65-1.57,3.76c-6.19,14.85-18.46,27.68-34.54,36.13l-5.11,2.68,5.71.81c7.79,1.1,16.07.3,23.49-2.19-9.25,12.68-22.03,23.41-37.29,31.27l-4.82,2.48,5.32,1c10.31,1.95,21.24,2.39,31.82,1.32-6.15,9.31-16.79,16.48-29.15,19.48ZM958.25,100.26c.43-1.86,1.62-4.21,3.33-5.26.55-.34,1.11-.51,1.69-.51.25,0,.5.03.76.09.8.19,1.25.67,1.37,1.45.16,1.04-.35,2.51-1.64,3.3-1.56.95-3.49,1.3-5.6,1.36l.1-.43Z" style="fill:#0c0c0c;"/><path d="M1052.16,267.21c22.2,3.07,64.03,1.73,82.97-7.58l3.74-1.84-3.86-1.56c-21.06-8.52-36.87-22.3-53.04-37.18,16.45.64,24.57-6.1,33.82-13.8l3.33-2.77-3.39-.97c-22.95-6.55-35.56-18.93-48.85-34.51,10.44-2.2,25.15-8.18,31.97-14.18l1.83-1.61-2.04-1.34c-25.18-16.5-47.38-40.37-60.92-65.49l-1.71-3.16-1.6,3.22c-18.5,37.22-30.76,49.15-58.59,71.43l-2.17,1.74,2.44,1.34c9.63,5.31,23.37,7.24,34.9,8.23-7.5,17.52-22.67,35.21-41.04,47.73l-3.68,2.51,4.37.86c11.73,2.3,24.03,2.46,35.85.49-12.65,16.17-32.23,30.7-51.68,44.05l-2.86,1.96,3.21,1.3c20.79,8.41,56.1,6.63,77.52-.3,1.01,10.93-1.42,29.87-2.19,35.44h-132.25v-69.3h36.72l-39.94-35.15-18.59-1.98-1.74-48.06h46.77L786.58,3.73l-205.4,101.19,68.69-3.31,135.83-64.01,80.18,87.65-209.79-24.72,4.04,148.91-9.31-1.05-1.46-129.96-154.72,17.68v-22.51l61.77-7.01L767.55,2.68h-28.68l-173.33,30.2-132.9,114.06,57.67-6.64v126.85l-40.3,3.08v-109.53l-44.42-2.26,84.06-79.73-296.84-11.2-88.85,87.58v16.9l95.89-89.14,109.74,85.79,2.33,93.38-19.68.18-1.88-92.08-90.66-75.45-81.99,80.8-1.31,97.12,174.03,11.54h25.77l-.46-18.42,53.01-.5v44.55h-77.72l-232.38-30.68c-.23-5.09-.9-21.47-.7-35.12h3.4c10.89-.19,21.74-1.6,32.26-4.24l4.4-1.1-3.91-2.31c-10.72-6.32-20.32-14.82-27.93-24.69l23.52-3.37-3.1-2.67c-9.22-7.95-17.17-17.17-23.65-27.44,6.94.65,14.05-.96,20.02-4.59l2.33-1.42-2.17-1.65c-10-7.59-23.75-19.9-32.5-35.43l-1.62-2.88-1.62,2.88c-8.75,15.53-22.5,27.84-32.5,35.43l-2.18,1.65,2.33,1.42c5.97,3.64,13.08,5.24,20.02,4.59-6.49,10.28-14.43,19.49-23.65,27.44l-3.1,2.67,23.52,3.37c-7.61,9.87-17.21,18.37-27.93,24.69l-3.91,2.31,4.4,1.1c10.74,2.69,22.27,4.09,35.24,4.27.12,0,.34,0,.66.39,3.45,4.15,1.42,25.27-.68,37.61l3.67.62c.58-3.44,5.54-33.8-.13-40.62-.93-1.11-2.13-1.71-3.47-1.73-10.93-.15-20.8-1.19-30.02-3.15,10.47-6.84,19.76-15.69,27.05-25.8l1.8-2.49-21.64-3.1c9.24-8.49,17.13-18.26,23.49-29.1l2.17-3.71-4.19.95c-6.34,1.44-13.09.64-18.93-2.17,9.39-7.4,21.22-18.41,29.6-32.06,8.37,13.65,20.21,24.66,29.6,32.06-5.84,2.81-12.59,3.61-18.93,2.17l-4.19-.95,2.17,3.71c6.36,10.84,14.25,20.62,23.49,29.1l-21.64,3.1,1.8,2.49c7.29,10.12,16.59,18.97,27.06,25.81-8.87,1.92-17.95,2.94-27.02,3.1h-7.04l-.04,1.81c-.35,16.7.74,38.59.75,38.81l.08,1.58,235.57,31.05h81.82v-48.29l42.26-.4-.75-79.56-45.23-.78v77.05l-53.1.5-2.38-95.19-113.62-88.83-91.96,85.48v-6.8l86.59-85.36,286.39,10.81-83.94,79.62,49.58,2.52v110.01l43.37-3.37v34.25l74.24-6.78v-115.91l-51.89,5.14-1.54,77.96-16.45,1.32v-126.99l151.63-17.26,1.42,125.95-76.86,10.67v36.52l81.06-4.5-.44-39.1,9.37,1.06.97,35.84,174.82,16.09-.8-35.93-171.37-19.34-3.94-145.13,215.45,25.39-88.78-97.05-137.64,64.86-50.15,2.42L785.72,8.24l127.12,134.77h-42l1.86,51.38-26.04-2.78-1.55,113.33h35.32l-3.85-106.4,16.89,1.8,31.65,27.85h-30.58v76.74h139.19l.24-1.58c.17-1.13,4.13-27.73,2.15-40.37l-.35-2.22-2.12.75c-19.42,6.93-52.68,9.25-73.75,2.32,20.26-14.04,40.3-29.4,52.47-46.73l2.74-3.9-4.66,1.01c-11.31,2.46-23.22,2.85-34.7,1.15,18.09-13.3,32.76-31.42,39.67-49.17l.91-2.34-2.5-.19c-10.65-.83-23.8-2.34-33.4-6.72,25.93-20.89,38.28-33.26,55.75-67.7,13.54,23.79,34.53,46.24,58.3,62.31-7.76,5.63-22.49,11.08-31.35,12.34l-3.33.47,2.16,2.57c13.37,15.88,26.41,29.69,49.42,37.14-9.36,7.71-17.03,12.99-34.42,10.82l-5.75-.72,4.26,3.93c16.82,15.54,32.77,30.28,54.13,39.85-20.35,7.71-59.06,8.41-78.83,5.27l-1.99-.32-3.26,42.13h93.23v-3.54h-89.21l2.64-34.31ZM372.48,188.22l37.82.65.68,72.21-38.5.36v-73.23ZM312.4,280.4h-21.83l-170.38-11.3,1.24-92.06,78.5-77.36,86.76,72.21,1.92,94.07,23.42-.22.37,14.66ZM514.15,268.98l1.55-78.04,44.52-4.4v108.4l-66.79,6.1v-30.46l20.72-1.61ZM490.92,110.28v26.26l-46.65,5.31,122.92-105.49,172.01-29.97h12.36l-196.22,96.57-64.42,7.31ZM573.96,291.81v-29.34l73.18-10.16.4,35.42-73.58,4.09ZM831.58,272.54l.63,28.51-167.38-15.41-.87-32.01,167.61,18.91ZM848.89,301.22l1.44-105.47,22.51,2.4,3.73,103.07h-27.68Z" style="fill:#0c0c0c;"/></g></svg>