<?xml version="1.0" encoding="UTF-8"?><svg id="Layer_2" xmlns="http://www.w3.org/2000/svg" viewBox="0 0 671.34 626.88"><g id="Layer_1-2"><path d="M1.29,263.17c1.06-.77,11.73-9.03,12.71-9.06l639.1,1.61c.78.08,16.41,6.94,17.33,7.33.55.23.8.87.57,1.42s-.87.8-1.42.57l-16.7-7.16-638.53-1.61-11.79,8.64c-.48.35-1.16.25-1.51-.23-.35-.48-.25-1.16.23-1.51h0Z" style="fill-rule:evenodd;"/><path d="M2.73,262.96h666.47c.6,0,1.08.48,1.08,1.08s-.48,1.08-1.08,1.08H2.73c-.6,0-1.08-.48-1.08-1.08s.48-1.08,1.08-1.08h0Z" style="fill-rule:evenodd;"/><path d="M1.83,263.24l9.97,9.6h647.01l10.74-9.63c.44-.4,1.13-.36,1.52.08.4.44.36,1.13-.08,1.52l-11.05,9.9c-.66.54-647.5.33-648.58.28-1.55-.07-5.86-5.23-5.89-5.25l-5.14-4.95c-.43-.41-.44-1.1-.03-1.53.41-.43,1.1-.44,1.53-.03h0Z" style="fill-rule:evenodd;"/><path d="M14.85,274.46s1.48,288.87,1.48,288.87c0,.6-.48,1.08-1.07,1.09-.6,0-1.08-.48-1.09-1.07,0,0-1.48-288.87-1.48-288.87,0-.6.48-1.08,1.07-1.09.6,0,1.08.48,1.09,1.07h0Z" style="fill-rule:evenodd;"/><path d="M38.51,274.46s1.48,288.87,1.48,288.87c0,.6-.48,1.08-1.07,1.09-.6,0-1.08-.48-1.09-1.07,0,0-1.48-288.87-1.48-288.87,0-.6.48-1.08,1.07-1.09.6,0,1.08.48,1.09,1.07h0Z" style="fill-rule:evenodd;"/><path d="M630.55,274.46s1.48,288.87,1.48,288.87c0,.6-.48,1.08-1.07,1.09-.6,0-1.08-.48-1.08-1.07,0,0-1.48-288.87-1.48-288.87,0-.6.48-1.08,1.07-1.09.6,0,1.08.48,1.08,1.07h0Z" style="fill-rule:evenodd;"/><path d="M655.2,274.46s1.48,288.87,1.48,288.87c0,.6-.48,1.08-1.07,1.09-.6,0-1.08-.48-1.09-1.07,0,0-1.48-288.87-1.48-288.87,0-.6.48-1.08,1.07-1.09.6,0,1.08.48,1.09,1.07h0Z" style="fill-rule:evenodd;"/><path d="M38.58,279.72h591.36c.6,0,1.08.48,1.08,1.08s-.48,1.08-1.08,1.08H38.58c-.6,0-1.08-.48-1.08-1.08s.48-1.08,1.08-1.08h0Z" style="fill-rule:evenodd;"/><path d="M38.58,338.38h591.36c.6,0,1.08.48,1.08,1.08s-.48,1.08-1.08,1.08H38.58c-.6,0-1.08-.48-1.08-1.08s.48-1.08,1.08-1.08h0Z" style="fill-rule:evenodd;"/><path d="M37.8,347.75h191.87c.6,0,1.08.48,1.08,1.08s-.48,1.08-1.08,1.08H37.8c-.6,0-1.08-.48-1.08-1.08s.48-1.08,1.08-1.08h0Z" style="fill-rule:evenodd;"/><path d="M237.42,347.75h187.85c.6,0,1.08.48,1.08,1.08s-.48,1.08-1.08,1.08h-187.85c-.6,0-1.08-.48-1.08-1.08s.48-1.08,1.08-1.08h0Z" style="fill-rule:evenodd;"/><path d="M433.18,347.75h195.6c.6,0,1.08.48,1.08,1.08s-.48,1.08-1.08,1.08h-195.6c-.6,0-1.08-.48-1.08-1.08s.48-1.08,1.08-1.08h0Z" style="fill-rule:evenodd;"/><path d="M230.27,281.36v58.17c0,.6-.48,1.08-1.08,1.08s-1.08-.48-1.08-1.08v-58.17c0-.6.48-1.08,1.08-1.08s1.08.48,1.08,1.08h0Z" style="fill-rule:evenodd;"/><path d="M239.15,281.36v58.17c0,.6-.48,1.08-1.08,1.08s-1.08-.48-1.08-1.08v-58.17c0-.6.48-1.08,1.08-1.08s1.08.48,1.08,1.08h0Z" style="fill-rule:evenodd;"/><path d="M425.98,281.36v58.17c0,.6-.48,1.08-1.08,1.08s-1.08-.48-1.08-1.08v-58.17c0-.6.48-1.08,1.08-1.08s1.08.48,1.08,1.08h0Z" style="fill-rule:evenodd;"/><path d="M433.86,281.36v58.17c0,.6-.48,1.08-1.08,1.08s-1.08-.48-1.08-1.08v-58.17c0-.6.48-1.08,1.08-1.08s1.08.48,1.08,1.08h0Z" style="fill-rule:evenodd;"/><path d="M135.78,304.04c2.86,0,5.18,2.32,5.18,5.18s-2.32,5.18-5.18,5.18-5.18-2.32-5.18-5.18,2.32-5.18,5.18-5.18h0Z" style="fill:#1a1a1a; fill-rule:evenodd; stroke:#000; stroke-miterlimit:22.93; stroke-width:.57px;"/><path d="M333.95,304.04c2.86,0,5.18,2.32,5.18,5.18s-2.32,5.18-5.18,5.18-5.18-2.32-5.18-5.18,2.32-5.18,5.18-5.18h0Z" style="fill:#1a1a1a; fill-rule:evenodd; stroke:#000; stroke-miterlimit:22.93; stroke-width:.57px;"/><path d="M532.12,304.04c2.86,0,5.18,2.32,5.18,5.18s-2.32,5.18-5.18,5.18-5.18-2.32-5.18-5.18,2.32-5.18,5.18-5.18h0Z" style="fill:#1a1a1a; fill-rule:evenodd; stroke:#000; stroke-miterlimit:22.93; stroke-width:.57px;"/><path d="M445.35,443.55c2.86,0,5.18,2.32,5.18,5.18s-2.32,5.18-5.18,5.18-5.18-2.32-5.18-5.18,2.32-5.18,5.18-5.18h0Z" style="fill:#1a1a1a; fill-rule:evenodd; stroke:#000; stroke-miterlimit:22.93; stroke-width:.57px;"/><path d="M249.65,443.55c2.86,0,5.18,2.32,5.18,5.18s-2.32,5.18-5.18,5.18-5.18-2.32-5.18-5.18,2.32-5.18,5.18-5.18h0Z" style="fill:#1a1a1a; fill-rule:evenodd; stroke:#000; stroke-miterlimit:22.93; stroke-width:.57px;"/><path d="M218.59,443.55c2.86,0,5.18,2.32,5.18,5.18s-2.32,5.18-5.18,5.18-5.18-2.32-5.18-5.18,2.32-5.18,5.18-5.18h0Z" style="fill:#1a1a1a; fill-rule:evenodd; stroke:#000; stroke-miterlimit:22.93; stroke-width:.57px;"/><path d="M39.4,368.62h0c1.36,0,2.46,1.11,2.46,2.46v31.55c0,1.36-1.11,2.46-2.46,2.46h0c-1.36,0-2.46-1.11-2.46-2.46v-31.55c0-1.36,1.11-2.46,2.46-2.46h0Z" style="fill:#1a1a1a; fill-rule:evenodd;"/><path d="M39.4,494.82h0c1.36,0,2.46,1.11,2.46,2.46v31.55c0,1.36-1.11,2.46-2.46,2.46h0c-1.36,0-2.46-1.11-2.46-2.46v-31.55c0-1.36,1.11-2.46,2.46-2.46h0Z" style="fill:#1a1a1a; fill-rule:evenodd;"/><path d="M422.92,368.62h0c1.36,0,2.46,1.11,2.46,2.46v31.55c0,1.36-1.11,2.46-2.46,2.46h0c-1.36,0-2.46-1.11-2.46-2.46v-31.55c0-1.36,1.11-2.46,2.46-2.46h0Z" style="fill:#1a1a1a; fill-rule:evenodd;"/><path d="M422.92,494.82h0c1.36,0,2.46,1.11,2.46,2.46v31.55c0,1.36-1.11,2.46-2.46,2.46h0c-1.36,0-2.46-1.11-2.46-2.46v-31.55c0-1.36,1.11-2.46,2.46-2.46h0Z" style="fill:#1a1a1a; fill-rule:evenodd;"/><path d="M627.5,368.62h0c1.36,0,2.46,1.11,2.46,2.46v31.55c0,1.36-1.11,2.46-2.46,2.46h0c-1.36,0-2.46-1.11-2.46-2.46v-31.55c0-1.36,1.11-2.46,2.46-2.46h0Z" style="fill:#1a1a1a; fill-rule:evenodd;"/><path d="M627.5,494.82h0c1.36,0,2.46,1.11,2.46,2.46v31.55c0,1.36-1.11,2.46-2.46,2.46h0c-1.36,0-2.46-1.11-2.46-2.46v-31.55c0-1.36,1.11-2.46,2.46-2.46h0Z" style="fill:#1a1a1a; fill-rule:evenodd;"/><path d="M230.27,351.71v201.28c0,.6-.48,1.08-1.08,1.08s-1.08-.48-1.08-1.08v-201.28c0-.6.48-1.08,1.08-1.08s1.08.48,1.08,1.08h0Z" style="fill-rule:evenodd;"/><path d="M239.15,351.71v201.28c0,.6-.48,1.08-1.08,1.08s-1.08-.48-1.08-1.08v-201.28c0-.6.48-1.08,1.08-1.08s1.08.48,1.08,1.08h0Z" style="fill-rule:evenodd;"/><path d="M426.96,348.57v202.79c0,.6-.48,1.08-1.08,1.08s-1.08-.48-1.08-1.08v-202.79c0-.6.48-1.08,1.08-1.08s1.08.48,1.08,1.08h0Z" style="fill-rule:evenodd;"/><path d="M435.84,348.57v202.79c0,.6-.48,1.08-1.08,1.08s-1.08-.48-1.08-1.08v-202.79c0-.6.48-1.08,1.08-1.08s1.08.48,1.08,1.08h0Z" style="fill-rule:evenodd;"/><path d="M39.03,551.83h191.48c.6,0,1.08.48,1.08,1.08s-.48,1.08-1.08,1.08H39.03c-.6,0-1.08-.48-1.08-1.08s.48-1.08,1.08-1.08h0Z" style="fill-rule:evenodd;"/><path d="M238.24,551.83h187.46c.6,0,1.08.48,1.08,1.08s-.48,1.08-1.08,1.08h-187.46c-.6,0-1.08-.48-1.08-1.08s.48-1.08,1.08-1.08h0Z" style="fill-rule:evenodd;"/><path d="M433.58,551.83h195.2c.6,0,1.08.48,1.08,1.08s-.48,1.08-1.08,1.08h-195.2c-.6,0-1.08-.48-1.08-1.08s.48-1.08,1.08-1.08h0Z" style="fill-rule:evenodd;"/><path d="M62.74,371.3c1.96,0,146.08-1.01,146.77.67.08.2,1.01,156.73-.58,157.39-.19.08-146.52,1.03-147.18-.58-.17-.41-.08-155.69-.08-156.39,0-.6.48-1.08,1.08-1.08h0ZM63.82,373.46v153.82h143.61v-153.82H63.82Z" style="fill-rule:evenodd;"/><path d="M261.83,371.3c1.97,0,138.84-1.02,139.54.67.08.2,1.01,156.73-.58,157.39-.18.07-139.28,1.04-139.95-.58-.17-.41-.08-155.69-.08-156.39,0-.6.48-1.08,1.08-1.08h0ZM262.91,373.46v153.82h136.38v-153.82h-136.38Z" style="fill-rule:evenodd;"/><path d="M456.62,371.3c1.96,0,146.52-1.01,147.21.67.08.2,1.01,156.73-.58,157.39-.19.08-146.96,1.03-147.63-.58-.17-.41-.08-155.69-.08-156.39,0-.6.48-1.08,1.08-1.08h0ZM457.7,373.46v153.82h144.06v-153.82h-144.06Z" style="fill-rule:evenodd;"/><path d="M661.02,575.75h-.02c-2.49,0-653.02.52-653.61-.57-.54-1.02,6.52-11.86,7.85-11.94,1.22-.08,641.1-1.21,641.83.14l4.92,10.82h0s0,.02,0,.02v.03s.01,0,.01,0v.02s.01,0,.01,0v.02s0,0,0,0v.03s.02.02.02.02h0s0,.03,0,.03h0s0,.03,0,.03h0s0,.03,0,.03h0s0,.03,0,.03h0s0,.03,0,.03h0s0,.03,0,.03c0,.03,0,.05,0,.08h0s0,.03,0,.03h0s0,.06,0,.06v.02h0s0,.03,0,.03v.02s0,0,0,0v.03s0,.02,0,.02h0s0,.03,0,.03h0s0,.03,0,.03h0s0,.03,0,.03v.02s0,0,0,0h0s0,.03,0,.03c-.02.07-.04.13-.07.2v.02s-.01,0-.01,0v.02s-.01,0-.01,0v.02s-.01,0-.01,0v.02s-.01,0-.01,0v.02s-.01,0-.01,0v.02s-.01,0-.01,0v.02s-.01,0-.01,0v.02s-.02,0-.02,0v.02s-.03.02-.03.02h0s0,0,0,0h-.01c-.05.07-.1.13-.17.18h0s-.01.02-.01.02l-.02.02h-.01s0,.02,0,.02h-.01s0,.01,0,.01h-.01s0,.01,0,.01h-.02s0,.01,0,.01h-.02s0,.01,0,.01h-.02s0,.01,0,.01h-.02s0,.01,0,.01h-.02s-.03.02-.03.02h0s-.02.01-.02.01h-.02s0,0,0,0h-.03s-.02.02-.02.02h0s-.02,0-.02,0h0s-.02,0-.02,0h0s-.02,0-.02,0h0s-.02,0-.02,0h0s-.02,0-.02,0h0s-.02,0-.02,0c-.03,0-.05,0-.08,0h0s-.03,0-.03,0h0s-.06,0-.06,0h0ZM659.35,573.59l-3.95-8.69-639.57.49-5.46,8.19h648.98Z" style="fill-rule:evenodd;"/><path d="M19.72,574.64c1.19,6.68-7.35,4.73-.15,23.75,5.72,15.11-.17,30.91,16.82,25.01.63-.22.22-14.61,2.65-20.96,4.36-11.4,4.85-14.45-1.95-26.18-.51-.3-.68-.97-.38-1.48.3-.51.97-.68,1.48-.38,5.75,8.32,8.43,17.04,3.89,26.65-4.97,10.52-1.11,23.03-4.98,24.38-19.39,6.79-14.13-11.98-19.53-26.25-7.3-19.29.86-19.46.09-23.91-.18-.57.14-1.17.71-1.35.57-.18,1.17.14,1.35.71h0Z" style="fill-rule:evenodd;"/><path d="M44.82,575.09c.17,4.37-.16,22.65,4.49,24.36,1.12.41,9.52,2.24,10.13-1.02,1.8-9.52,1.84-13.93,2.54-23.59,0-.6.48-1.08,1.08-1.08s1.08.48,1.08,1.08c-.88,12.28,2.55,33.37-15.65,26.62-6.31-2.34-5.61-20.56-5.84-26.36,0-.6.48-1.08,1.08-1.08s1.08.48,1.08,1.08h0Z" style="fill-rule:evenodd;"/><path d="M651.66,575.29c-.77,4.46,7.4,4.62.09,23.92-5.4,14.27-.14,33.03-19.53,26.25-3.86-1.35,0-13.86-4.98-24.38-4.54-9.61-1.86-18.33,3.89-26.65.51-.31,1.18-.14,1.48.37s.14,1.18-.37,1.48c-6.81,11.72-6.32,14.78-1.96,26.18,2.43,6.34,2.01,20.74,2.65,20.96,16.99,5.89,11.1-9.89,16.82-25.01,7.2-19.02-1.34-17.07-.15-23.75.18-.57.78-.89,1.35-.71.57.18.89.78.71,1.35h0Z" style="fill-rule:evenodd;"/><path d="M626.66,575.09c-.23,5.8.47,24.02-5.84,26.36-18.2,6.75-14.77-14.34-15.65-26.62,0-.6.48-1.08,1.08-1.08s1.08.48,1.08,1.08c.7,9.66.74,14.08,2.54,23.59.62,3.27,9.01,1.44,10.13,1.02,4.66-1.71,4.32-19.99,4.49-24.36,0-.6.48-1.08,1.08-1.08s1.08.48,1.08,1.08h0Z" style="fill-rule:evenodd;"/><path d="M311.61,93.01c2.77,30.2,5.84,31.89-15.33,50.85-16.87,15.11-9.75,41.75,6.8,54.02,7.93,5.88,5.56,1.35-.53,19.83-2.14,6.51.66,6.26,10.33,7.12,3.61.32,46.76.94,42.82-5.33-.71-1.12-10.35-17.05-5.18-18.04,12.92-2.48,21.79-25.03,21.55-36.07-.72-33.41-29.51-20.91-28.65-56.01.36-14.91,1.72-7.66,1.64-15.63,0-.6.48-1.08,1.08-1.08s1.08.48,1.08,1.08c.07,7.53-1.36,4.1-1.65,15.73-.84,33.65,27.9,21.16,28.65,55.89.27,12.45-9.08,34.86-23.13,38.15-.19,2.71,5.16,12.84,6.29,14.65,7.28,11.69-44.06,9.08-48.97,8.28-20.17-3.26-.05-15.87-3-24.88-.08-.05-2.88-1.39-3.64-1.95-17.81-13.19-24.95-41.25-6.94-57.4,20.57-18.44,17.29-19.49,14.59-49.22,0-.6.48-1.08,1.08-1.08s1.08.48,1.08,1.08h0ZM350.79,203.59l-.08.02s.06-.01.08-.02h0Z" style="fill-rule:evenodd;"/><path d="M307.88,201.84c17.62,3.47,24.81,3.26,42.53,1.08.59-.11,1.15.27,1.27.85s-.27,1.15-.85,1.27c-18.25,2.24-25.44,2.44-43.58-1.14-.57-.18-.89-.78-.71-1.35.18-.57.78-.89,1.35-.71h0Z" style="fill-rule:evenodd;"/><path d="M265.82,88.98c36.45,4.61,90.29,3.69,127.48.78,1.21-8.44-5.59-79.18-8.35-86.61-38.04-.27-74.89-1.84-112.99-.06.39,3.23-7.38,73.56-8.24,86.63-.02.6-.53,1.06-1.12,1.03-.6-.02-1.06-.53-1.03-1.12,1.15-17.4,5.36-76.96,10.26-88.69,16.69-.78,32.3-1.05,48.92-.88,19.3.2,46.75-.26,64.75.94,4.33.29,13.14,90.12,8.67,90.86-24.46,4.06-103.37,2.46-128.77-.75-.59-.11-.97-.68-.86-1.27.11-.59.68-.97,1.27-.86h0Z" style="fill-rule:evenodd;"/><path d="M272.1,6.72c18.62-2.54,95.33-2.17,114.1.46.46.38.52,1.06.14,1.52-.38.46-1.06.52-1.52.14-27.32-1.95-85.13-2.97-111.58-.29-.51.32-1.17.16-1.49-.34-.32-.51-.16-1.17.34-1.49h0Z" style="fill-rule:evenodd;"/><path d="M265.65,84.88c42.4,1.27,84.5,1.15,126.91,1.11.6,0,1.08.48,1.08,1.08s-.48,1.08-1.08,1.08c-42.43.04-84.55.16-126.98-1.11-.6-.02-1.06-.52-1.04-1.11.02-.6.52-1.06,1.11-1.04h0Z" style="fill-rule:evenodd;"/></g></svg>