<?xml version="1.0" encoding="UTF-8"?><svg id="Layer_2" xmlns="http://www.w3.org/2000/svg" viewBox="0 0 405.87 433.59"><g id="Layer_1-2"><path d="M129.6,302.14c6.64-1.8,3.28-.79,10.06-3.07.56-.2,1.18.1,1.37.67.19.56-.1,1.18-.67,1.37-6.97,2.35-3.45,1.29-10.56,3.18-.59.06-1.12-.38-1.18-.97-.06-.59.38-1.12.97-1.18h0Z" style="fill-rule:evenodd;"/><path d="M156.9,298.11c18.06-2.55,9.01-1.71,27.15-2.54.6,0,1.08.48,1.08,1.08s-.48,1.08-1.08,1.08c-17.83.82-8.97,0-26.57,2.46-.57.16-1.17-.18-1.33-.75-.16-.57.18-1.17.75-1.33h0Z" style="fill-rule:evenodd;"/><path d="M157.8,305.31c17.51-3.2,8.66-2.13,26.56-3.17.6,0,1.08.48,1.08,1.08s-.48,1.08-1.08,1.08c-17.53,1.02-8.89-.02-25.92,3.07-.57.18-1.17-.14-1.35-.71-.18-.57.14-1.17.71-1.35h0Z" style="fill-rule:evenodd;"/><path d="M145.37,307.92c3.23-1.24,5.04-1.16,8.34-1.98.56-.2,1.18.1,1.37.67.2.56-.1,1.18-.67,1.37-2.75.69-5.45.87-7.9,1.77-.51.32-1.17.16-1.49-.34-.32-.51-.16-1.17.34-1.49h0Z" style="fill-rule:evenodd;"/><path d="M142.8,309.36c25.93,6.02,98.48,6.57,123.28-1.61,14.38-4.75-5.62-5.79-10.46-5.96-.6.02-1.1-.44-1.12-1.04s.44-1.1,1.04-1.12l6.32.21c10.49,1.04,17.77,5.72,4.82,9.97-25.28,8.3-98.08,7.74-124.47,1.61-.57-.16-.91-.76-.75-1.33.16-.57.76-.91,1.33-.75h0Z" style="fill-rule:evenodd;"/><path d="M225.27,298.75c4.85-.56,2.45-.45,7.19-.36.6,0,1.08.48,1.08,1.08s-.48,1.08-1.08,1.08c-4.52-.09-2.33-.19-6.55.26-.57.18-1.17-.14-1.35-.71-.18-.57.14-1.17.71-1.35h0Z" style="fill-rule:evenodd;"/><path d="M242.46,298.7h8.75c.6,0,1.08.48,1.08,1.08s-.48,1.08-1.08,1.08h-8.75c-.6,0-1.08-.48-1.08-1.08s.48-1.08,1.08-1.08h0Z" style="fill-rule:evenodd;"/><path d="M127.34,317.06c-1.03,14.02-5.26,94.5,6.94,101.97,20.03,12.27,88.81,15.93,112.3,8.72,31.8-9.76,26.14-25.05,27.1-51.79.87-24.14,3.03-41.88-.45-66.26-.12-.58.26-1.15.84-1.27.58-.12,1.15.26,1.27.84,3.53,24.69,1.37,42.35.49,66.77-.99,27.54,4.4,43.63-28.64,53.77-24.09,7.4-93.4,3.66-114.02-8.93-13.76-8.4-9.11-88.72-7.99-104.04.06-.59.59-1.03,1.18-.97.59.06,1.03.59.97,1.18h0Z" style="fill-rule:evenodd;"/><path d="M131.27,305.15c5.21,3.19,2.62,1.64,7.79,4.67.49.34.62,1.01.28,1.5s-1.01.62-1.5.28c-5.06-2.96-2.45-1.4-7.83-4.7-.48-.35-.59-1.02-.24-1.51.35-.48,1.02-.59,1.51-.24h0Z" style="fill-rule:evenodd;"/><path d="M310.3,216.79c-11.93,22.06-38.88,43.59-55.42,63.21-8.72,10.34-17.84,20.31-28.8,28.34-.59.09-1.14-.31-1.24-.9-.09-.59.31-1.14.9-1.24,10.34-8.68,18.55-16.81,27.26-27.26,16.16-19.39,43.68-41.53,55.31-62.97.23-.55.86-.82,1.41-.59.55.23.82.86.59,1.41h0Z" style="fill-rule:evenodd;"/><path d="M226.62,311.91c11.53-11.14,21.21-17.72,32.67-29.64,15.96-16.59,35.43-37.54,48.99-55.93.2-.56.81-.86,1.37-.67.56.2.86.81.67,1.37-13.24,18.39-33.38,39.98-49.25,56.46-11.68,12.13-21.14,18.56-32.76,29.76-.37.47-1.05.54-1.52.17-.47-.37-.54-1.05-.17-1.52h0Z" style="fill-rule:evenodd;"/><path d="M310.09,198.27c1.21-10.18,7.64-31.88-8.58-34.96-18.72-3.55-25.91,60.88-21.08,58.87,7.02-2.92,28.62-15.4,30.75-4.52,1.06,5.39-1.48,15.09-3.54,22.21,21.46-22.64,3.68,12.19,3.04,28.33-.58,14.55,5.3,33.93,16.31,43.36,5.89,5.05,1.12-18.33,1-23.82-.22-10.19.47-33.28,13.64-14.23,7.48,10.82,7.06,25.13,5.02,37.48-1.25,7.59,1.49,9.81,10,11.24,15.96,2.7,30.16-9.33,24.93-26.99-6.53-22.04-15.09-28.44-25.25-45.84-10.51-18.01,45.77,5.4,39.56,27.98,7.49-9.16,10.73-34.21,4.22-42.12-7.94-9.67-51.52-4.19-48.8-18.05,2.12-10.81,29.57-10.92,39.86-5.39,3.31,1.78,4.95,3.34,7.51,5.6-.2-12.43-10.58-33.83-26.57-28.22-9.78,3.43-25.81,14.3-37.22,9.34-5.68-2.47,4.82-11.96,6.12-12.85,9.78-6.68,31.79-11.44,41.7-5.05,1.77,1.14,3.6,2.68,5.34,4.21-9.57-20.97-58.19-49.23-69.22-10.25-3.7,13.09,6.56,11.71-5.82,24.11,10.25,5.43,18.06,30.39,23.06,41.3,7.64,16.68,11.95,23.38,21.67,38.45,6.13,9.5,8.28,14.04,12.53,24.4.19.56-.1,1.18-.67,1.37-.56.19-1.18-.1-1.37-.67-5.93-14.46-8.94-18.62-17.36-31.41-14.46-21.97-19.95-41.94-31.43-63.74-3.9-7.41-9.62-7.97-9.26-9.67-.07-.14-.11-.31-.11-.48h0ZM304.57,243.21h-.04s-.15.21-.15.21l.19-.21h0ZM312.53,196.21c9.7-9.82.57-9.22,4.25-22.21,7.6-26.85,31.37-24.29,51.84-12.21,6.37,3.76,23.43,18.97,22.86,26.86l-1.7.63c-11.23-9.9-13.62-10.4-29.51-8.66-6.6.72-25.73,8.61-24.77,15.79.06.06.21.13.25.14,10.6,4.48,26.41-6.14,35.66-9.38,18.74-6.56,30.76,19.22,29.26,33.03-4.81-1.22-1.4.11-5.99-3.42-10.12-7.8-26.53-9.2-37.76-2.9-18.28,10.25,34.06,14.22,34.13,14.23,20.98,4.22,14.47,25.9,11.48,40.01-3.24,15.29-12.24,15.47-9.99,11.76,8.9-14.73-21.45-36.37-35.52-34.06.25.82.92,2.01,1.21,2.51,10.3,17.64,18.79,23.79,25.46,46.33,7.55,25.53-21.42,37.19-36.78,25.66-9.17-6.88,7.24-24.95-7.02-45.58-10.97-15.88-9.88,4.22-9.7,12.95.03,1.31,5.77,37.29-5.68,24.44-23.4-26.26-16.21-47.57-8.32-76.95-2.83,1.8-9.11,8.1-10.01,9.45l-1.89-.71c.58-6.08,6.44-17.39,4.81-25.87-1.49-7.71-22.44,3.91-27.7,6.09-11.52,4.77-.69-66.96,20.56-62.94,16.76,3.17,12.33,22.98,10.61,35.02h0Z" style="fill-rule:evenodd;"/><path d="M315.46,281.54c-16.96-17.18,16.86-48.7,7.62-10.49-1.33,5.49-2.23,6.32-6.02,9.07.27.4.25.94-.08,1.32-.39.45-1.08.49-1.52.1h0ZM315.68,278.44c1.69-1.27,4.67-1.47,6-11.9,3.5-27.34-14.24-.2-6,11.9h0Z" style="fill-rule:evenodd;"/><path d="M320.23,198.27c15.02-5.17,13.86-30.79,47.16-25.3-36.07.23-34.22,25.93-47.16,25.3h0Z" style="fill-rule:evenodd;"/><path d="M324.29,212.01c9.21,4.95,37.88-26.68,61.01-8.87l-.03-.02c.39.27.21.12.55.45-.28-.04-.44-.05-.7-.17-8.53-4.18-15.74-5.19-25.46-2.88-4.36,1.04-33.31,16.68-35.37,11.48h0Z" style="fill-rule:evenodd;"/><path d="M285.87,187.33c11.8-1.02,15.82-1,21.55,9.68-8.59-8.36-8.82-7.83-21.55-9.68h0Z" style="fill-rule:evenodd;"/><path d="M284.94,213.88c.71-14.26,27.8-18.44,26.86-12.49-4.8-4.94-22.77,3.03-26.86,12.49h0Z" style="fill-rule:evenodd;"/><path d="M327.42,225.75c-3.1,10.11-6.09,11.05-9.68,19.05-.25-6.91,6.04-13.71,9.68-19.05h0Z" style="fill-rule:evenodd;"/><path d="M335.22,244.49c-1.31,8.04-4.67,13.61-7.18,21.86.55-11.97,2.01-11.65,7.18-21.86h0Z" style="fill-rule:evenodd;"/><path d="M332.1,227.63c33.26,7.25,38.04.92,59.94,26.81.28.33.4.41.65.68-.44.1-1.03-.51-1.3-.76-13.28-12.45-14.11-15.94-34.11-20.2-20.05-4.27-5.97-.21-25.18-6.53h0Z" style="fill-rule:evenodd;"/><path d="M347.09,256.05c7.03,4.87,15.85,12.62,21.24,19.05-10.13-7.52-13.49-9.43-21.24-19.05h0Z" style="fill-rule:evenodd;"/><path d="M361.46,279.48c11.45,2.11,18.6,19.06,18.43,29.36-2.73-11.01-8.45-23.22-18.43-29.36h0Z" style="fill-rule:evenodd;"/><path d="M357.71,284.47c-1.39,17.8-1.22,15.06,1.56,31.23-6.86-13.04-4.77-17.4-1.56-31.23h0Z" style="fill-rule:evenodd;"/><path d="M120.64,225.13c-10.91,20.18-19.66,30.8-29.23,53.26-6.84,16.06-12.58,27.23-19.81,42.63,4.01-11.41,8.42-19.15,12.75-29.96,12.75-31.85,16.55-37.69,36.29-65.93h0Z" style="fill-rule:evenodd;"/><path d="M94.41,279.16c.6,15.06-.32,20.8-2.5,34.98-.65-13.04,1.02-21.98,2.5-34.98h0Z" style="fill-rule:evenodd;"/><path d="M103.15,254.8c12.1,19.58,17.16,29.9,17.49,53.72-.39-1.61-1.14-4.65-1.47-6.27-4.95-24.01-5.46-25.23-16.02-47.45h0Z" style="fill-rule:evenodd;"/><path d="M117.21,240.75c20.68,12.41,30.1,23.04,38.02,46.36.11.31.38.12.08.8,0,0-.12-.41-.14-.42,0,0,0,0,0,.01-.21-.08-.27-.25-.36-.44-11.35-23.03-17.19-30.71-37.61-46.31h0Z" style="fill-rule:evenodd;"/><path d="M122.52,234.5c14.75.36,23.13.04,36.8,7.34,2.71,1.44,10.65,8.16,9.74,10.15-.31-.87-.07-.11-.69-.8-10.13-11.32-11.88-7.43-24.79-13.15-6.21-2.75-13.47-1.83-21.06-3.54h0Z" style="fill-rule:evenodd;"/><path d="M129.08,225.44c12.3-6.38,27.08-14.97,39.83-4.04.35.3.47.79.46,1.23-10.29-9.91-29.8-.87-40.29,2.81h0Z" style="fill-rule:evenodd;"/><path d="M74.1,205.76c15.31-10.18,31.05,1.07,40.22,14.19.71,1.02,1.68,1.71,1.64,2.99-.9-1.33-1.37-1.46-2.33-2.58-11.04-12.88-22.46-20.6-39.53-14.6h0Z" style="fill-rule:evenodd;"/><path d="M62.86,232.94c22.75-3.71,22.37-5.25,43.42,4.37-28.39-7.52-15.17-4.09-43.42-4.37h0Z" style="fill-rule:evenodd;"/><path d="M53.18,257.92c6.65-6.98,36.08-7.59,44.04-7.5-8.76,1.2-36,3.87-44.04,7.5h0Z" style="fill-rule:evenodd;"/><path d="M122.51,224.39c-2.41-5.25,5.48,3.69,12.67-8.37,10.64-17.86,13.74-31.22,35.24-13.5,15.03,12.39,17.16,27.29,16.93,46.85,0,.1,0,.16-.01.25l-1.75.71c-4.27-7.77-2.21-10.01-14.13-16.69-3.67-2.05-18.06-5.97-20.2-2.84.37,8.29,51.29,3.15,18.54,42.07-6.25,7.42-3-4.29-3.84-7.05-3.39-11.19-17.35-22.76-28.55-21.32-9.21,1.18,26.79,20.9,25.6,33.87-.88,9.5-34.14,58.59-25.78,34.72,5.58-15.92-1.19-45.69-13.85-52.47-10.53-5.64,5.38,33.3,5.78,34.99,4.87,20.5-3.49,23.88-20.34,34.72-11.83,7.61-3.09-3.17-1.66-9.21,1.5-6.33,3.97-47.61-4.81-42.62-6.27,3.57,17.6,39.28-6.98,55.9-6.35,4.29-11.9,1.19-21.03,5.5-6.43,3.03-11.35.18-14.71-6.92-2.77-5.85,5.12-22.11,4.86-25.98-6.81,1.7-6.89,19.88-8.06,23.05l-1.05,1.64.56,1.05-.58-1.03-1.32,2.05c-10.72-20.07-9.6-17.27,5.6-37.01,3.53-4.59,8.62-8.69,8.93-14.71-.4-.26-.62-.59-.82-1-5.89.01-22.57,27.55-24.1,33.99-1.28,5.39-22.77-18.8-5.16-30.87,5.75-3.94,50.27-18.41,35.22-23.64-2.16-.75-28.59,9.84-30.02,10.21-2.4.63-10.24,2.24-14.46,3.12-7.84,1.62.62-19.72,16.39-24.7,10.53-3.33,41.44-2.33,42.7-7.01,1.27-4.69-38.4-2.82-48.54,2.22-6.28,3.12-23.25,14.83-10.14-2.83,15.25-20.55,32.33-18.36,56.59-14.79,14.7,2.16,2.97-6.25-5.99-7.41-17.78-2.31-34.25,3.9-42.24,3.11-4.42-.44,1.57-9.33,13.39-16.41-.49-.3-.66-.93-.39-1.43,2.73-4.43,9.96-12.7,14.2-15.74,12.03-8.62,21.8-9.33,34.58-9.89,14.2-.63,37.05,3.13,34.45,22.39-.56,4.14-11.98,24.84-14.29,19.57-9.16-20.91-36.14-24.18-55.62-18.72-8.12,2.28-22.01,10.8-25.54,18.11,4.35-.4,45.95-9.23,54.4,2.07,11.57,15.47-27.48-2.05-48.78,8.18-4.93,2.37-15.6,13.55-17.22,18.33,2.86-.92,10.03-5.65,11.47-6.37,8.72-4.35,49.2-8.94,51.76-1.43,3.32,9.69-34.59,4.99-48.22,11.79-5.96,2.97-14.87,14.2-13.81,18.9.13.01.31-.01.42-.04,3.62-.76,13.88-2.97,14.26-3.07,7.01-1.85,27.18-12.7,32.96-9.42,15.79,8.97-32.7,21.83-40.44,30.05-5.39,5.73,1.87,20.01,6.45,24.02l3.4-8.58c.29-.57,18.64-32.2,24.33-24.5,5.11,2.21-7.33,16.39-8.35,17.71-13.9,18.05-15.64,15.8-7.17,31.63-.26-2.95,2.66-18.8,5.92-22.01,13.93-13.76-1.44,20.59,1.68,24.92,4.83,6.71,5.93,8.1,11.5,5.47,9.28-4.39,15.18-1.56,20.86-5.4,16.86-11.41,8.71-31.1,5.71-45.63-1.73-8.36,1.65-14.56,6.64-9.66,7.57,7.43,6,38.28-.63,52.32,5.42-3.3,17.5-12.27,19.23-13.86,13.08-12.01-15.86-51.32-5.31-57.32,9.7-5.52,20.51,27.45,21.58,34.83,1.91,13.31-1.62,15.4-3.2,22.66,5.8-6.56,22.04-31.37,22.63-37.76,1.11-12.04-36.45-30.95-25.06-35.47,7.94-3.15,23.46,6.85,28.57,14.74,5.38,8.31,4.19,9.16,3.5,14.37l.29-.34c15.83-18.85,15.11-25.82-7.63-33.48-32.48-10.93,12.32-17.85,24.5,4.91-.52-7.83-2.04-17-4.03-23.17-3.43-10.68-23.11-29.81-32.67-20.87-13.95,13.04-6.33,25.75-23.97,25.62-.09.13-.22.25-.37.33-.52.28-1.18.09-1.46-.43h0ZM53.35,204.93c14.29-7.87,35.95-12.62,58.03,1.36,6,3.8,7.41,7.12,9.99,12.68,7.22-9.66,19.13-22.65,3-33.28-16.29-10.73-50.79-3.63-63.83,10.4,0,0-5.07,5.72-7.19,8.84h0ZM41.66,314.3c-.07.11-.12.23-.14.36l.14-.36h0Z" style="fill-rule:evenodd;"/><path d="M156.85,294.52c2.41,11.07,1.62,5.46,2.35,16.81,0,.6-.48,1.08-1.08,1.08s-1.08-.48-1.08-1.08c-.7-10.8.01-5.58-2.02-15.67-.32-.51-.16-1.17.34-1.49.51-.32,1.17-.16,1.49.34h0Z" style="fill-rule:evenodd;"/><path d="M154.52,297c.64,9.51.38,4.92.79,13.76.49.34.6,1.02.26,1.51-.34.49-1.02.6-1.51.26-1.59-10.49-1.03-5.29-1.71-15.6.02-.6.52-1.06,1.11-1.05.6.02,1.06.52,1.05,1.11h0Z" style="fill-rule:evenodd;"/><path d="M171.66,270.14c7.6,15.29,16.06,27.82,24.65,42.39.21.56-.08,1.18-.64,1.39-.56.21-1.18-.08-1.39-.64-8.75-14.69-17.07-27.05-24.7-42.57-.16-.58.18-1.17.76-1.32.58-.16,1.17.18,1.32.76h0Z" style="fill-rule:evenodd;"/><path d="M175.98,264.98c7.11,13.98,17.72,33.92,26.54,46.28.56.2.86.81.67,1.37-.19.56-.81.86-1.37.67-7.5-8.21-21.93-35.86-27.8-47.43-.25-.54,0-1.18.54-1.43.54-.25,1.18,0,1.43.54h0Z" style="fill-rule:evenodd;"/><path d="M173.79,175.02c8.09,20.46,11.68,41.99,18.69,63.17,4.89,14.79,8.58,29.17,12.9,44.09.18.57-.14,1.17-.71,1.35-.57.18-1.18-.14-1.35-.71-4.31-14.88-7.99-29.24-12.87-43.99-6.98-21.08-10.6-42.71-18.63-63.02-.25-.54,0-1.18.54-1.43s1.18,0,1.43.54h0Z" style="fill-rule:evenodd;"/><path d="M177.87,170.68c6.55,18.7,8.93,36.17,16.3,55.18,5.48,14.14,9.85,27.37,14.64,41.7.19.56-.1,1.18-.67,1.37-.56.2-1.18-.1-1.37-.67-4.74-14.18-9.08-27.4-14.51-41.39-7.48-19.28-9.82-36.58-16.4-55.39-.23-.55.04-1.18.59-1.41.55-.23,1.18.04,1.41.59h0Z" style="fill-rule:evenodd;"/><path d="M199.5,164.88c2.09,13.73,11.65,48.76,17.26,61.14.37.47.29,1.15-.18,1.52-.47.37-1.15.29-1.52-.18-5.82-12.41-15.72-48.67-17.72-62.55.02-.6.52-1.06,1.12-1.04.6.02,1.06.52,1.04,1.12h0Z" style="fill-rule:evenodd;"/><path d="M201.87,163.04c6.62,18.41,7.34,33.19,14.95,52.69l1.99,5.3c.2.56-.1,1.18-.67,1.37-.56.2-1.18-.1-1.37-.67l-1.96-5.24c-7.4-19.32-8.52-32.99-14.21-51.72-.48-.35-.58-1.03-.23-1.51.35-.48,1.03-.58,1.51-.23h0Z" style="fill-rule:evenodd;"/><path d="M213.66,169.85c-3.99,11.11-2.18,5.49-5.42,16.86,0,.6-.48,1.08-1.08,1.08s-1.08-.48-1.08-1.08c3.38-12.26,1.43-6.22,5.83-18.12.35-.48,1.02-.59,1.51-.24s.59,1.02.24,1.51h0Z" style="fill-rule:evenodd;"/><path d="M218.51,170.13c-2.53,7.83-5.19,15.61-7.77,23.43.01.6-.47,1.09-1.06,1.1-.6,0-1.09-.47-1.1-1.06,2.4-8.08,5.26-16.02,7.85-24.05.16-.57.76-.91,1.33-.75.57.16.91.76.75,1.33h0Z" style="fill-rule:evenodd;"/><path d="M205.7,196.06c-3.19,12.71-6.05,25.03-8.4,37.94-.07.59-.6,1.02-1.2.95-.59-.07-1.02-.6-.95-1.2,2.36-13.04,5.24-25.44,8.47-38.27.16-.57.76-.91,1.33-.75.57.16.91.76.75,1.33h0Z" style="fill-rule:evenodd;"/><path d="M209.43,205.1c-1.74,12.55-7.92,28.48-8.06,38.77,0,.6-.48,1.08-1.08,1.08s-1.08-.48-1.08-1.08c.14-9.69,6.08-27.04,8.18-38.07-.19-.56.11-1.18.67-1.37.56-.19,1.18.11,1.37.67h0Z" style="fill-rule:evenodd;"/><path d="M195.44,249.17c-.97,14.22-3.44,25.05-6.27,38.95-.12.58-.69.96-1.27.84-.58-.12-.96-.69-.84-1.27,2.78-13.67,5.27-24.53,6.23-38.51,0-.6.48-1.08,1.07-1.09.6,0,1.08.48,1.09,1.07h0Z" style="fill-rule:evenodd;"/><path d="M200.11,264.65c-1.58,18.12-.53,25.24.32,42.63,0,.6-.48,1.08-1.08,1.08s-1.08-.48-1.08-1.08c-.87-17.57-1.9-24.61-.3-42.95.09-.59.64-.99,1.23-.9.59.09.99.64.9,1.23h0Z" style="fill-rule:evenodd;"/><path d="M235.42,171.99c-10.18,29.03-16.65,43.24-22.04,74.56-4.03,23.42-6.51,34.63-8.11,58.54l-.46,6.56c0,.6-.48,1.08-1.08,1.08s-1.08-.48-1.08-1.08c1.88-26.86,4.05-39.05,8.6-65.47,5.06-29.37,11.53-46.67,22.01-74.12-.02-.6.45-1.1,1.04-1.11.6-.02,1.1.45,1.11,1.04h0Z" style="fill-rule:evenodd;"/><path d="M200.29,297.14c2.94.27,1.5.05,4.33.66.58.15.93.74.78,1.31-.15.58-.74.93-1.31.78-2.53-.55-1.27-.36-3.79-.59-.6,0-1.08-.48-1.08-1.08s.48-1.08,1.08-1.08h0Z" style="fill-rule:evenodd;"/><path d="M239.65,173.19c-12.45,29.13-14.79,50.62-21.31,80.32-4.15,18.88-5.07,39.36-5.18,58.65.23.55-.02,1.18-.57,1.42-.55.23-1.18-.02-1.42-.57-.17-19.68.83-40.69,5.06-59.96,6.61-30.1,8.87-51.34,21.55-80.92.3-.52.96-.7,1.47-.4.52.3.7.96.4,1.47h0Z" style="fill-rule:evenodd;"/><path d="M215.37,277.94c1.11,7.93,2.91,12.83,5.28,20.78.24.55-.02,1.18-.56,1.42-.55.24-1.18-.02-1.42-.56-2.69-8.99-4.56-13.38-5.34-22.32.19-.57.8-.87,1.37-.68.57.19.87.8.68,1.37h0Z" style="fill-rule:evenodd;"/><path d="M218.58,311.96c1.83-23.61,4.64-46.06,5.65-69.75.61-14.31,2.43-25.49,3.09-39.57,0-.6.48-1.08,1.08-1.08s1.08.48,1.08,1.08c-.66,14.03-2.48,25.35-3.09,39.65-1.01,23.57-3.75,46.16-5.65,69.67,0,.6-.48,1.08-1.08,1.08s-1.08-.48-1.08-1.08h0Z" style="fill-rule:evenodd;"/><path d="M236.93,180.78c-6.02,27.39-5.38,61.72-8.15,90.25-1.21,12.44-1.56,23.8-2.73,36.24,0,.6-.48,1.08-1.08,1.08s-1.08-.48-1.08-1.08c1.17-12.51,1.53-23.97,2.75-36.47,2.79-28.76,2.12-63.01,8.24-90.66.18-.57.78-.89,1.35-.71.57.18.89.78.71,1.35h0Z" style="fill-rule:evenodd;"/><path d="M256.91,169.17c-1.26,18.93-21.65,80.55-27.74,103.34.05.59-.39,1.12-.98,1.17-.59.05-1.12-.39-1.17-.98,6.46-27.55,25.43-78.74,27.86-102.8-.2-.56.09-1.18.66-1.38.56-.2,1.18.09,1.38.66h0Z" style="fill-rule:evenodd;"/><path d="M260.4,168.91c-2.13,28.75-16.33,61.71-22.47,91.34-2.04,9.83-4.93,21.96-8.21,31.32-.12.35-3.99,7.81-3.54,10.44.3.45.21,1.07-.22,1.42-.46.38-1.14.31-1.52-.15-.91-1.34-.16-3.65.3-5.01,4.85-14.27,7.91-23.19,11.05-38.29,6.07-29.27,20.35-62.9,22.45-91.07,0-.6.48-1.08,1.08-1.08s1.08.48,1.08,1.08h0Z" style="fill-rule:evenodd;"/><path d="M127.5,112.69c2.13,10.01,15.47,12.54,24.7,7.75,11.34-5.88,33.11,1.47,16.92,25.01-11.33,16.46-16.11,27.61-31.04,9.71-4.68-5.62-19.26-22.29-27.46-10.32-8.86,12.95,22.67,26.04,16.87,37.1-.68,1.3-1.19,1.73-2.18,2.83-.43.42-1.11.41-1.53-.02-.42-.43-.41-1.11.02-1.53.8-.89,1.23-1.25,1.78-2.29,4.57-8.69-26.61-22.89-16.74-37.31,9.37-13.69,25.03,3.13,30.99,10.27,13.45,16.12,16.68,6.06,27.6-9.8,14.7-21.34-4.84-26.61-14.08-21.83-10.68,5.53-25.49,2.52-28-9.35-.06-.59.37-1.13.96-1.19.59-.06,1.13.37,1.19.96h0Z" style="fill-rule:evenodd;"/><path d="M91.2,180.1c-.66-3.3-2.73-26.5-7.56-23.9-7.65,4.13-3.34,18.62-1.82,25.23.38.46.32,1.14-.14,1.52-.46.38-1.14.32-1.52-.14-2.07-7.3-6.85-25.41,3.34-28.89,7.39-2.52,9,21.7,9.77,25.53.18.57-.14,1.17-.71,1.35-.57.18-1.17-.14-1.35-.71h0Z" style="fill-rule:evenodd;"/><path d="M62.19,178.54c-3.21,13.13-1.99,6.32-3.54,20.45,0,.6-.48,1.08-1.08,1.08s-1.08-.48-1.08-1.08c1.62-14.79.28-7.56,3.95-21.71.35-.48,1.02-.59,1.51-.24.48.35.59,1.02.24,1.51h0Z" style="fill-rule:evenodd;"/><path d="M58.32,183.83c-10.28,12.23-18.83,37.81-21.49,40.12-.16.14-.27.22-.38.29-3.25,6.81-22.06,9.45-11.29-22.81,6.98-20.9,37.15-44.09,38.43-56.84,0-.04.05-.5-.04-.65-1.46-.84-10.56,5.34-10.94,5.69-.98.91-19.12,30.22-20.51,12.73-.82-10.41,34.14-73.73,49.65-44.8,1.18,2.2,9.97,23.32,12.19,8.87,1.91-12.41-10.2-26.35,11.47-39.12,13.49-7.95,41.72-11.01,51.44,1.01,7.35,9.09-18.08,13.99-24.1,18.68,0,0-6.2,5.28-6.2,5.28-.49.34-1.16.21-1.5-.28-.34-.49-.21-1.16.28-1.5,12.23-10.07,7.2-6.54,21.97-12.35,25.15-9.88-11.76-19.06-28.94-14.19-37.13,10.53-18.64,33.93-22.93,45.17-5.33,13.97-13.66-6.95-15.6-10.55-13.69-25.53-46.28,34.81-45.6,43.63.9,11.7,12.06-9.71,17.11-14.35.48-.44,13.67-10.24,14.36-4.05,1.73,15.38-43.37,41.88-41.59,76.16.67,12.85,11.25,2.4,11.27,2.39l-.07.02h0c.07-.06.09-.07.16-.14,3.74-4.12,9.41-25.81,21.32-39.96.43-.41,1.11-.4,1.53.02.42.43.4,1.11-.02,1.53h0Z" style="fill-rule:evenodd;"/><path d="M57.51,172.81c11.31-20.71,33.86-38.74,55.03-48.4,3.54-1.61,6.47-2.7,9.92-4.02.46-.38,1.14-.32,1.52.14.38.46.32,1.14-.14,1.52-1.45.6-10.45,4.34-10.45,4.34-20.58,9.38-42.85,27.09-53.88,47.23-.23.55-.86.82-1.41.59-.55-.23-.82-.86-.59-1.41h0Z" style="fill-rule:evenodd;"/><path d="M119.84,139.92c10.85,9.78,27.16,39.19,33.36,53.09.2.56-.1,1.18-.67,1.37-.56.2-1.18-.1-1.37-.67-5.78-12.91-22.46-42.6-32.21-51.83-.54-.25-.78-.89-.54-1.43s.89-.78,1.43-.54h0Z" style="fill-rule:evenodd;"/><path d="M130.16,144.1c5.51,9.7,24.63,42.66,26.59,48.71.56.2.86.81.67,1.37-.2.56-.81.86-1.37.67-8.8-12.9-19.23-34.66-27.74-49.65-.3-.51-.13-1.18.38-1.48s1.18-.13,1.48.38h0Z" style="fill-rule:evenodd;"/><path d="M90.03,71.94c1.57,8.84,24.87-29.24,29.83,5.76.25,1.75.17,3.36.15,5.13,0,.6-.48,1.08-1.08,1.08s-1.08-.48-1.08-1.08c.01-1.6.1-3.22-.13-4.81-4.76-33.48-27.04,9.66-29.84-5.85-.06-.59.37-1.13.96-1.19.59-.06,1.13.37,1.19.96h0Z" style="fill-rule:evenodd;"/><path d="M71.95,111.4c.05-.66,2.4-20.64,7.7-14.71,2.85,3.19-.6,13.14-1.38,15.99-.19.57-.8.87-1.37.68-.57-.19-.87-.8-.68-1.37.18-.65,3.83-12.49,1.76-13.92-3.06.22-3.78,12.24-3.87,13.32,0,.6-.48,1.08-1.08,1.08s-1.08-.48-1.08-1.08h0Z" style="fill-rule:evenodd;"/><path d="M78.54,116.27c4.84-15.25,13.03-11.22,16.17-.1-.05.59-.57,1.04-1.16.99-.59-.05-1.04-.57-.99-1.16-5.26-10.5-8.48-10.05-11.93.84-.16.58-.75.92-1.32.76-.58-.16-.92-.75-.76-1.32h0Z" style="fill-rule:evenodd;"/><path d="M89,70.12c13.09-8.07,18.99-21.77,11.7-36.09-6.78-13.3-17.64-13.29-31.43-13.2,2.86.98,5.04,1.16,8.88,7.37,10.89,17.59,5.58,38.41-7.31,20.07-15.17-21.59-20.46-9.67-34.67,1.01,8.75,1.98,40.1,11.2,31.36,21.62-8.15,9.71-27.23-20.23-39.84-10.82-2.11,1.57-11.22,8.95-14.61,12.5,8.47-1.58,9.29-3.65,21.56-1.3,0,0,34.41,8.8,26.58,15.21-8.96,7.33-46.13-12.68-50.52-2.77-.7,1.59-5.68,16.57-7.6,22.39,8.04-7.65,3.81-14.28,27.19-14.06,17.31.16,26.23,7.38,6.62,15.06-22.21,8.7-38.44,7.86-27.35,33.59,5.4-8.67,24.44-29.69,34.05-28.34,11.18,1.57-17.98,26.6-18.2,26.86-19.06,23.44-5.46,30.19,13.32,41.4.56.2.86.81.67,1.37-.19.56-.81.86-1.37.67-10.24-6.04-25.26-11.85-23.35-26.21,2.08-15.62,13.04-21.57,22.1-30.38,1.62-1.57,12.59-15.45,3.18-10.71-18.02,9.08-24.39,22.1-29.68,26.93l.14.32-.19-.27c-.58.53-1.15.96-1.72,1.27-9.51-20.7-5.34-26.87,15.31-34.59,1.09-.41,37.62-10.85,14.17-14.22-12.94-1.86-22.59-1.89-30,7.95-.89,1.18-11.18,14.08-6.95,2.48,9.72-26.65,3.75-29.17,27.73-24.23,64.3,13.26,12.61-9.27-5.69-8.44-3.52.16-19.33,6.06-10.3-2.73,20.43-19.87,20.25-16.22,43.04-2.46,12.56,7.58,14.58-.8,4.53-6.96-28.22-17.28-35.67-2.64-19.3-18.01,13.83-12.98,21.24-10.13,31.6,4.62,13.42,19.1,11.23-12.22,0-22.17-.76-.67-12.56-5.15-6.88-6.05,8.43-1.33,27.14-.05,33.32,8.23,12,16.09,8.17,34.42-9.22,45.04-.55.23-1.18-.03-1.41-.58-.23-.55.03-1.18.58-1.41h0Z" style="fill-rule:evenodd;"/><path d="M53.97,148.4c.53,9.26-.08,4.69,1.82,13.73.18.57-.14,1.18-.71,1.35-.57.18-1.18-.14-1.35-.71-2-9.51-1.37-4.72-1.92-14.37,0-.6.48-1.08,1.08-1.08s1.08.48,1.08,1.08h0Z" style="fill-rule:evenodd;"/><path d="M42.49,139.83c-3.27-15.24,32.7-56.31,46.58-64.58.56-.2,1.18.1,1.37.67.2.56-.1,1.18-.67,1.37-12.88,7.86-48.1,48.38-45.23,61.88.18.57-.13,1.18-.7,1.36-.57.18-1.18-.13-1.36-.7h0Z" style="fill-rule:evenodd;"/><path d="M133.06,79.36c15.76-18.05,22.38,6.28,31.26,5.66,13.54-.93,37.42-14.6,44.08-2.26,1.64,3.04-8.15,22.17-8.91,24.23-4.41,11.79-6.94,27.54-22.53,32.44-1.89.59-2.19.51-4.15.68-.6,0-1.08-.48-1.08-1.08s.48-1.08,1.08-1.08c11.5-.98,19-12.91,21.93-22.94,1.14-3.92,12.05-29.72,11.78-31.21-6.67-10.38-27.78,2.39-42.09,3.38-10.61.73-15.41-22.82-29.63-6.51-.36.47-1.04.57-1.51.2-.47-.36-.57-1.04-.2-1.51h0Z" style="fill-rule:evenodd;"/><path d="M138.45,101.93c2.79.35,21.72,2.78,17.88,10.38-1.88,3.72-18.65,3.88-21.4,10.2-.2.56-.81.86-1.37.67-.56-.2-.86-.81-.67-1.37,3.29-7.57,19.47-8.03,21.47-10.43-1.41-6.87-11.15-6.66-16.55-7.39-.57-.18-.89-.78-.71-1.35.18-.57.78-.89,1.35-.71h0Z" style="fill-rule:evenodd;"/><path d="M163.53,87.33c-3.09,12.32-1.87,6.17-3.71,18.44,0,.6-.48,1.08-1.08,1.08s-1.08-.48-1.08-1.08c1.89-12.78.63-6.43,3.79-19.03.16-.57.76-.91,1.33-.75s.91.76.75,1.33h0Z" style="fill-rule:evenodd;"/><path d="M169.15,149.04c5.84,13.39,35.04,12.6,40,16.12,10.23,7.26,22,5.51,34.7,6.2,3.24.17,5.67-1.1,8.56-2.38.54-.26,1.18-.04,1.45.49.26.54.04,1.18-.49,1.45-8.38,3.72-17.28,2.44-26.34,1.97-15.49-.81-18.19-6.64-21.44-7.01-11-1.26-33.18-3.96-38.51-16.25-.16-.57.17-1.17.75-1.33.57-.16,1.17.17,1.33.75h0Z" style="fill-rule:evenodd;"/><path d="M181.08,154.99c.97-24.86,48.57-34.97,20.71-1.24-5.59,6.76-9.88,6.13-17.78,7.81-.54.25-1.18,0-1.43-.54-.25-.54,0-1.18.54-1.43,7.08-1.59,11.99-1.16,16.97-7.18,25.41-30.76-16.07-17.31-16.85,2.5.02.6-.45,1.09-1.04,1.11-.6.02-1.09-.45-1.11-1.04h0Z" style="fill-rule:evenodd;"/><path d="M142.34,159.09c.75,1.45,16.36,33.67,20.16,29.6,4.57-4.89,5.72-9.79,9.44-14.97.05-.07,8.26-10.36,9.55-11.65.47-.37,1.15-.29,1.52.18.37.47.29,1.15-.18,1.52-2.33,2.33-2.56,3.41-4.45,5.72-6.12,7.47-9.9,15.99-14.35,20.74-6.74,7.18-22.37-27.75-23.55-30.03-.3-.51-.13-1.18.38-1.48.51-.3,1.18-.13,1.48.38h0Z" style="fill-rule:evenodd;"/><path d="M160.48,87.16c-3.88-14.31-7.5-22.18,13.76-20.9,3.52.21,17.43,1.53,21.95.78-9.62-4.99-62.2,5.53-15.32-24.87,25.08-16.27,29.41-6.55,36.03,17.35.19.56-.1,1.18-.67,1.37-.56.2-1.18-.1-1.37-.67-6.24-22.46-9.06-31.67-32.75-16.29-28.98,18.81-19.79,17.62,1.18,19.08,20.67,1.45,23.65,7.65-3.75,5.83-23.63-1.57-21.55.41-16.91,18.08.06.59-.37,1.13-.96,1.19-.59.06-1.12-.37-1.19-.96h0Z" style="fill-rule:evenodd;"/><path d="M201.41,98.14c1.84-2.42,13.78-15.44,15.47-6.67,1.39,7.24-12.6,16.9-17.49,19.2-.38.46-1.06.53-1.52.16s-.53-1.06-.16-1.52c1.5-1.13,1.17-.66,2.48-1.29,19.43-9.34,17.58-27.85,2.99-8.66-.34.49-1.01.62-1.5.28-.49-.34-.62-1.01-.28-1.5h0Z" style="fill-rule:evenodd;"/><path d="M288.97,51.08c-3.63-7.37,17.99-69-54.2-37.75-.21.09-2.88,1.22-3.2,1.98.45.96,17.63,7.89,24.13,13.69.29.26,21.28,19.17,8.99,19.39-2.23.04-49.19-29.17-47.75-6.05.75,12.05-1.07,15.34-1.01,25.12.19,32.23,12.7-12.35,20.1-13.95,2.9-.62,48.26,7.73,23.29,14.9-5.3,1.52-35.93,9.1-38.34,16.74-.91,2.89-.9,16.14-.72,17.24,5.02.65,19.65-16.23,46.31-8.49,14.27,4.14-20.71,12.37-20.72,12.37-14.06,2.45-23.55-4.03-18.44,13.94.09.32.91,3.13,1.71,3.9,2.81-2.59,19.9-19.26,24.67-11.9,3.79,5.84-23.19,13.1-18.81,24.75,1.31,3.5,12.87,31.92,17.57,31.52,11.16-.94,21.16,10.81,30.04,10.25.58-.15,1.17.2,1.31.78.15.58-.2,1.17-.78,1.31-8.25.65-24.5-11.17-28.7-10.74.02-.02,0,0,.06-.03-8.8,4.03-17.23-23.46-20.17-29.57-8-16.65,11.05-16.4,17.16-27.32-.44-.24-.88-.4-1.48-.43-12.71-.81-20.02,24.39-24.68,8.05-4.85-17.01,1.96-14.67,13.22-15.88,5.45-.59,26.21-4.64,28.94-8.27-2.55-1.87-16.93-2.52-19.33-2.44-12.09.42-29.65,15.73-30.07,8.15-1-18.13-.62-21.11,14.96-28.1,4.96-2.22,30.54-8.66,31.59-10.51-1.15-1.93-25.4-9.98-29.22-7.76-2.09,1.21-21.44,48.61-21.66,11.44-.06-9.64,1.68-13.04,1.02-24.87-1.29-23.2,35.95-3.66,42.41-.29l6.55,3.91c9.26,3.06-8.96-15.13-9.61-15.71-10.65-9.51-34.71-12.85-20.21-19.14,74.68-32.4,54.27,33.21,56.88,38.6.32.51.16,1.17-.35,1.49-.51.32-1.17.16-1.49-.35h0Z" style="fill-rule:evenodd;"/><path d="M290.7,50.42c6.13,1.67-3.79-34.79,2.44-41.5,15.41-16.6,58.02-7.7,65.85,7.83.09.16.17.33.24.51.02.04.04.07.05.11h-.02s.04.09.06.15l-1.06,1.29c-.56-.09-.75-.18-1-.69.01.04.03.08.07.14-7.13-9.1-41.7,15.52-37.01,23.42,3.37,5.69,32.08-24.31,51.65-2.55,8.02,8.92,8.68,40.78,1.65,19.2-6.05-18.58-52.6-2.99-41.5,3.46,8.41,4.89,46.45-10,46.23,22.16-.03,4.69-4.18,20.68-9.26,22.63-5.77,2.21,10.64-16.15-18.77-31.5-7.37-3.84-30.17-4.49-26.95.75,9.9,16.12,35.27,11.69,45.07,37.36,8.44,22.13-23.63,42.99-18.58,31.12,4.55-10.68-17.25-51.07-31.37-51.62-13.57-.53,11.4,21.23,16.45,36.83,2.97,9.17,4.46,12.99,4.73,22.77-.08.59-.63,1-1.22.92-.59-.08-1-.63-.92-1.22-.67-23.15-10.54-31.5-21.96-49.6-6.64-10.53-1.57-14.67,8.24-10.84,9.19,3.6,32.15,36.7,28.03,52.75,26.79-14.52,16.38-42.96-8.15-51.99-6.13-2.25-30.84-16.95-20.64-20.71,16.18-5.97,34.72,1.3,43.93,15.3,5.08,7.72,4.51,9.9,3.45,14.67,3.67-5.36,5.72-10.73,5.77-17.67.24-31.83-40.58-12.57-46.61-21.61-7.32-10.99,21.27-15.01,27.71-14.58,17.88,1.18,16.32,6.93,19.17,13.59.33-7.15-2.35-18.13-8.05-22.62-13.17-10.35-24.86-3.93-36.75,2.38-21.43,11.37-15.26-9.14,2.12-20.3,2.76-1.77,14.31-6.9,20.98-6.25-11.34-12.33-46.89-18.33-60.02-4.15-5.82,6.29,6.62,45.17-4.73,42.11-.57-.19-.87-.8-.68-1.37.19-.57.8-.87,1.37-.68h0Z" style="fill-rule:evenodd;"/><path d="M324.87,159.17c-.13-24.09-.55-37.27-14.65-58-5.21-7.66-4.35,6.1-2.39,10.93,4.26,10.47,20.32,48.53,7.46,59.37l-1.99,1.32c-.54.26-1.18.03-1.44-.51-.26-.54-.03-1.18.51-1.44l1.5-1c10.33-8.74-2.31-44.8-5.81-52.59-7.82-17.4-1.85-25.8,3.97-17.26,14.34,21.06,14.87,34.7,15,59.18,0,.6-.48,1.08-1.08,1.08s-1.08-.48-1.08-1.08h0Z" style="fill-rule:evenodd;"/><path d="M292.32,51.32c2.39,36.1-.15,47.04-16.51,77.95-5.75,10.87-11.83,17.37-15.87,25.16-3.05,5.9-3.56,11.02-4.1,17.39,0,.6-.48,1.08-1.08,1.08s-1.08-.48-1.08-1.08c1.86-22.08,9.63-23.56,20.21-43.55,19.13-36.16,16.24-36.62,16.38-77.64.19-.57.8-.87,1.37-.68.57.19.87.8.68,1.37h0Z" style="fill-rule:evenodd;"/><path d="M217.38,97.61c20.91-20.9,44.01-23.16,72.25-19.12.59.12.97.68.85,1.27-.12.59-.68.97-1.27.85-27.23-3.89-49.94-1.84-70.14,18.35-.37.47-1.05.54-1.52.17-.47-.37-.54-1.05-.17-1.52h0Z" style="fill-rule:evenodd;"/><path d="M292.26,54.11c16.16-.88,6.27-42.3,23.18-47.29.59-.11,1.15.27,1.27.85.11.59-.27,1.15-.85,1.27-14.83,4.37-4.74,46.28-23.66,47.33-.6-.02-1.06-.52-1.04-1.11.02-.6.52-1.06,1.11-1.04h0Z" style="fill-rule:evenodd;"/><path d="M292.38,55.1c27.07-10.58,13.59-35.93,43.53-42.61.56-.2,1.18.1,1.37.67.19.56-.1,1.18-.67,1.37-29.31,6.64-14.96,31.44-43.59,42.63-.57.18-1.17-.14-1.35-.71-.18-.57.14-1.18.71-1.35h0Z" style="fill-rule:evenodd;"/><path d="M254.87,13.42c16.43-4.67,28.07,20.28,31.1,32.52.79,3.2,5.07,6.43,7.28,8.89.2.56-.1,1.18-.67,1.37-.56.2-1.18-.1-1.37-.67-2.62-2.25-6.45-5.5-7.33-9.07-2.65-10.75-13.53-35.21-28.28-31.02-.56.2-1.18-.09-1.38-.66-.2-.56.09-1.18.66-1.38h0Z" style="fill-rule:evenodd;"/><path d="M291.88,60.21c4.47.37,36.33,1.73,38.84,7.28.19.56-.1,1.18-.67,1.37-.56.19-1.18-.1-1.37-.67-1.64-3.35-34.04-5.59-37.03-5.84-.59-.06-1.02-.6-.96-1.19.06-.59.6-1.02,1.19-.96h0Z" style="fill-rule:evenodd;"/><path d="M292.86,78.67c4.23,2.99,17.89,11.83,20.09,17.03.13.58-.23,1.16-.81,1.29-.58.13-1.16-.23-1.29-.81-1.76-3.83-16.04-13.49-19.25-15.76-.48-.35-.59-1.02-.24-1.51.35-.48,1.02-.59,1.51-.24h0Z" style="fill-rule:evenodd;"/><path d="M288.9,92.6c12.75,6.99,19.11,49.43,20.34,62.87.14,1.5.81,2.89,1.35,4.28.19.56-.1,1.18-.67,1.37-.56.2-1.18-.1-1.37-.67-.76-1.98-1.28-2.9-1.46-5.08-1.03-12.16-7.82-54.6-19.01-60.78-.55-.23-.81-.86-.58-1.41.23-.55.86-.81,1.41-.58h0Z" style="fill-rule:evenodd;"/><path d="M283,113.62c2.27,12.45,7.26,29.6,4.49,42.21-.77,3.5-.68,4.65.14,8.13.19.56-.1,1.18-.67,1.37-.56.2-1.18-.1-1.37-.67-1.04-4.37-1.05-5.32-.1-9.66,2.45-11.18-2.62-30.07-4.64-41.16-.06-.59.37-1.13.96-1.19.59-.06,1.13.37,1.19.96h0Z" style="fill-rule:evenodd;"/><path d="M274.57,132.47c.79,16.69,1.47,13.25-.53,30.61l-.41,5.46c0,.6-.48,1.08-1.08,1.08s-1.08-.48-1.08-1.08c.03-.44.4-5.45.45-5.86,2.01-17.1,1.27-13.64.49-30.2,0-.6.48-1.08,1.08-1.08s1.08.48,1.08,1.08h0Z" style="fill-rule:evenodd;"/><path d="M241.97,144.22c.78-14.88,27.86-27.23,38.46-31.05l-.43.13s.94-.51.94-.51c.52-.28,1.18-.09,1.46.43.28.52.09,1.18-.43,1.46-.62.34-.68.41-1.36.64-9.2,3.05-35.78,15.79-36.48,28.83.02.6-.45,1.09-1.04,1.11-.6.02-1.09-.45-1.11-1.04h0Z" style="fill-rule:evenodd;"/><path d="M232.64,92.21c12.8-6.22,47.06-15.4,56.34.44.26.54.04,1.18-.49,1.45-.54.26-1.18.04-1.45-.49-8.4-14.34-41.79-5.11-53.26.44-.51.32-1.17.16-1.49-.34-.32-.51-.16-1.17.35-1.49h0Z" style="fill-rule:evenodd;"/><path d="M218.49,49.66c30.18-20.56,38.43,12.74,72.65,10.55.59-.08,1.14.33,1.22.92s-.33,1.14-.92,1.22c-35.21,2.26-43.03-30.48-71.61-11-.47.37-1.15.3-1.52-.17-.37-.47-.3-1.15.17-1.52h0Z" style="fill-rule:evenodd;"/></g></svg>