<?xml version="1.0" encoding="UTF-8"?><svg id="Layer_2" xmlns="http://www.w3.org/2000/svg" viewBox="0 0 1115.12 443.25"><g id="_Layer_"><path d="M1019.78,427.4l-20.16-94.9,44.9-2.52-86.94-156.37-18.76-.55.72-41.42-27.1-1.14s-.36,33.32-.24,40.15c-9.83.29-62.75-.2-110.08-.76v-43.59l59.96-55.52,53.36,57.93h29.96l-69.07-67.29h-16.04l-61.97,58.87v3.77l-29,7.95v41.18l29.11.36-.25,14.69-54.78-1.02v-47.35h12.45l-85.75-97,1.11,19.02,66.22,74.26h-7.39l1.52,58.52h-125.49v-48.92l60.3-77.81,1.16-24.09-58.28,14.44-79.61,96.59,65.11-11.11v5.8l-49.19,6.59.37,33.81-16.76-1.35-1.59-74.3,20.32-.35L450.72,0l-31.98,11.19-107.2,99.51,56.72,9.06,76.38-91.45,77.1,82.4-8.6.15,1.01,76.56-138.74,3.46-1.42-64.37-12.46-3.64,1.52,67.67-12.37-4.81v-59.46l-20.78-4.94v60.05l17.44,6.88v92.16l-45.93-10.81v-54.03l-6.51-5.97.29-12.37-85.94-77.39h-56.5l-.37-25.76-22.44,4.84-.33,24.59,3.72.05.29-21.63,15.1-3.26.36,24.89h58.74l83.61,75.29-.17,7.41-80.51-73.85-104.59,92.98H24.69v-5.22l89.25-78.01,71.79-12.39-.4-3.69-74.43,3.33L0,228.92h20.97v43.71s25.6,4.71,49.42,8.79c49.02,8.4,50.19,7.44,51.21,6.59l.72-.65-1.09-60.84,4.09-5.64,1.39,67.84,117.63-7.07-93.55,13.05,75.73,20.53h127.14l81.05-85.71,111.88-9.29.19,7.48-107.62,8.48-104.81,114.24,22.72-.38v61.51l130.02,9.63v11.79h143.33l.39-13.85-139.99-1.51v-72.39l149.65-4.01.64,61.05h29.23v11.96h142.4l-2.22-15.43h-126.34v-83.95l58.81-88.19.14-14.5,73.2,115.93v81.84h161.87l-19.69-81.9,16.27.14,19.7,115.08h120.41l.23-3.71-95.34-12.14ZM861.77,65.15h13.04l61.36,59.82h-19.09l-54.79-59.44-34.03,31.47,33.52-31.85ZM333.61,178.84v-52.8l13.34,3.14v55.06l-13.34-5.4ZM773.04,134.86l25.35-6.94v41.93l-25.35-.32v-34.67ZM927.65,194.39l75.26,121.07h-51.22l2.1,8.8-117.74-1.04-89.97-132.2,181.58,3.37ZM838.11,332.88l-13.87.77-4.2-6.65v-.2l14.01.12,4.05,5.96ZM549.31,159.42l49.15-6.59v-13.47l-59.59,10.18,72.46-87.92,52.23-12.94-.86,17.92-60.36,77.88v50.04l-52.7-4.24-.33-30.86ZM444.48,22.69l-77.72,93.06-47.09-7.52L420.7,14.45l28.84-10.1,90.39,106.03-13.19.23-82.27-87.93ZM21.6,217.93l-.64.56v6.73h-11.28l102.7-92.14,43.67-1.96-43.78,7.56L21.6,217.93ZM117.48,225.35s.95,49.8,1.09,59.54c-9.29-.33-60.71-9.27-93.88-15.36v-40.41h82.89l19.88-17.55-9.98,13.78ZM128.82,210.36l81.9-72.93,80.43,73.78-1.49,63.99-159.31,9.57-1.53-74.41ZM432.98,225.92l-80.93,85.62h-124.81l-57.9-15.67,123.94-17.16,1.49-64.15,2.9,2.66v55.34l53.39,12.56v-95.39l15.81,6.32-1.53-68.19,4.96,1.45,1.44,65.38,146.15-3.64-1.01-76.53,6.95-.12,1.66,77.68,20.45,1.65.54,22.78-113.51,9.42ZM626.97,422.82l-.18,6.44h-135.98v-7.92l136.16,1.47ZM644.14,337.18l-80.52-99.81,3.73-5,87.76,104.74-10.97.3v-.22ZM807.3,402.63l1.12,7.88h-134.37v-8.13h6.42v.25h126.83ZM739.28,225.5l-59.06,88.22v84.95h-6.17v-79.23l-11.32.43,76.66-107.23-.12,12.86ZM739.59,206.16l-84.3,117.73,15.04-.58v75.25h-25.55l-.6-57.43,18.73-.5-95.74-114.25-5.97,8.01-3.55-4.4-95.13,114.42,21.01.4,77.79-104.34,78.31,97.07-152.55,4.09v75.85l-126.3-9.36v-57.41h90.76v-19.43l-90.76,15.21v-.21l-17.84.3,97.96-106.77,109.68-8.64-.9-37.13,52.66,4.24v.14h133.03l-1.52-58.52h5.73v66.27ZM558.91,237.47l-77.22,103.57-11.35-.21,87.27-104.97,1.3,1.61ZM380.31,346.97l67.51-11.31v11.31h-67.51ZM742.41,136.16l-67.57-75.77-.41-6.98,73.15,82.75h-5.18ZM743.21,205.31l-.02-.04.11-11.71,88.21,129.61-13.95-.12-74.34-117.75ZM973.47,406.19h-153.43v-72.22l2.22,3.51,22.63-1.26-6.31-9.27,116.08,1.02,18.8,78.2ZM997.62,439.53l-19.7-115.05-20.3-.18-1.22-5.11h53.2l-79.86-128.48-127.84-2.37.25-14.71,40.23.44c72.15.72,72.34.49,73.16-.5l.59-.6-.18-.87c-.17-1.58,0-22.72.16-37.7l19.64.82-.72,41.46,20.32.6,83.02,149.33-43.31,2.43,21.61,101.73,68.85,8.77h-87.92Z" style="fill:#0c0c0c;"/></g></svg>